SplineFontDB: 3.0
FontName: GoudyBookletter1911Bold
FullName: GoudyBookletter1911 Bold
FamilyName: GoudyBookletter1911Bold
Weight: Bold
Copyright: This font has been released into the public domain by its author, Barry Schwartz. This applies worldwide.\n\nIn some countries this may not be legally possible; if so:\n\nBarry Schwartz grants anyone the right to use this work for any purpose, without any conditions, unless such conditions are required by law.
Version: 2010.07.03
ItalicAngle: 0
UnderlinePosition: -90
UnderlineWidth: 45
Ascent: 737
Descent: 263
LayerCount: 2
Layer: 0 0 "Back"  1
Layer: 1 0 "Fore"  0
NeedsXUIDChange: 1
XUID: [1021 658 797806517 331928]
UniqueID: 4088483
FSType: 0
OS2Version: 3
OS2_WeightWidthSlopeOnly: 0
OS2_UseTypoMetrics: 1
CreationTime: 1199071125
ModificationTime: 1329137373
PfmFamily: 17
TTFWeight: 400
TTFWidth: 5
LineGap: 90
VLineGap: 0
Panose: 2 0 5 3 0 0 0 0 0 0
OS2TypoAscent: 0
OS2TypoAOffset: 1
OS2TypoDescent: 0
OS2TypoDOffset: 1
OS2TypoLinegap: 90
OS2WinAscent: 0
OS2WinAOffset: 1
OS2WinDescent: -1
OS2WinDOffset: 1
HheadAscent: 0
HheadAOffset: 1
HheadDescent: 1
HheadDOffset: 1
OS2SubXSize: 650
OS2SubYSize: 700
OS2SubXOff: 0
OS2SubYOff: 140
OS2SupXSize: 650
OS2SupYSize: 700
OS2SupXOff: 0
OS2SupYOff: 480
OS2StrikeYSize: 49
OS2StrikeYPos: 258
OS2Vendor: 'PfEd'
OS2CodePages: 00000092.0d940000
OS2UnicodeRanges: 8000002f.0000004a.00000000.00000000
Lookup: 1 0 0 "'ss01' Style Set 1 in Latin lookup 0"  {"'ss01' Style Set 1 in Latin lookup 0 subtable"  } ['aalt' ('DFLT' <'dflt' > 'latn' <'dflt' > ) 'ss01' ('DFLT' <'dflt' > 'latn' <'dflt' > ) ]
Lookup: 4 0 1 "'liga' Standard Ligatures in Latin lookup 1"  {"'liga' Standard Ligatures in Latin lookup 1 per glyph data 0"  "'liga' Standard Ligatures in Latin lookup 1 per glyph data 1"  "'liga' Standard Ligatures in Latin lookup 1 per glyph data 2"  "'liga' Standard Ligatures in Latin lookup 1 per glyph data 3"  } ['liga' ('DFLT' <'dflt' > 'latn' <'dflt' > ) ]

StartChar: .notdef
Encoding: 65536 -1 0
Width: 500
Flags: HW
HStem: 0 50<100 400> 441 50<100 400>
VStem: 50 50<50 441> 400 50<50 441>
LayerCount: 2
Fore
SplineSet
30 -20 m 1
 30 511 l 1
 470 511 l 1
 470 -20 l 1
 30 -20 l 1
120 70 m 1
 380 70 l 1
 380 421 l 1
 120 421 l 1
 120 70 l 1
EndSplineSet
EndChar

StartChar: exclam
Encoding: 33 33 2
Width: 325
GlyphClass: 2
Flags: HW
HStem: -16 101<123.334 207.265>
VStem: 108 96<367.096 637.634> 114 103<-6.4071 75.7681> 127 32<195.064 282.718>
LayerCount: 2
Fore
SplineSet
194 694 m 0
 224.391 694 224 660.689 224 648 c 0
 224 625 l 0
 224 408.106 186.387 229.916 177.974 204.675 c 0
 175.804 198.166 167.399 175 142 175 c 0
 106.532 175 107 214.848 107 225 c 0
 107 241.73 l 1
 101.001 463.69 88 606.43 88 611 c 0
 88 619.62 89.4855 628.083 93.9069 635.463 c 0
 99.0248 644.006 105.669 648.003 110.629 651.103 c 1
 177.13 690.221 177.876 694 194 694 c 0
166 105 m 0
 203.67 105 237 74.5013 237 34 c 0
 237 -4.04528 205.979 -36 166 -36 c 0
 129.057 -36 94 -7.07551 94 35 c 0
 94 77.4476 129.612 105 166 105 c 0
EndSplineSet
EndChar

StartChar: quotedbl
Encoding: 34 34 3
Width: 389
GlyphClass: 2
Flags: HW
HStem: 457 258
VStem: 38 314
LayerCount: 2
Fore
SplineSet
150 735 m 0
 185.188 735 207 706.228 207 677 c 0
 207 654.08 195.821 638.072 190.498 628.314 c 1
 157.802 570.072 98.1161 463.155 92 455 c 0
 91.6926 454.59 l 1
 91.3644 454.196 l 0
 84.3767 445.811 73.2076 437 58 437 c 0
 32.2816 437 18 459.65 18 479 c 0
 18 480 l 0
 18 496.009 19.9339 494.049 78.1619 665.725 c 1
 86.414 687.731 102.433 735 150 735 c 0
316 735 m 0
 350.609 735 372 705.953 372 677 c 0
 372 654.816 362.385 639.106 356.436 628.199 c 1
 322.711 569.948 264.734 463.446 256.439 454.253 c 1
 247.374 443.899 237.896 437 223 437 c 0
 197.282 437 183 459.65 183 479 c 0
 183 480 l 0
 183 495.903 185.133 494.635 244.059 665.422 c 1
 251.404 687.457 267.624 735 316 735 c 0
EndSplineSet
EndChar

StartChar: numbersign
Encoding: 35 35 4
Width: 552
GlyphClass: 2
Flags: HW
HStem: 157 45<54.0142 152.998 206.138 318.839 372.236 497.98> 353 45<54.0204 179.998 234.002 345.999 400.001 497.891>
VStem: 153 45<-3.6207 156.771> 189 45<398 553.952> 319 44<-10.2178 157> 327 45<202 347.564> 355 45<398 558.829>
LayerCount: 2
Fore
SplineSet
324.318 333 m 1
 243.452 333 l 1
 238.743 297.935 231.444 247.398 227.988 222 c 1
 308.475 222 l 1
 317.339 285.584 322.031 316.302 324.318 333 c 1
336.803 419.163 m 1
 363.078 605.266 357.608 604.811 369 620 c 1
 369.036 619.973 378.195 635 401 635 c 0
 411 635 l 0
 423.39 635 447 628.076 447 604 c 0
 447 590.281 427.994 465.259 421.822 418 c 1
 479 418 l 0
 487.104 418 496.51 416.387 504.38 409.907 c 0
 517.509 399.098 518 383.688 518 372 c 0
 518 361.409 516.138 348.886 505.657 340.338 c 0
 497.146 333.396 487.907 333 482 333 c 0
 409.32 333 l 1
 404.543 297.418 397.222 246.294 393.91 222 c 1
 480 222 l 0
 485.828 222 494.449 221.762 503.03 215.807 c 0
 515.493 207.158 518 192.759 518 180 c 0
 518 169.739 517.393 156.224 506.165 145.979 c 0
 498.189 138.701 488.251 137 480 137 c 0
 376 137 l 0
 375 137 398.813 138.106 381.974 137.297 c 1
 357.92 -34.2587 361.759 -28.2028 354.889 -41.9443 c 0
 345.707 -60.3068 326.57 -63 315 -63 c 0
 294.048 -63 275 -49.8571 275 -29 c 0
 275 -17.8513 291.35 93.6956 297.124 137 c 1
 242 137 l 0
 229.13 137 221.495 136.891 214.611 136.576 c 1
 210.286 136.275 217.994 137.246 216.533 137.051 c 1
 192.81 -33.9609 195.228 -29.7814 190.57 -41.4278 c 0
 190.054 -42.7171 l 1
 189.365 -43.9228 l 0
 180.146 -60.0559 162.461 -63 147 -63 c 0
 135.224 -63 108 -56.941 108 -29 c 0
 108 -18.2181 125.186 93.8195 131.176 137 c 1
 70 137 l 0
 60.4016 137 49.2083 139.908 41.8753 148.89 c 0
 33.7162 158.883 34 169.431 34 176 c 0
 34 184.726 31.3798 198.473 42.7223 211.285 c 0
 50.4977 220.067 61.4154 222 70 222 c 0
 142.406 222 l 1
 147.928 260.144 154.848 308.809 158.064 333 c 1
 72 333 l 0
 66.1721 333 57.5504 333.238 48.9701 339.193 c 0
 36.5068 347.842 34 362.241 34 375 c 0
 34 384.848 34.7422 397.605 44.9279 407.846 c 0
 52.642 415.602 63.0304 418 72 418 c 0
 170.497 418 l 1
 197.108 606.632 191.788 602.187 200.85 617.29 c 0
 201.095 617.698 l 1
 201.359 618.094 l 0
 210.277 631.471 225.979 635 241 635 c 0
 242 635 l 0
 246.873 635 282 634.693 282 602 c 0
 282 590.727 262.547 464.391 256.081 418 c 1
 346 418 l 0
 347 418 336.803 419.163 336.803 419.163 c 1
EndSplineSet
EndChar

StartChar: dollar
Encoding: 36 36 5
Width: 482
GlyphClass: 2
Flags: HW
HStem: 1 41<126.287 185.998> 599 39<139.978 185.991 228 265.03>
VStem: 16 91<74.0898 178.771> 41 58<446.429 562.384> 186 41<-96.9934 1.49219 48.8126 294.997 409.001 594.467 636.303 684.991> 332 70<101.123 239.657>
LayerCount: 2
Fore
SplineSet
396 531 m 0
 396 497.135 372.449 467 335 467 c 0
 267.564 467 260.459 554.38 248 569.318 c 1
 248 420 l 0
 248 412.165 247.007 404.148 246.994 403.766 c 1
 252.643 401.3 264.762 397.932 282.797 390.418 c 1
 374.852 350.813 401.168 292.007 412.147 255.777 c 1
 418.747 233.781 422 211.01 422 189 c 0
 422 68.4553 333.335 2.36474 247 -15.1222 c 1
 247 -78 l 0
 247 -94.8582 234.653 -117 207 -117 c 0
 181.441 -117 167 -97.1644 167 -78 c 0
 167 -18.4284 l 1
 63.4441 -9.82248 -4 68.6908 -4 133 c 0
 -4 172.786 24.1492 208 65 208 c 0
 99.1061 208 127 180.905 127 142 c 0
 127 126.376 124 116.667 124 107 c 0
 124 80.336 144.05 68.7925 166 63.8084 c 1
 166 301.024 l 1
 66.6965 325.952 21 412.737 21 484 c 0
 21 572.04 83.2152 643.359 166 654.936 c 1
 166 665 l 0
 166 669.174 165.806 678.073 171.534 687.607 c 0
 178.166 698.644 191.405 705 206 705 c 0
 207 705 l 0
 220.324 705 233.311 700.042 240.845 689.471 c 0
 246.937 680.925 248 671.858 248 665 c 0
 248 656.266 l 1
 334.883 642.257 396 586.439 396 531 c 0
166 573.106 m 1
 143.525 561.989 119 540.089 119 504 c 0
 119 468.282 144.686 447.43 166 436.208 c 1
 166 573.106 l 1
246.993 269.121 m 1
 246.897 156.605 246 104.21 246 75 c 0
 246 71.9622 246.011 69.7145 246.011 69.7145 c 1
 273.139 83.4108 312 115.746 312 171 c 0
 312 224.653 273.049 255.666 246.993 269.121 c 1
EndSplineSet
EndChar

StartChar: percent
Encoding: 37 37 6
Width: 820
GlyphClass: 2
Flags: HW
HStem: -93 39<596.026 686.047> 170 38<148.026 238.047> 252 38<583.686 671.302> 515 38<135.782 223.302>
VStem: 41 60<264.374 459.62> 271 60<265.244 456.628> 489 60<2.06218 116 118 196.557> 719 60<2.68817 193.628>
LayerCount: 2
Fore
SplineSet
655.933 555.344 m 0
 264.851 -103.915 260.529 -114.4 249.781 -125.496 c 1
 241.836 -134.615 229.748 -143 213 -143 c 0
 195.459 -143 168 -131.977 168 -104 c 0
 168 -93.1169 173.005 -85.2678 174.111 -83.0557 c 0
 174.409 -82.4613 l 1
 174.745 -81.8876 l 0
 570.49 593.391 565.251 588.535 575.858 599.142 c 1
 575.858 599.142 602.997 615 613 615 c 0
 618.511 615 663 614.474 663 577 c 0
 663 566.458 658.905 559.802 655.933 555.344 c 0
179 495 m 0
 137.952 495 121 430.552 121 379 c 0
 121 339.748 135.616 262.919 161.884 240.299 c 1
 174.169 230.182 187.999 228 193 228 c 0
 232.896 228 242.819 272.152 246.234 296.058 c 1
 249.184 313.759 251 331.323 251 348 c 0
 251 426.999 217.994 495 179 495 c 0
193 573 m 0
 258.23 573 351 523.234 351 375 c 0
 351 248.586 285.4 150 179 150 c 0
 114.033 150 21 198.565 21 346 c 0
 21 490.843 99.1158 573 193 573 c 0
627 232 m 0
 586.879 232 569.154 171.985 568.051 122.619 c 1
 569 120.721 l 1
 569 116 l 0
 569 77.7153 583.363 1.13652 610.141 -21.9225 c 1
 622.508 -32.8351 634.813 -34 641 -34 c 0
 680.956 -34 690.816 10.2614 694.245 33.128 c 1
 697.17 50.6695 699 68.297 699 86 c 0
 699 163.929 666.027 232 627 232 c 0
641 310 m 0
 706.23 310 799 260.234 799 112 c 0
 799 -13.3854 733.494 -113 627 -113 c 0
 562.033 -113 469 -64.4349 469 83 c 0
 469 227.843 547.116 310 641 310 c 0
EndSplineSet
EndChar

StartChar: ampersand
Encoding: 38 38 7
Width: 828
GlyphClass: 2
Flags: HW
HStem: -23 77<253.323 436.75> 154 35<392.292 467.569> 360 32<183.728 301.127> 384 62<131.409 174.589> 440 33<181.692 300.583> 645 56<151.444 248.706> 677 38<643.513 724.85>
VStem: 30 79<178.938 345.842> 58 44<460.076 594.439> 100 76<400.864 431.197> 303 35<395.011 436.183> 338 36<206.326 300.965> 468 53<191.42 247> 573 70<616.704 676.103> 586 33<156.893 293.79> 768 41<504.154 630.001>
LayerCount: 2
Fore
SplineSet
78.0384 421.247 m 1
 77.3852 422.151 76.8204 422.92 76.1154 423.878 c 0
 63.9173 440.437 38 474.662 38 529 c 0
 38 630.614 128.819 721 233 721 c 0
 265.958 721 360 711.303 360 640 c 0
 360 601.762 327.137 575 295 575 c 0
 233.399 575 232.69 625 208 625 c 0
 176.859 625 122 588.707 122 529 c 0
 122 507.409 131.399 483.312 140.078 471.213 c 0
 141.059 469.845 142.611 467.967 142.914 467.623 c 1
 160.336 474.89 199.336 493 251 493 c 0
 302.833 493 358 469.117 358 417 c 0
 358 364.143 299.32 340 246 340 c 0
 245 340 l 0
 201.062 340 168.747 354.093 152.865 361.182 c 1
 136.531 331.473 129 300.382 129 268 c 0
 129 192.16 178.62 83.0013 359.458 74 c 1
 377 74 l 0
 503.416 74 549.543 139.002 562.271 194.683 c 0
 564.856 205.993 566 217.01 566 227 c 0
 566 286.299 531.503 327 482 327 c 0
 432.703 327 394 286.949 394 251 c 0
 394 244.148 395.523 237.382 398.28 231.423 c 0
 403.2 220.788 411.559 213.453 421.749 210.391 c 1
 417.846 214.257 417.167 215.111 415 218 c 0
 414.667 218.444 l 1
 414.359 218.906 l 0
 408.467 227.744 404 239.062 404 252 c 0
 404 282.641 429.746 308 463 308 c 0
 502.246 308 541 276.066 541 230 c 0
 541 178.279 493.657 134 435 134 c 0
 397.37 134 364.088 152.165 342.871 180.134 c 0
 327.208 200.783 318 226.844 318 255 c 0
 318 317.827 361.475 373.599 426.056 405.889 c 0
 516.103 450.911 612.537 442.608 673.891 469.283 c 1
 711.898 486.476 748 519.947 748 570 c 0
 748 598.916 736.32 622.277 719.783 637.532 c 0
 706.301 649.97 690.034 656.511 674.23 656.99 c 1
 677.834 648.143 679 642.264 679 633 c 0
 679 600.612 653.511 572 618 572 c 0
 579.047 572 553 605.952 553 641 c 0
 553 698.575 607.557 735 661 735 c 0
 696.763 735 732.474 720.543 761.658 695.98 c 0
 800.877 662.972 829 610.828 829 548 c 0
 829 431.328 728.951 341.355 613.671 332.605 c 1
 625.258 310.99 639 278.726 639 232 c 0
 639 230 l 0
 639 209.975 636.275 190.277 631.147 171.254 c 0
 598.582 50.4371 470.602 -43 321 -43 c 0
 143.958 -43 10 90.0053 10 245 c 0
 10 342.597 61.6462 402.53 78.0384 421.247 c 1
261 412 m 0
 271.278 412 280.689 414.153 282.842 415.336 c 1
 282.132 416.018 277.017 420 260 420 c 0
 242.472 420 226.466 417.91 215.356 415.478 c 1
 228.49 412.315 242.072 412 261 412 c 0
EndSplineSet
EndChar

StartChar: quotesingle
Encoding: 39 39 8
Width: 224
GlyphClass: 2
Flags: HW
HStem: 457 258
VStem: 38 149
LayerCount: 2
Fore
SplineSet
150 735 m 0
 185.188 735 207 706.228 207 677 c 0
 207 654.846 196.09 638.565 190.498 628.314 c 1
 157.802 570.072 98.1161 463.155 92 455 c 0
 91.6926 454.59 l 1
 91.3644 454.196 l 0
 84.3767 445.811 73.2076 437 58 437 c 0
 31.9191 437 18 460.314 18 480 c 0
 18 481 l 0
 18 496.447 19.8705 493.862 78.1619 665.725 c 1
 86.414 687.731 102.433 735 150 735 c 0
EndSplineSet
EndChar

StartChar: parenleft
Encoding: 40 40 9
Width: 363
GlyphClass: 2
Flags: HW
HStem: 698 20G<291 303>
VStem: 45 76<116.498 405.186>
LayerCount: 2
Fore
SplineSet
336 -174 m 0
 336 -198.529 315.243 -214 295 -214 c 0
 279.745 -214 267.234 -206.849 258.177 -199.361 c 1
 119.809 -90.5907 25 77.2577 25 262 c 0
 25 429.626 107.736 601.788 254.736 719.802 c 1
 262.386 725.539 275.962 738 297 738 c 0
 310.308 738 323.322 732.172 331.155 720.964 c 0
 335.548 714.679 338 706.951 338 699 c 0
 338 676.502 321.462 663.415 316.974 659.768 c 1
 219.462 571.639 141 435.359 141 263 c 0
 141 106.587 205.58 -33.961 313.467 -132.213 c 0
 313.812 -132.528 l 1
 314.142 -132.858 l 0
 317.088 -135.803 336 -149.655 336 -174 c 0
EndSplineSet
EndChar

StartChar: parenright
Encoding: 41 41 10
Width: 363
GlyphClass: 2
Flags: HW
HStem: 702 20G<63.5 73.5>
VStem: 242 76<121.91 410.739>
LayerCount: 2
Fore
SplineSet
28 701 m 0
 28 710.233 30.9541 719.041 36.1688 725.937 c 0
 44.165 736.51 56.5449 742 69 742 c 0
 86.0476 742 97.1888 732.858 105.17 726.873 c 1
 243.792 618.255 338 449.968 338 265 c 0
 338 97.3727 255.264 -74.7867 108.264 -192.802 c 1
 100.615 -198.538 87.0376 -211 66 -211 c 0
 45.7569 -211 25 -195.529 25 -171 c 0
 25 -148.032 43.2481 -135.468 45.8579 -132.858 c 0
 46.2259 -132.49 l 1
 46.6126 -132.141 l 0
 144.012 -44.3849 222 91.2876 222 264 c 0
 222 421.557 157.96 561.083 50.8241 659.945 c 1
 44.9357 664.845 28 677.549 28 701 c 0
EndSplineSet
EndChar

StartChar: asterisk
Encoding: 42 42 11
Width: 335
GlyphClass: 2
Flags: HW
HStem: 448 21G<263.5 290.5> 497 109<106.146 135.998 198.001 226.26> 701 20G<159 183>
VStem: 129 78<389.462 485.336 613.573 717.469> 136 62<426.987 496.937 607.071 673.685>
LayerCount: 2
Fore
SplineSet
341 617 m 0
 341 577.116 298.441 562.027 277.052 553.931 c 1
 300.969 546.988 339 531.102 339 487 c 0
 339 452.366 310.602 428 281 428 c 0
 254.581 428 234.909 445.719 221.932 458.305 c 1
 224.532 443.955 227 434.488 227 423 c 0
 227 374.278 178.426 364 165 364 c 0
 144.861 364 109 379.986 109 426 c 0
 109 439.088 111.123 451.902 112.941 462.937 c 1
 95.9407 449.584 75.1938 433 46 433 c 0
 2.59864 433 -6 477.389 -6 488 c 0
 -6 532.22 43.1099 549.142 64.1906 557.854 c 1
 41.4679 564.154 -3 577.222 -3 624 c 0
 -3 659.376 29.6465 679 55 679 c 0
 82.5576 679 100.094 658.84 111.982 646.163 c 1
 110.061 657.386 109 665.258 109 676 c 0
 109 721.936 140.721 741 169 741 c 0
 211.026 741 228 706.36 228 675 c 0
 228 667.497 226.976 657.995 226.17 652.588 c 1
 241.154 663.984 259.096 676 282 676 c 0
 311.611 676 341 651.197 341 617 c 0
EndSplineSet
EndChar

StartChar: plus
Encoding: 43 43 12
Width: 701
GlyphClass: 2
Flags: HW
HStem: 231 57<53 322 380 648.954>
VStem: 322 58<-38 231 288 556.954>
LayerCount: 2
Fore
SplineSet
76 211 m 2
 67.1836 211 55.4638 211.569 45.3757 220.483 c 0
 35.4065 229.293 33 241.831 33 253 c 0
 33 266 l 0
 33 278.494 36.7394 290.818 46.1846 298.848 c 0
 57.8778 308.789 70.8514 308 77 308 c 0
 302 308 l 1
 302 537 l 0
 302 544.979 302.76 555.834 311.052 565.162 c 0
 319.581 574.758 331.602 577 342 577 c 0
 356 577 l 0
 368.909 577 381.28 573.102 389.541 563.932 c 0
 400.169 552.135 400 538.416 400 531 c 0
 400 308 l 1
 629 308 l 0
 637.184 308 648.175 307.195 657.534 298.745 c 0
 666.685 290.483 669 278.908 669 269 c 0
 669 255 l 0
 669 241.84 665.209 229.015 655.373 220.619 c 0
 643.019 210.074 629.127 211 622 211 c 0
 400 211 l 1
 400 -16 l 0
 400 -25.145 398.877 -36.7324 390.013 -46.2534 c 0
 380.999 -55.9344 368.7 -58 358 -58 c 0
 344 -58 l 0
 330.974 -58 317.966 -54.1284 309.914 -43.7152 c 0
 301.278 -32.5462 302 -20.8595 302 -15 c 0
 302 211 l 1
 76 211 l 2
EndSplineSet
EndChar

StartChar: comma
Encoding: 44 44 13
Width: 227
GlyphClass: 2
Flags: HW
HStem: -147 247<77 108>
VStem: 137 51<-86.0814 -11.7099>
LayerCount: 2
Fore
SplineSet
100 120 m 0
 162.437 120 208 55.7777 208 -15 c 0
 208 -115.982 120.511 -167 87 -167 c 0
 69.6595 -167 48 -154.658 48 -130 c 0
 48 -95.1887 84.5037 -88.1098 97.5146 -76.2303 c 0
 116.992 -58.447 117 -47.7387 117 -44 c 0
 117 -6.92618 74.7386 -57.7764 30.574 7.58709 c 1
 23.3729 17.6686 19 31.0907 19 45 c 0
 19 90.6671 60.4349 120 100 120 c 0
EndSplineSet
EndChar

StartChar: hyphen
Encoding: 45 45 14
Width: 227
GlyphClass: 2
Flags: HW
HStem: 154 181
VStem: 12 203
LayerCount: 2
Fore
SplineSet
199 355 m 0
 235.893 355 235 311.941 235 296 c 0
 235 272.968 219.055 260.031 209.494 252.383 c 0
 208.987 251.977 l 1
 208.454 251.605 l 0
 64.5199 151.049 58.6661 134 30 134 c 0
 -3.85997 134 -8 168.292 -8 180 c 0
 -8 194 l 0
 -8 201.408 -7.30628 210.37 -2.09249 218.77 c 0
 3.74528 228.176 11.2219 232.673 19.6142 238.443 c 1
 169.794 343.172 174.024 355 199 355 c 0
EndSplineSet
EndChar

StartChar: period
Encoding: 46 46 15
Width: 227
GlyphClass: 2
Flags: HW
HStem: -17 118<68.3914 158.932>
VStem: 54 119<-2.99638 86.7526>
LayerCount: 2
Fore
SplineSet
113 121 m 0
 155.562 121 193 86.691 193 42 c 0
 193 0.483201 159.6 -37 114 -37 c 0
 72.6432 -37 34 -3.77924 34 43 c 0
 34 89.9809 72.2755 121 113 121 c 0
EndSplineSet
EndChar

StartChar: slash
Encoding: 47 47 16
Width: 435
GlyphClass: 2
Flags: HW
LayerCount: 2
Fore
SplineSet
36 -207 m 0
 35.8713 -207 -14 -212.141 -14 -173 c 0
 -14 -152.259 -12.2547 -160.783 365.179 580.079 c 0
 365.494 580.696 l 1
 365.85 581.29 l 0
 369.802 587.876 380.825 600 398 600 c 0
 402.113 600 449 600.942 449 562 c 0
 449 541.551 444.617 544.524 275.776 224.831 c 1
 66.1907 -191.324 74.704 -185.58 63.1421 -197.142 c 0
 62.1371 -198.147 l 1
 61 -199 l 0
 53.2582 -204.806 43.7392 -207 36 -207 c 0
EndSplineSet
EndChar

StartChar: zero
Encoding: 48 48 17
Width: 475
GlyphClass: 2
Flags: HW
HStem: -18 60<162.468 311.127> 385 55<159.25 309.448>
VStem: 12 66<130.19 299.792> 394 62<126.916 295.427>
LayerCount: 2
Fore
SplineSet
235 460 m 0
 367.593 460 476 348.527 476 211 c 0
 476 74.448 367.601 -38 234 -38 c 0
 102.665 -38 -8 71.2416 -8 211 c 0
 -8 348.689 101.562 460 235 460 c 0
234 365 m 0
 160.598 365 98 298.433 98 215 c 0
 98 129.564 161.541 62 237 62 c 0
 305.785 62 374 119.716 374 211 c 0
 374 300.836 306.019 365 234 365 c 0
EndSplineSet
EndChar

StartChar: one
Encoding: 49 49 18
Width: 356
GlyphClass: 2
Flags: HW
HStem: -6 40<41.0061 134.862 211.525 317.949> 381 43<26.298 135 211 299.99>
VStem: 135 76<39.854 381.18>
LayerCount: 2
Fore
SplineSet
164 441 m 0
 236.822 441 271.987 444 286 444 c 0
 315.105 444 320 415.301 320 402 c 0
 320 358.883 276.301 364.052 231 361.336 c 1
 231 61 l 0
 231 60.6096 231.011 59.9008 231.011 59.9008 c 1
 292.24 54.9041 338 62.7749 338 12 c 0
 338 -7.618 323.268 -26 301 -26 c 0
 292.992 -26 242.878 -20 177 -20 c 0
 112.142 -20 63.0624 -26 55 -26 c 0
 45.9024 -26 35.5665 -22.4255 29.0937 -14.3432 c 0
 20.5901 -3.72519 21 7.38459 21 15 c 0
 21 41.9974 43.0218 52.5019 57.1508 53.9148 c 1
 87.4741 56.5139 106.821 57.3469 115 58.4547 c 1
 115 361.222 l 1
 102.315 361.807 96.6258 361.976 88.0917 362.226 c 0
 43.2491 363.538 6 363.668 6 408 c 0
 6 426.203 19.7992 444 41 444 c 0
 49.6743 444 64.7483 442.931 91.9227 442.074 c 0
 110.395 441.492 134.137 441 164 441 c 0
EndSplineSet
EndChar

StartChar: two
Encoding: 50 50 19
Width: 450
GlyphClass: 2
Flags: HW
HStem: -13 21G<65 80.5> 0 58<193.709 336.688> 362 62<84.85 216.758>
VStem: 25 36<265.197 333.097> 276 62<205.76 305.971> 389 30<119.161 154.717>
LayerCount: 2
Fore
SplineSet
76 -33 m 0
 44.7328 -33 29 -11.7016 29 6 c 0
 29 43.1587 63.3317 44.4219 115.734 84.7968 c 1
 139.173 103.141 161.754 123.012 182.797 144.062 c 0
 201.717 162.99 219.864 183.389 236.124 204.165 c 1
 244.926 215.902 256 231.885 256 250 c 0
 256 298.172 194.597 342 144 342 c 0
 102.195 342 82.6246 314.17 80.9992 290.369 c 1
 80.9607 282.873 80.9861 245 46 245 c 0
 45 245 l 0
 22.2074 245 5 266.923 5 301 c 0
 5 385.72 75.4072 444 163 444 c 0
 261.163 444 358 378.771 358 278 c 0
 358 196.899 296.684 146.798 237.761 88.8813 c 0
 234.683 85.8564 230.277 81.4867 228.02 79.2323 c 1
 243.778 80.0299 260.068 80.9494 272.49 81.9431 c 1
 311.178 84.7064 340.892 90.6746 370.633 152.941 c 1
 374.004 160.867 382.691 175 401 175 c 0
 401 175 439 177.771 439 143 c 0
 439 130.15 438.222 134.48 401.135 9.17933 c 1
 398.473 0.661788 394.034 -7.40809 386.147 -12.8364 c 0
 372.933 -21.9314 361.375 -19.4861 354.095 -19.9714 c 1
 260.236 -24.0083 87.1695 -33 76 -33 c 0
EndSplineSet
EndChar

StartChar: three
Encoding: 51 51 20
Width: 360
GlyphClass: 2
Flags: HW
HStem: -182 43<135.253 239.111> 370 73<64.1018 173.42>
VStem: 26 35<298.009 363.51> 205 9<180 273> 285 54<-79.2107 66.58>
LayerCount: 2
Fore
SplineSet
119 463 m 0
 161.253 463 292 430.259 292 326 c 0
 292 273.404 257.568 215.752 241.101 187.704 c 1
 254.865 183.899 271.501 178.525 292.112 166.256 c 1
 322.867 148.512 359 110.001 359 35 c 0
 359 2.04383 352.896 -76.7505 311.834 -129.219 c 1
 299.857 -144.96 284.678 -158.076 268.314 -168.292 c 0
 230.022 -192.196 183.93 -202 143 -202 c 0
 55.5221 -202 8 -147.496 8 -109 c 0
 8 -71.2804 41.7986 -49 72 -49 c 0
 148.697 -49 128.626 -119 194 -119 c 0
 209.582 -119 220.782 -114.798 229.922 -107.989 c 0
 252.957 -90.8293 265 -51.056 265 -10 c 0
 265 44.8851 249.851 84 163 84 c 0
 139.883 84 134.592 82 123 82 c 0
 101.191 82 86 97.904 86 115 c 0
 86 140.656 104.402 143.465 127.094 165.374 c 1
 144.357 182.114 160.525 201.083 171.195 221.273 c 0
 179.901 237.749 185 254.853 185 273 c 0
 185 303.585 171.226 350 113 350 c 0
 75.0535 350 81 342.004 81 332 c 0
 81 323.799 82 315.951 82 311 c 0
 82 279.434 48.2235 278 44 278 c 0
 14.149 278 6 308.115 6 339 c 0
 6 399.091 44.0212 463 119 463 c 0
EndSplineSet
EndChar

StartChar: four
Encoding: 52 52 21
Width: 447
GlyphClass: 2
Flags: HW
HStem: 0 74<330.031 406.859> 0 66<109.001 270> 409 20G<313.5 320>
VStem: 270 60<-186 -1.19998e-07 74.157 299.997>
LayerCount: 2
Fore
SplineSet
40 -20 m 2
 30.283 -20 3 -14.3713 3 14 c 0
 3 36.7487 18.8502 50.6618 23.5969 57.4429 c 1
 283.625 431.483 277.291 422.093 285.297 432.386 c 1
 291.044 439.571 301.431 449 317 449 c 0
 331.796 449 351 436.225 351 410.969 c 1
 350.028 94 l 1
 356 94 l 0
 385.523 94 385.781 96 398 96 c 0
 417.18 96 438 85.0582 438 63 c 0
 438 56.5131 436.198 8.48136 422.617 -8.4939 c 0
 421.925 -9.35882 l 1
 421.142 -10.1421 l 0
 414.011 -17.2732 403.114 -20 395 -20 c 0
 350 -20 l 1
 350 -174 l 0
 350 -184.237 341.985 -206 320 -206 c 0
 280 -206 l 0
 256.53 -206 250 -182.699 250 -174 c 0
 250 -20 l 1
 40 -20 l 2
250 246.956 m 1
 188.151 155.414 156.306 108.214 141.541 86 c 1
 250 86 l 1
 250 246.956 l 1
EndSplineSet
EndChar

StartChar: five
Encoding: 53 53 22
Width: 381
GlyphClass: 2
Flags: HW
HStem: 191 66<98.135 170.388> 299 88<215.446 309.304> 347 88<113.76 191.234>
VStem: 235 61<-40.5996 120.982>
LayerCount: 2
Fore
SplineSet
121.172 276.954 m 1
 222.221 274.548 316 191.57 316 61 c 0
 316 -2.98375 292.37 -59.5348 265.586 -99.1765 c 1
 226.504 -157.272 154.31 -214 114 -214 c 0
 105.224 -214 95.8311 -211.298 88.0599 -204.222 c 0
 81.6083 -198.348 77 -189.151 77 -179 c 0
 77 -133.588 141.391 -132.61 182.179 -70.1796 c 1
 199.553 -42.7476 215 -5.14246 215 38 c 0
 215 124.089 156.161 171 102 171 c 0
 76.5602 171 70.5929 161 51 161 c 0
 27.8279 161 18 181.983 18 196 c 0
 18 209.246 30.4345 246.624 44.6275 296.827 c 0
 49.0111 312.333 53.543 328.283 57.8705 343.478 c 0
 68.8192 381.923 78.705 416.432 81 424.648 c 1
 81 425.852 l 1
 82.4305 429.428 l 0
 85.4089 436.874 95.4234 455 118 455 c 0
 140.109 455 258.785 412.296 284.225 407.244 c 1
 285.589 408.19 287.001 409.432 288.898 411.489 c 0
 297.27 420.569 303.176 434.46 312.858 444.142 c 0
 313.863 445.147 l 1
 315 446 l 0
 322.988 451.991 332.278 453 335 453 c 0
 347.4 453 371 444.459 371 419 c 0
 371 404.753 368.849 406.879 323.674 302.792 c 1
 320.356 293.531 310.558 279 292 279 c 0
 270.952 279 169.94 314.197 134.254 324.845 c 1
 132.496 319.209 131.093 314.053 128.842 305.65 c 0
 126.93 298.512 123.556 285.782 121.172 276.954 c 1
EndSplineSet
EndChar

StartChar: six
Encoding: 54 54 23
Width: 483
GlyphClass: 2
Flags: HW
HStem: -28 40<187.686 316.189> 365 36<149.312 263.195>
VStem: 33 64<112.246 315.477> 368 77<76.1476 246.159>
LayerCount: 2
Fore
SplineSet
348 142 m 0
 348 226.822 296.404 345 200 345 c 0
 136.958 345 117 283.732 117 217 c 0
 117 104.745 184.077 32 253 32 c 0
 305.199 32 348 70.197 348 142 c 0
375.976 647.835 m 0
 383.292 649.628 388.977 650 391 650 c 0
 420.328 650 431 622.22 431 607 c 0
 431 581.9 408.481 573.018 402.878 570.617 c 0
 402.03 570.253 l 1
 401.151 569.969 l 0
 317.219 542.841 241.251 490.998 186.572 420.435 c 1
 193.481 420.856 197.707 421 204 421 c 0
 343.893 421 465 315.004 465 169 c 0
 465 53.4862 381.073 -48 255 -48 c 0
 134.517 -48 13 52.9051 13 227 c 0
 13 428.139 172.565 608.81 375.976 647.835 c 0
EndSplineSet
EndChar

StartChar: seven
Encoding: 55 55 24
Width: 450
GlyphClass: 2
Flags: HW
HStem: 330 82<91.4919 218.976> 337 75<112.548 348.999>
VStem: 35 33<217.026 286.324> 54 39<412 469.92>
LayerCount: 2
Fore
SplineSet
52 197 m 0
 43.1513 197 15 203.173 15 233 c 0
 15 248.463 32.0074 330.603 34 451.165 c 1
 34 466.692 44.5025 490 72 490 c 0
 107.686 490 107.929 451.901 111.793 432 c 1
 409 432 l 0
 423.527 432 451 424.199 451 394 c 0
 451 393 l 0
 451 377.266 448.955 378.62 391.978 208.687 c 1
 254.218 -209.386 277.477 -233.898 230.434 -237.866 c 1
 221.464 -239.186 215.029 -239 209 -239 c 0
 202 -239 l 0
 191.049 -239 154 -239.237 154 -205 c 0
 154 -188.752 154.776 -194.404 266.137 131.65 c 1
 305.361 239.519 326.588 296.507 329.851 308.853 c 1
 328.383 309.709 322.019 311.384 317.446 312.15 c 1
 284.586 315.119 254.041 317 221 317 c 0
 179.808 317 122.646 312.081 117.261 310.704 c 1
 116.696 310.55 l 1
 116.12 310.429 l 0
 115.014 310.196 113.926 309.921 113.652 309.846 c 1
 110.554 304.576 103.691 280.756 87.0598 225.934 c 1
 85.4083 220.979 77.9079 197 52 197 c 0
EndSplineSet
EndChar

StartChar: eight
Encoding: 56 56 25
Width: 447
GlyphClass: 2
Flags: HW
HStem: -22 47<146.258 291.197> 308 58<176.219 227.156> 621 47<141.339 256.162>
VStem: 16 74<81.6211 226.516> 33 69<439.759 579.141> 300 74<442.856 574.658> 342 83<85.8585 202.16>
LayerCount: 2
Fore
SplineSet
122 514 m 0
 122 433.767 202.334 390.037 224.821 386.146 c 1
 225.342 386.626 225.437 386.721 225.858 387.142 c 0
 226.184 387.469 l 1
 226.525 387.779 l 0
 257.055 415.616 280 457.755 280 503 c 0
 280 558.154 244.03 601 198 601 c 0
 197.129 601 l 1
 155.333 599.821 122 562.78 122 514 c 0
220 45 m 0
 276.081 45 322 85.0693 322 136 c 0
 322 189.76 267.552 244.864 189.056 284.111 c 0
 188.369 284.455 l 1
 187.71 284.85 l 0
 186.286 285.705 184.509 286.735 184.071 286.982 c 1
 162.535 273.157 110 216.108 110 151 c 0
 110 88.0984 160.655 45 220 45 c 0
209 -42 m 0
 91.2479 -42 -4 47.4815 -4 153 c 0
 -4 220.779 35.9378 263.363 72.6043 292.696 c 1
 92.8645 308.492 107.601 319.758 114.919 325.369 c 1
 58.4334 368.222 13 430.191 13 502 c 0
 13 591.987 92.5005 688 209 688 c 0
 301.272 688 394 635.433 394 526 c 0
 394 458.05 354.823 393.907 300.698 354.227 c 1
 384.447 309.658 445 240.461 445 161 c 0
 445 49.6625 330.433 -42 209 -42 c 0
EndSplineSet
EndChar

StartChar: nine
Encoding: 57 57 26
Width: 509
GlyphClass: 2
Flags: HW
HStem: -5 39<209.335 352.072> 383 45<154.45 294.59>
VStem: 32 73<148.813 316.685> 395 77<81.1 269.826>
LayerCount: 2
Fore
SplineSet
125 250 m 0
 125 159.455 182.303 54 284 54 c 0
 339.982 54 353.547 76.0061 364.921 111.003 c 1
 371.286 131.916 375 154.35 375 176 c 0
 375 282.339 297.149 363 221 363 c 0
 178.662 363 125 334.836 125 250 c 0
275 -25 m 0
 129.354 -25 12 92.2949 12 227 c 0
 12 353.767 116.781 448 238 448 c 0
 376.096 448 492 327.996 492 175 c 0
 492 13.4758 361.531 -160.739 160.548 -223.219 c 1
 144.811 -227.416 136.076 -231 124 -231 c 0
 89.0667 -231 85 -194.394 85 -187 c 0
 85 -163.602 105.458 -154.082 116.147 -150.875 c 1
 212.701 -120.741 279.399 -60.9406 313.994 -21.9799 c 1
 300.656 -23.942 289.279 -25 275 -25 c 0
EndSplineSet
EndChar

StartChar: colon
Encoding: 58 58 27
Width: 228
GlyphClass: 2
Flags: HW
HStem: -17 118<78.9846 169.66> 293 118<78.9846 169.66>
VStem: 65 119<-2.99638 86.7526 307.004 396.622>
LayerCount: 2
Fore
SplineSet
124 431 m 0
 166.562 431 204 396.691 204 352 c 0
 204 310.02 169.278 273 124 273 c 0
 82.3247 273 45 306.659 45 353 c 0
 45 398.922 82.9585 431 124 431 c 0
124 121 m 0
 166.562 121 204 86.691 204 42 c 0
 204 0.0195125 169.278 -37 124 -37 c 0
 82.3247 -37 45 -3.34125 45 43 c 0
 45 89.9809 83.2755 121 124 121 c 0
EndSplineSet
EndChar

StartChar: semicolon
Encoding: 59 59 28
Width: 227
GlyphClass: 2
Flags: HW
HStem: 293 118<78.9846 169.66>
VStem: 65 119<307.004 396.622> 161 51<-85.0525 -12.0097>
LayerCount: 2
Fore
SplineSet
124 120 m 0
 186.437 120 232 55.7777 232 -15 c 0
 232 -116.061 144.314 -167 110 -167 c 0
 92.8707 -167 72 -154.223 72 -130 c 0
 72 -95.243 108.656 -87.9712 121.351 -76.3798 c 1
 139.969 -58.608 141 -46.7707 141 -44 c 0
 141 -43.1124 l 1
 139.639 -9.2416 98.8867 -54.8556 55.0629 6.87902 c 1
 44.9804 19.4743 43 32.8405 43 45 c 0
 43 90.6671 84.4349 120 124 120 c 0
124 431 m 0
 166.562 431 204 396.691 204 352 c 0
 204 310.02 169.278 273 124 273 c 0
 82.3247 273 45 306.659 45 353 c 0
 45 398.922 82.9585 431 124 431 c 0
EndSplineSet
EndChar

StartChar: less
Encoding: 60 60 29
Width: 672
GlyphClass: 2
Flags: HW
LayerCount: 2
Fore
SplineSet
32 249 m 2
 32 275.531 56.9685 283.473 63.0624 285.758 c 1
 585.139 476.156 578.48 478 598 478 c 0
 625.949 478 641 451.099 641 420 c 0
 641 394.43 618.638 384.262 608.3 381.009 c 1
 219.508 239.069 l 1
 614.919 95.7654 l 1
 627.711 90.9686 641 78.5998 641 60 c 0
 641 48.7549 634.887 3 592 3 c 0
 572.883 3 580.638 4.03406 62.4089 193.115 c 1
 53.601 196.051 32 205.487 32 230 c 0
 32 249 l 2
EndSplineSet
EndChar

StartChar: equal
Encoding: 61 61 30
Width: 701
GlyphClass: 2
Flags: HW
HStem: 156 58<54 648.954> 305 58<53 647.872>
LayerCount: 2
Fore
SplineSet
76 285 m 2
 67.1837 285 55.4636 285.568 45.3757 294.483 c 0
 35.4065 303.293 33 315.831 33 327 c 0
 33 341 l 0
 33 354.026 36.8716 367.034 47.2848 375.086 c 0
 58.4538 383.722 70.1405 383 76 383 c 0
 628 383 l 0
 635.979 383 646.834 382.24 656.162 373.948 c 0
 665.758 365.419 668 353.398 668 343 c 0
 668 330 l 0
 668 316.509 664.047 303.74 654.52 295.271 c 0
 642.807 284.859 629.288 285 622 285 c 0
 76 285 l 2
76 136 m 2
 66.8549 136 55.2677 137.123 45.7466 145.987 c 0
 36.0655 155 34 167.3 34 178 c 0
 34 192 l 0
 34 205.026 37.8716 218.034 48.2848 226.086 c 0
 59.4538 234.722 71.1406 234 77 234 c 0
 629 234 l 0
 636.979 234 647.834 233.24 657.162 224.948 c 0
 666.758 216.419 669 204.398 669 194 c 0
 669 180 l 0
 669 166.559 665.027 153.613 655.055 145.281 c 0
 642.981 135.192 629.596 136 623 136 c 0
 76 136 l 2
EndSplineSet
EndChar

StartChar: greater
Encoding: 62 62 31
Width: 672
GlyphClass: 2
Flags: HW
LayerCount: 2
Fore
SplineSet
641 249 m 2
 641 230 l 0
 641 205.486 619.403 196.052 610.587 193.114 c 1
 94.163 4.95656 99.4689 3 81 3 c 0
 38.1757 3 32 48.8816 32 60 c 0
 32 78.5998 45.2889 90.9684 58.0815 95.7656 c 1
 453.492 239.069 l 1
 64.7002 381.009 l 1
 52.1514 384.958 32 395.298 32 420 c 0
 32 451.108 47.0245 478 75 478 c 0
 94.5178 478 87.8648 476.16 609.937 285.759 c 1
 616.032 283.473 641 275.531 641 249 c 2
EndSplineSet
EndChar

StartChar: question
Encoding: 63 63 32
Width: 380
GlyphClass: 2
Flags: HW
HStem: -17 118<113.391 204.66> 577 103<31.9434 95.0571> 651 38<120.281 214.194>
VStem: 99 120<-2.99638 86.7526> 119 52<192.704 327.862> 252 85<470.93 612.194>
LayerCount: 2
Fore
SplineSet
159 121 m 0
 201.562 121 239 86.691 239 42 c 0
 239 0.0195125 204.278 -37 159 -37 c 0
 117.643 -37 79 -3.77924 79 43 c 0
 79 90.4135 118.598 121 159 121 c 0
160 709 m 0
 299.047 709 357 611.326 357 542 c 0
 357 396.433 191 371.635 191 250 c 0
 191 242.62 192 237.118 192 228 c 0
 192 191.887 168.004 172 146 172 c 0
 119.792 172 99 196.482 99 247 c 0
 99 393.056 232 449.166 232 547 c 0
 232 596.218 199.834 631 165 631 c 0
 120.475 631 132.097 557 57 557 c 0
 20.9831 557 -5 587.137 -5 621 c 0
 -5 638.991 4.50879 684.574 74.6651 699.525 c 1
 101.931 705.817 131.625 709 160 709 c 0
EndSplineSet
EndChar

StartChar: at
Encoding: 64 64 33
Width: 1000
GlyphClass: 2
Flags: HW
HStem: -176 38<388.066 610.518> -14 66<382.487 465.106> -8 46<602.669 713.161> 363 33<534.747 597.381> 409 20G<644 651.5> 572 39<426.292 651.985>
VStem: 88 82<70.9096 316.808> 302 74<57.2769 161.388> 824 42<176.781 411.103>
LayerCount: 2
Fore
SplineSet
725 -51 m 0
 736.674 -51 757 -60.0391 757 -83 c 0
 757 -131.343 658.958 -163.678 623.064 -175.059 c 0
 576.871 -189.756 529.734 -196 482 -196 c 0
 480.955 -196 l 1
 254.704 -194.961 68 -53.6818 68 186 c 0
 68 187 l 0
 68 288.437 105.494 469.611 316.056 574.889 c 0
 371.936 602.828 450.839 631 542 631 c 0
 608.452 631 668.1 615.399 718.289 587.803 c 0
 823.635 529.88 886 419.87 886 296 c 0
 886 212.95 859.562 137.884 818.477 80.8917 c 0
 771.107 15.1804 703.135 -28 632 -28 c 0
 567.856 -28 537.72 3.64707 524.453 30.1401 c 1
 493.047 -2.09701 447.694 -34 395 -34 c 0
 333.088 -34 282 14.4305 282 83 c 0
 282 189.059 412.313 339.466 493.601 389.084 c 0
 518.383 404.169 546.946 416 579 416 c 0
 590.577 416 599.509 414.632 603.854 413.837 c 1
 607.692 420.796 608.197 430.082 619.984 440.185 c 0
 620.479 440.609 l 1
 621 441 l 0
 629.704 447.528 638.929 449 646 449 c 0
 660.935 449 689 440.522 689 412 c 0
 689 385.59 650.852 303.425 619.713 121.624 c 0
 532.849 -386.086 716.868 689.485 619.63 121.14 c 1
 619.524 120.661 l 0
 617.7 112.452 615 97.2807 615 86 c 0
 615 62.106 628.769 58 643 58 c 0
 675.884 58 728.391 83.7805 756.725 123.624 c 1
 786.228 164.752 804 233.152 804 300 c 0
 804 301 l 0
 804 416.474 747.351 491.453 665.422 527.605 c 0
 629.057 543.651 587.33 552 543 552 c 0
 358.977 552 190 413.246 190 198 c 0
 190 12.987 313.017 -118 500 -118 c 0
 592.58 -118 667.319 -85.5005 693.445 -64.4317 c 0
 694.523 -63.5625 l 1
 695.71 -62.8501 l 0
 697.457 -61.802 707.749 -51 725 -51 c 0
563.997 339.837 m 1
 525.459 324.203 448.726 257.011 408.529 154.469 c 1
 400.951 136.47 396 118.17 396 102 c 0
 396 73.5673 409.334 72 418 72 c 0
 429.96 72 474.883 87.7624 500.932 118.153 c 1
 519.296 138.812 516.159 131.774 518.447 143.213 c 1
 547.399 268.464 559.347 319.498 563.997 339.837 c 1
EndSplineSet
EndChar

StartChar: A
Encoding: 65 65 34
Width: 821
GlyphClass: 2
Flags: HW
HStem: -6 51<9.70312 96.8955 184.385 268.276 543.905 621.989> 300 52<298.001 517.997>
VStem: 622 195<9.5 73>
DStem2: 111 93 271 288 0.40364 0.914918<11.178 264.736 316.421 512.08> 485 668 430 565 0.391141 -0.920331<62.6289 296.73 353.02 608.612>
LayerCount: 2
Fore
SplineSet
137 -20 m 0
 78.1902 -20 36.5547 -26 29 -26 c 0
 -2.41037 -26 -11 2.33998 -11 15 c 0
 -11 26.6991 -8.7464 38.7812 -0.128573 48.1001 c 0
 14.9811 64.4391 34.7091 62.6049 51.4375 64.8353 c 1
 77.3437 68.0735 78.6725 69.2735 92.7267 101.13 c 1
 140.947 208.62 191.926 315.579 246.24 422.198 c 1
 395.813 706.388 387.645 697.905 406.196 713.364 c 0
 843.32 1077.54 406.769 713.841 406.769 713.841 c 1
 906.205 1070.69 407.375 714.275 407.375 714.275 c 0
 417.166 721.268 429.42 726 443 726 c 0
 485.013 726 500.217 683.752 503.463 675.694 c 1
 647.424 343.785 l 1
 756.486 78.6114 753.851 83.2796 756.605 79.1475 c 1
 766.943 63.8483 823.183 78.7283 834.403 33.8507 c 0
 835.989 27.5078 837 22.0486 837 16 c 0
 837 -4.85319 822.26 -26 797 -26 c 0
 788.654 -26 742.943 -20 682 -20 c 0
 610.513 -20 578.918 -26 563 -26 c 0
 552.014 -26 540.411 -22.8859 532.23 -13.9877 c 0
 525.399 -6.55771 523 2.86483 523 11 c 0
 523 22.6679 523.782 35.2017 532.891 45.8207 c 0
 548.94 64.5312 572.458 61.5117 598.897 64.7676 c 1
 600.151 64.9964 601.357 65.1982 601.845 65.2914 c 1
 598.694 87.8435 564.244 200.266 529.543 280 c 1
 294 280 l 0
 291.839 280 289.801 279.892 289.403 279.859 c 1
 288.763 278.827 288.88 279.014 288.583 278.47 c 1
 241.433 190.905 204.728 84.8417 203.997 71.8939 c 1
 204.057 68.2881 204.347 67.7045 204.53 67.1343 c 1
 206.803 65.6593 222.587 63.0475 249.286 59.869 c 1
 255.045 59.2292 266.802 57.8571 276.76 48.2208 c 0
 284.909 40.3358 289 28.6459 289 16 c 0
 289 4.8581 284.945 -6.0886 277.017 -14.0171 c 0
 269.089 -21.9456 258.142 -26 247 -26 c 0
 231.531 -26 202.633 -20 137 -20 c 0
492.683 372 m 1
 476.254 415.187 434.061 513.317 417.726 545.709 c 1
 417.23 544.841 418.11 546.454 417.639 545.572 c 0
 374.709 465.25 341.92 402.752 326.81 372 c 1
 492.683 372 l 1
EndSplineSet
EndChar

StartChar: B
Encoding: 66 66 35
Width: 564
GlyphClass: 2
Flags: HMW
HStem: -6 47<17.3125 93.935 182.305 356.782> 355 43<180 347.133> 651 44<182.763 340.509>
VStem: 94 86<46.989 355 398 639.812> 402 89<461.932 592.593> 447 89<121.063 282.491>
LayerCount: 2
Fore
SplineSet
90 706 m 0
 148.928 706 201.892 715 264 715 c 0
 306.032 715 382.876 711.949 441.559 671.323 c 1
 474.498 647.472 511 602.388 511 540 c 0
 511 479.871 477.18 425.455 434.746 389.55 c 1
 505.383 360.652 556 291.073 556 206 c 0
 556 99.883 481.337 27.0212 417.171 -1.25494 c 1
 405.798 -6.42452 364.095 -26 289 -26 c 0
 241.247 -26 196.247 -20 152 -20 c 0
 117.805 -20 83.6236 -22 38 -22 c 0
 36 -22 l 0
 31.5493 -22 22.9481 -22.5234 13.6466 -16.7081 c 0
 0.209852 -8.30744 -3 7.05677 -3 22 c 0
 -3 29.1405 -1.71858 37.9846 4.24468 45.6246 c 0
 19.4027 65.0446 43.448 61.7373 70.059 64.7925 c 1
 72.0676 65.1522 73.1378 65.3482 74 65.5138 c 1
 74 612 l 0
 74 616.759 73.1753 618.653 73.1132 618.784 c 1
 71.9949 619.567 59.9387 622.345 41.028 624.008 c 1
 20.4713 624.419 4 641.817 4 669 c 0
 4 679.564 7.7715 691.863 18.2838 699.69 c 0
 25.4082 704.995 33.9283 707 42 707 c 0
 47.7684 707 61.0983 706 90 706 c 0
382 519 m 0
 382 559.784 358.807 631 255 631 c 0
 240.496 631 211.263 628.403 200 625.077 c 1
 200 418 l 1
 248 418 l 0
 288.395 418 344.511 422.15 370.198 471.118 c 1
 377.817 486.356 382 502.477 382 519 c 0
257 61 m 0
 349.854 61 427 110.749 427 201 c 0
 427 253.472 400.777 312.854 324.695 329.469 c 1
 300.552 334.834 273.037 335 245 335 c 0
 200 335 l 1
 200 82 l 0
 200 66.7214 196.291 67.9343 212.977 64.78 c 1
 228.99 62.6518 242.549 61 257 61 c 0
EndSplineSet
EndChar

StartChar: C
Encoding: 67 67 36
Width: 700
GlyphClass: 2
Flags: HW
HStem: -24 51<296.333 499.546> 439 21G<629 650.5> 650 46<283.328 486.406>
VStem: 19 96<225.341 451.697> 613 49<439.285 545.701>
LayerCount: 2
Fore
SplineSet
683.165 60.2832 m 0
 673.943 31.4493 647.375 27 641 27 c 0
 612 27 l 0
 594.352 27 602.109 25.4496 575.271 8.83606 c 1
 507.35 -30.4312 439.198 -44 380 -44 c 0
 281.628 -44 183.857 -4.02518 113.07 64.6484 c 0
 41.0696 134.531 -1 234.489 -1 335 c 0
 -1 442.065 47.3674 541.762 116.133 608.412 c 1
 188.089 677.193 286.773 716 385 716 c 0
 386 716 l 0
 487.117 716 551.091 679.866 577.103 666.444 c 1
 579.768 674.464 585.278 692.912 605.91 698.341 c 0
 608.412 699 l 1
 610.921 699 l 1
 612.601 699.08 616.358 700 622 700 c 0
 644.818 700 653.343 679.593 654.728 671.288 c 0
 655 669.655 l 1
 655 651.354 682 471.151 682 456 c 0
 682 442.066 670.902 419 642 419 c 0
 631.955 419 620.031 419.063 609.614 428.213 c 0
 593.105 442.713 595.865 461.833 593.182 483.295 c 1
 589.358 509.112 586.928 519.642 571.271 539.646 c 1
 533.557 587.481 468.038 630 383 630 c 0
 257.24 630 135 528.654 135 354 c 0
 135 178.446 253.43 47 396 47 c 0
 502.139 47 603.41 118.062 637.955 230.111 c 1
 637.966 230.144 644.685 257 672 257 c 0
 680.213 257 708 253.325 708 226 c 0
 708 224.596 l 1
 707.804 223.206 l 0
 707.804 223.206 685.777 68.2846 683.165 60.2832 c 0
EndSplineSet
EndChar

StartChar: D
Encoding: 68 68 37
Width: 709
GlyphClass: 2
Flags: HW
HStem: 0 48<10.3898 109.178 205.353 418.413> 633 42<11.0095 108.044 200.812 393.155>
VStem: 111 89<58.0293 626.875> 595 100<233.039 436.012>
LayerCount: 2
Fore
SplineSet
300 68 m 0
 438.797 68 575 152.989 575 316 c 0
 575 406.646 535.874 500.573 463.135 554.899 c 1
 402.099 599.29 326.186 613 267 613 c 0
 238.371 613 223.688 610.36 220.516 608.9 c 1
 220.213 607.5 220 605.469 220 602 c 0
 220 93 l 0
 220 77.3094 218.889 77.6571 239.757 73.6439 c 1
 259.517 69.8802 279.223 68 300 68 c 0
-9 654 m 0
 -9 667.052 -4.1212 679.409 5.48314 686.803 c 0
 15.9618 694.87 26.9881 695 33 695 c 0
 215 695 l 0
 313.247 695 419.351 692.474 513.401 649.15 c 1
 617.809 600.635 715 494.356 715 343 c 0
 715 154.465 559.83 13.8235 408.488 -13.6937 c 1
 377.446 -19.0458 346.497 -20 316 -20 c 0
 33 -20 l 0
 27.6397 -20 17.4226 -19.7937 7.4376 -12.7314 c 0
 -4.534 -4.26399 -10 10.6923 -10 28 c 0
 -10 36.206 -8.38056 45.481 -2.31927 53.3675 c 0
 15.7827 76.9204 48.2621 70.0092 83.0009 71.9755 c 1
 87.0968 72.1535 88.7752 72.7835 89.3281 73.0117 c 1
 89.8936 74.2262 91 79.2587 91 88 c 0
 91 594 l 0
 91 613.07 95.0611 608.749 28.6609 611 c 1
 19.9998 611 9.11512 613.643 1.55823 621.406 c 0
 -8.86642 632.115 -9 645.06 -9 654 c 0
EndSplineSet
EndChar

StartChar: E
Encoding: 69 69 38
Width: 578
GlyphClass: 2
Flags: HW
HStem: -12 73<27.9152 103.47> 0 62<197.782 319.547> 0 55<229.453 464.01> 369 58<198.975 407.8> 638 53<15.3204 107 199.183 454.471>
VStem: 107 89<64.3716 365.73 427 636.673> 409 55<271.454 368.907 428.208 512.546>
LayerCount: 2
Fore
SplineSet
436 533 m 0
 450.021 533 462.637 528.762 471.285 520.047 c 0
 483.986 507.247 484 491.387 484 484 c 0
 484 300 l 0
 484 292.764 483.989 277.789 472.391 265.114 c 0
 463.785 255.708 450.679 251 436 251 c 0
 419.063 251 404.134 256.275 395.794 268.421 c 0
 389.179 278.056 389 287.774 389 293 c 0
 389 347 l 0
 389 347.65 388.953 348.59 388.945 348.749 c 1
 386.72 348.975 385.491 349 383 349 c 0
 245 349 l 0
 221.705 349 216 350.302 216 329 c 0
 216 100 l 0
 216 85.2304 213.392 84.2042 230.959 81.7812 c 1
 261.238 76.8975 290.711 75 321 75 c 0
 350.935 75 440.463 84.3466 452.847 91.9013 c 1
 465.05 103.557 495.19 182.329 523.4 199.96 c 0
 524.206 200.464 l 1
 525.056 200.889 l 0
 530.057 203.389 536.311 206 544 206 c 0
 561.929 206 582 190.321 582 163 c 0
 582 162 l 0
 582 149.793 580.515 149.639 550.567 15.8551 c 1
 549.091 8.47378 546.226 -1.10319 538.445 -8.55047 c 0
 527.674 -18.8595 514.037 -20 501 -20 c 0
 157 -20 l 0
 83.1825 -20 58.3841 -32 33 -32 c 0
 -6.78277 -32 -11 11.7736 -11 18 c 0
 -11 54.2745 19.9863 57.7604 78.0007 79.7355 c 1
 88.1405 83.4712 87 80.0255 87 100 c 0
 87 619.282 l 1
 84.4237 619.854 80.5177 620.578 76.6919 621.274 c 1
 54.0898 624.75 23.0342 618.092 3.68665 640.166 c 0
 -3.48436 648.347 -6 658.916 -6 669 c 0
 -6 683.224 -1.57231 697.268 10.2643 705.043 c 0
 19.1946 710.909 27.9195 711 33 711 c 0
 493 711 l 0
 502.396 711 512.112 708.953 520.046 702.82 c 0
 528.45 696.324 532.106 687.583 534.157 680.747 c 0
 534.427 679.845 l 1
 534.612 678.922 l 0
 543.841 632.772 564 556.025 564 542 c 0
 564 525.307 549.102 507 523 507 c 0
 495.212 507 482.348 528.303 478.725 533.375 c 0
 478.095 534.258 l 1
 477.563 535.204 l 0
 424.606 629.464 436.176 618 417 618 c 0
 229 618 l 0
 216.209 618 218 618.841 218 600 c 0
 218 449 l 0
 218 448.274 218.018 447.199 218.023 447 c 1
 371 447 l 0
 388.065 447 389 444.746 389 460 c 0
 389 491 l 0
 389 496.89 389.513 506.117 395.609 515.225 c 0
 403.986 527.742 419.137 533 436 533 c 0
EndSplineSet
EndChar

StartChar: F
Encoding: 70 70 39
Width: 541
GlyphClass: 2
Flags: HW
HStem: -6 53<11.5821 97.6384 193.251 320.983> 360 58<194.165 395.801> 636 51<10.3223 97.588 194.854 441.997>
VStem: 98 94<49.7348 360 418 634.561> 395 55<270.499 360> 403 47<418.264 503.907>
LayerCount: 2
Fore
SplineSet
470 483 m 0
 470 469.514 466 445.654 466 390 c 0
 466 333.271 470 308.537 470 296 c 0
 470 260.122 438.782 250 423 250 c 0
 415.149 250 406.041 251.378 398.082 257.259 c 0
 375.493 273.952 379.755 303.863 375.573 340 c 1
 214 340 l 0
 213.385 340 212.436 339.95 212.35 339.946 c 1
 212.106 338.181 212 335.396 212 332 c 0
 212 84 l 0
 212 70.175 205.415 68.3693 233.795 66.985 c 1
 277.895 65.6281 311.798 74.7355 332.109 51.1379 c 0
 339.222 42.874 341 32.7318 341 24 c 0
 341 15 l 0
 341 0.4519 332.561 -26 304 -26 c 0
 295.363 -26 240.848 -20 169 -20 c 0
 96.078 -20 41.7422 -26 34 -26 c 0
 22.8328 -26 11.4282 -22.4977 3.08509 -14.2468 c 0
 -5.64326 -5.61492 -9 6.05796 -9 17 c 0
 -9 27.8806 -7.71244 39.9976 1.40091 49.6994 c 0
 18.6249 68.0356 41.8781 62.6565 65.9273 64.8935 c 1
 73.468 65.7636 76.9262 67.6626 77.1749 67.8333 c 1
 77.4257 68.4794 78 71.1056 78 76 c 0
 78 606 l 0
 78 610.018 77.6111 612.833 77.3679 613.966 c 1
 72.5428 615.444 56.312 616.083 32.5778 617 c 1
 28.8583 617.008 16.317 616.389 4.45329 625.688 c 0
 -4.51515 632.717 -10 644.674 -10 658 c 0
 -10 684.19 2.1643 708 28 708 c 0
 40.82 708 62.3972 704 112 704 c 0
 149.175 704 219.397 707 274 707 c 0
 469 707 l 0
 482.88 707 512.456 702.637 521.467 666.595 c 1
 527.873 637.767 545 569.169 545 555 c 0
 545 532.05 528.346 512 505 512 c 0
 467.84 512 457.89 545.661 424.791 604.798 c 1
 416.337 618.326 421.115 616 407 616 c 0
 223 616 l 0
 218.067 616 215.966 615.124 215.597 614.953 c 1
 215.124 614.046 214 608.689 214 600 c 0
 214 438 l 1
 375.898 438 l 1
 377.739 445.56 379.525 459.481 383.271 480.293 c 1
 384.75 489.905 387.999 506.697 403.343 517.091 c 0
 410.086 521.659 418.462 524 427 524 c 0
 440.113 524 453.696 518.813 462.242 507.234 c 0
 467.321 500.352 470 491.757 470 483 c 0
EndSplineSet
EndChar

StartChar: G
Encoding: 71 71 40
Width: 691
GlyphClass: 2
Flags: HW
HStem: -24 53<280.988 476.936> 260 46<423.046 542.581> 441 21G<595 622> 658 48<250.345 437.146>
VStem: 16 100<226.103 480.292> 545 84<76.6719 251.789>
LayerCount: 2
Fore
SplineSet
366 -44 m 0
 166.757 -44 -4 133.952 -4 354 c 0
 -4 567.423 156.622 726 352 726 c 0
 463.975 726 538.231 673.327 558.929 661.262 c 1
 565.824 665.496 573.585 685.356 593.089 697.405 c 1
 601.369 702.198 607.746 703 615 703 c 0
 628.26 703 649 692.802 649 669 c 0
 649 642 l 0
 649 539.995 660 466.162 660 457 c 0
 660 430.8 634.717 421 611 421 c 0
 602.568 421 592.634 422.668 584.739 429.806 c 0
 557.174 454.726 578.228 478.622 540.832 530.227 c 1
 495.118 592.734 419.431 638 340 638 c 0
 250.183 638 136 574.79 136 367 c 0
 136 113.204 283.154 49 377 49 c 0
 453.005 49 516.287 92.5899 524.297 103.359 c 1
 524.756 104.536 525 106.52 525 111 c 0
 525 224 l 0
 525 228.004 524.5 230.202 524.294 230.85 c 1
 520.305 233.202 495.679 235.624 449.215 240.079 c 1
 440.039 240.844 422.144 242.7 410.572 258.565 c 0
 405.607 265.372 403 274.073 403 283 c 0
 403 294.34 406.841 307.087 417.294 316.15 c 0
 424.714 322.583 434.673 326 445 326 c 0
 459.151 326 486.309 322 548 322 c 0
 550 322 l 0
 613.73 322 643.954 326 657 326 c 0
 686.223 326 703 304.687 703 285 c 0
 703 240.032 649.383 234.065 649.383 234.065 c 1
 598.042 19.9873 649.246 233.494 649.246 233.494 c 1
 649.077 232.986 l 1
 649.013 232.157 649 231.079 649 229 c 0
 649 60 l 0
 649 47.819 643.271 20 615 20 c 0
 596.401 20 586.463 34.4665 583.655 37.5 c 1
 517.02 -20.1337 437.294 -44 366 -44 c 0
EndSplineSet
EndChar

StartChar: H
Encoding: 72 72 41
Width: 762
GlyphClass: 2
Flags: HW
HStem: -6 50<15.2519 108.504 199.068 294.781 466.413 565.843 655.964 744.797> 365 62<198 565.916> 636 51<14.6575 108.262 198.337 296.024 474.512 564.115 655.349 749.377>
VStem: 109 89<48.884 365 427 634.922> 567 88<45.9662 365 427 634.938>
LayerCount: 2
Fore
SplineSet
158 -20 m 0
 91.084 -20 43.1225 -26 35 -26 c 0
 2.62147 -26 -5 4.22142 -5 21 c 0
 -5 28.3922 -4.09069 37.7304 2.44791 46.0448 c 0
 19.1628 67.2993 45.9023 61.3548 81.444 63.9397 c 1
 85.3428 64.2645 87.8596 65.1704 88.1425 65.2959 c 1
 88.628 66.97 89 70.4432 89 76 c 0
 89 605 l 0
 89 612.258 87.719 613.614 87.719 613.614 c 1
 87.0869 614.177 77.3724 616.241 55.0336 619.219 c 1
 50.5235 619.97 -6 614.473 -6 660 c 0
 -6 668.841 -0.80322 707 37 707 c 0
 50.4115 707 84.1 705 154 705 c 0
 157 705 l 0
 228.823 705 263.716 707 277 707 c 0
 306.376 707 313.845 680.585 315.728 669.288 c 0
 316 667.655 l 1
 316 666.223 l 1
 316.245 664.573 317 662.097 317 657 c 0
 317 650.473 315.964 642.052 310.278 634.53 c 0
 293.346 612.132 263.667 618.755 222.155 616.033 c 1
 220.268 615.938 218.762 615.669 218.658 615.648 c 1
 218.292 613.914 218 610.575 218 606 c 0
 218 447 l 1
 546 447 l 1
 546 593 l 0
 546 611.419 544.307 615.053 538.393 617.123 c 0
 537.793 617.333 l 1
 537.207 617.581 l 0
 530.82 620.283 483.292 611.835 462.461 637.357 c 0
 456.528 644.627 454 653.957 454 663 c 0
 454 673.649 456.855 685.106 465.087 693.963 c 0
 473.784 703.321 486.117 707 498 707 c 0
 509.603 707 539.131 705 601 705 c 0
 671.951 705 725.419 709 732 709 c 0
 755.321 709 771 689.947 771 669 c 0
 771 658.923 768.932 648.394 762.167 639.716 c 0
 744.45 616.988 714.871 620.676 684.665 616.176 c 1
 678.107 615.389 676.092 614.128 675.579 613.808 c 1
 675.346 613.078 675 610.789 675 607 c 0
 675 77 l 0
 675 66.8889 673.197 65.8132 684.556 64.9394 c 1
 708.197 63.0729 737.051 69.0305 755.635 47.7077 c 0
 762.562 39.7603 765 29.5485 765 20 c 0
 765 6.21888 758.383 -26 725 -26 c 0
 716.94 -26 667.857 -20 603 -20 c 0
 538.125 -20 490.119 -26 482 -26 c 0
 452.769 -26 446 1.66552 446 14 c 0
 446 24.6315 446.228 37.0443 455.656 47.7168 c 0
 473.263 67.6465 499.042 61.9556 535.366 64.9332 c 0
 535.826 64.9708 l 1
 536.286 64.9873 l 0
 542.528 65.2102 545.161 66.433 545.445 66.5859 c 1
 545.919 67.5709 547 73.2302 547 83 c 0
 547 345 l 1
 218 345 l 1
 218 77 l 0
 218 73.7686 218.16 71.6024 218.228 71.2114 c 1
 220.161 69.7654 227.908 65.9929 248.358 63.8626 c 1
 249.896 63.6576 315 70.2546 315 22 c 0
 315 6.61551 311.036 -26 279 -26 c 0
 271.797 -26 222.945 -20 158 -20 c 0
EndSplineSet
EndChar

StartChar: I
Encoding: 73 73 42
Width: 323
GlyphClass: 2
Flags: HW
HStem: -6 52<14.1856 117.673 209.024 305.574> 631 49<30.4961 118.99 209 287.661>
VStem: 118 91<48.0003 628.443>
LayerCount: 2
Fore
SplineSet
52 700 m 0
 59.6809 700 105.017 695 167 695 c 0
 229.746 695 257.815 699 271 699 c 0
 285.568 699 308 687.794 308 660 c 0
 308 648.825 307.039 636.329 297.776 626 c 0
 281.162 607.476 257.23 610.974 229 608.294 c 1
 229 71 l 0
 229 68.8975 229.051 66.8378 229.111 65.8999 c 1
 267.973 63.2129 300.262 70.3932 318.434 47.1976 c 0
 324.303 39.7054 326 30.7656 326 23 c 0
 326 11.9812 322.705 -26 286 -26 c 0
 278.067 -26 226.891 -20 159 -20 c 0
 91.1284 -20 38.8668 -26 31 -26 c 0
 -0.273703 -26 -4.93006 4.98588 -5.71149 12.947 c 1
 -7.61417 22.3827 -7 22.5483 -7 26 c 0
 -7 32.6569 -6.11935 41.6947 0.311698 49.6787 c 0
 18.2148 71.9049 46.848 64.4689 95.7328 67.9604 c 1
 96.7357 68.0162 97.0941 68.0634 97.561 68.112 c 1
 97.8793 70.285 98 72.5039 98 76 c 0
 98 596 l 0
 98 601.247 98.5463 605.642 98.819 608.164 c 1
 90.9946 609.378 75.595 609.663 51.5935 611.048 c 1
 43.3144 611.738 30.7033 612.681 20.258 623.652 c 0
 13.019 631.256 10 641.713 10 652 c 0
 10 666.422 17.444 700 52 700 c 0
EndSplineSet
EndChar

StartChar: J
Encoding: 74 74 43
Width: 316
GlyphClass: 2
Flags: HW
HStem: -212 60<-26 61.3199> 632 48<15.3288 115.409 210.754 298.798>
VStem: 118 91<-47.6 625.019>
LayerCount: 2
Fore
SplineSet
165 695 m 2
 234.649 695 267.35 699 282 699 c 0
 311.37 699 319 672.012 319 659 c 0
 319 647.174 317.291 634.731 308.301 624.817 c 0
 290.27 604.933 264.938 610.072 236.924 607.092 c 1
 232.407 606.699 230.804 605.936 230.306 605.692 c 1
 229.921 604.829 229 600.458 229 593 c 0
 229 56 l 0
 229 -31.2582 188.189 -109.222 134.998 -160.286 c 1
 132.858 -162.426 128.67 -166.287 123.318 -170.846 c 0
 100.3 -190.458 48.3021 -232 -2 -232 c 0
 -62.2051 -232 -102 -180.5 -102 -135 c 0
 -102 -100.347 -77.0197 -66 -37 -66 c 0
 32.4889 -66 39.2128 -132 59 -132 c 0
 64.6918 -132 68.1937 -130.187 72.3849 -125.674 c 0
 80.5996 -116.828 86.3605 -98.4427 89.6984 -85.7587 c 1
 96.5588 -61.257 98 -51.1257 98 -26 c 0
 98 595 l 0
 98 609.488 101.913 605.057 34.8517 612.116 c 1
 28.343 612.839 15.5699 614.157 5.19275 625.256 c 0
 -1.46737 632.379 -5 642.484 -5 653 c 0
 -5 664.213 -2.45582 681.47 12.9135 692.558 c 0
 19.6464 697.416 28.2066 700 37 700 c 0
 44.344 700 95.1001 695 161 695 c 0
 165 695 l 2
EndSplineSet
EndChar

StartChar: K
Encoding: 75 75 44
Width: 654
GlyphClass: 2
Flags: HW
HStem: -6 50<14.4806 107.22 200.15 299.736> -5 38<587.122 647.484> 315 55<199.002 237.997> 630 57<502.154 616.167> 640 48<12.1716 106.871 200.3 290.377>
VStem: 111 88<49.4271 312.167 370.007 633.513>
LayerCount: 2
Back
SplineSet
280 -6 m 0
 276 -6 222 0 155 0 c 0
 89 0 35 -6 31 -6 c 0
 17 -6 14 6 14 17 c 0
 14 52.2722 59.9646 40.0457 85 47 c 0
 105 53 111 62 111 93 c 2
 111 590 l 2
 111 638 93 635 40 640 c 0
 27 641 12 646 12 664 c 0
 12 673 19 688 41 688 c 0
 52 688 85 684 151 684 c 2
 152 684 l 2
 218 684 251 688 262 688 c 0
 285 688 291 670 291 662 c 0
 291 632 236 647 214 637 c 0
 200 630 199 614 199 604 c 2
 199 387 l 2
 199 380 201 370 212 370 c 0
 222 370 229 381 238 391 c 0
 299 459 415 588 420 596 c 0
 424 601 428 609 428 617 c 0
 428 660 362 630 362 666 c 0
 362 679 371 687 385 687 c 0
 396 687 427 685 490 685 c 2
 496 685 l 2
 556 685 586 687 596 687 c 0
 618 687 624 675 624 666 c 0
 624 638 571 645 535 630 c 0
 504 617 485 590 463 567 c 0
 284 374 284 377 284 368 c 0
 284 362 287 358 292 353 c 0
 571 59 559 69 574 59 c 0
 607 38 626 49 642 33 c 0
 645 29 648 23 648 18 c 0
 648 9 640 -5 619 -5 c 0
 605 -5 600 -1 572 -1 c 0
 498 0 499 -5 474 24 c 0
 224 311 225 315 213 315 c 2
 212 315 l 2
 199 315 198 303 198 295 c 2
 198 84 l 2
 198 45 213 49 278 44 c 0
 285 43 300 41 300 22 c 0
 300 7 296 -6 280 -6 c 0
EndSplineSet
Fore
SplineSet
305.59 367.734 m 1
 585.803 72.4519 574.882 82.4494 584.917 75.7588 c 1
 609.022 60.42 629.489 73.7955 656.142 47.1421 c 0
 657.147 46.1371 l 1
 658 45 l 0
 662.598 38.8685 668 30.3579 668 18 c 0
 668 -2.06252 650.429 -25 619 -25 c 0
 599.405 -25 597.937 -21 571.865 -21 c 1
 501.653 -20.0513 487.886 -22.7374 458.885 10.9029 c 1
 297.282 196.423 239.848 264.373 218 287.416 c 1
 218 84 l 0
 218 75.5188 219.155 71.2233 219.453 70.5222 c 1
 222.263 68.906 241.622 66.8574 279.534 63.9411 c 0
 280.183 63.8911 l 1
 280.828 63.799 l 0
 284.796 63.2321 298.469 62.3973 309.435 50.7683 c 0
 316.25 43.5415 320 33.1329 320 22 c 0
 320 5.86441 313.255 -26 280 -26 c 0
 271.999 -26 221.892 -20 155 -20 c 0
 89.135 -20 38.9913 -26 31 -26 c 0
 -0.735231 -26 -6 5.1488 -6 17 c 0
 -6 27.2807 -3.27423 37.4947 3.16778 45.4631 c 0
 21.0857 67.6267 50.4384 62.819 64.5585 63.9486 c 1
 89.8496 65.5802 91 63.0846 91 93 c 0
 91 590 l 0
 91 623.476 94.9309 614.728 38.2961 620.072 c 1
 27.9169 620.871 10.6513 623.63 -0.374972 639.001 c 0
 -5.40244 646.009 -8 654.876 -8 664 c 0
 -8 682.493 7.45636 708 41 708 c 0
 54.9878 708 85.2429 704 151 704 c 0
 152 704 l 0
 217.695 704 248.083 708 262 708 c 0
 298.919 708 311 677.139 311 662 c 0
 311 607.984 222.617 618.937 222.617 618.937 c 1
 221.057 617.978 219 613.741 219 604 c 0
 219 399.627 l 1
 220.283 401.137 221.647 402.727 223.127 404.372 c 1
 281.87 469.856 394.165 595.138 403.31 607.032 c 1
 403.84 607.88 403.126 606.738 403.656 607.586 c 1
 404.383 608.494 l 0
 406.243 610.82 408 615.485 408 617 c 0
 408 619.335 407.635 620.277 407.571 620.453 c 1
 407.571 620.453 342 616.482 342 666 c 0
 342 690.757 362.433 707 385 707 c 0
 397.549 707 427.147 705 490 705 c 0
 496 705 l 0
 555.843 705 584.379 707 596 707 c 0
 627.339 707 644 685.583 644 666 c 0
 644 613.706 559.166 618.403 542.719 611.55 c 1
 518.275 601.299 501.087 577.884 477.558 553.286 c 1
 343.8 409.065 311.162 375.726 305.59 367.734 c 1
EndSplineSet
EndChar

StartChar: L
Encoding: 76 76 45
Width: 563
GlyphClass: 2
Flags: HW
HStem: 0 60<185.415 455.946> 0 45<14.7662 91.4135> 629 49<11.0815 91.9614 185.402 288.929>
VStem: 92 93<60.5237 626.364> 502 45<127.281 178.977>
LayerCount: 2
Fore
SplineSet
151 695 m 2
 222.814 695 257.986 698 272 698 c 0
 306.105 698 309 664.469 309 651 c 0
 309 637.594 304.887 624.472 294.502 616.29 c 0
 284.693 608.562 273.596 608 267.293 608 c 1
 233.797 607.014 211.434 607.341 205.377 606.095 c 1
 205.123 604.203 205 602.166 205 599 c 0
 205 92 l 0
 205 86.1542 205.606 81.6611 205.948 80.4982 c 1
 207.169 80.1978 208.466 80 211 80 c 0
 405 80 l 0
 420.929 80 431.344 79.7195 443.309 98.0196 c 1
 451.382 110.128 474.782 170.977 486.594 184.758 c 1
 492.786 192.498 503.81 200 517 200 c 0
 522.094 200 567 198.045 567 157 c 0
 567 146.008 554.049 61.8414 546.735 12.738 c 1
 545.696 7.02679 544.828 -2.735 536.398 -12.3273 c 0
 527.611 -22.3265 514.32 -26 500 -26 c 0
 484.802 -26 306.964 -20 83 -20 c 0
 30 -20 l 0
 4.09456 -20 -6 2.31939 -6 16 c 0
 -6 54.32 30.7938 57.4849 64.2767 64.4445 c 1
 74.6218 67.5123 72 65.6984 72 77 c 0
 72 605 l 0
 72 606.275 71.9114 608.19 71.9027 608.328 c 1
 64.6428 609.038 53.015 608.599 35.535 609.005 c 0
 34.9991 609.018 l 1
 34.4661 609.059 l 0
 25.6324 609.739 12.1869 611.395 1.70968 622.68 c 0
 -5.77293 630.74 -9 641.755 -9 653 c 0
 -9 667.145 -5.82846 682.608 7.54844 691.693 c 0
 15.0483 696.786 23.2075 698 30 698 c 0
 42.4554 698 75.4494 695.994 144.147 695 c 1
 151 695 l 2
EndSplineSet
EndChar

StartChar: M
Encoding: 77 77 46
Width: 998
GlyphClass: 2
Flags: HW
HStem: -15 21G<492.5 504> -6 59<198.424 290.543> -6 55<19.7654 120.397 703.77 805.323 899.654 995.52> 635 40<22.071 98.7458>
VStem: 124 70<53.3311 334.948> 149 51<334.948 477.998> 809 89<51.3681 476.999>
DStem2: 209 662 138 574 0.520486 -0.85387<-27.1884 64.7399 409.819 606.783>
LayerCount: 2
Back
SplineSet
721 -6 m 4xd8
 706 -6 702 9 702 18 c 4
 702 63 797 20 808 79 c 4
 809 85 809 92 809 98 c 6
 809 311 l 6
 809 380 807 468 806 471 c 4
 805 476 802 477 799 477 c 4
 792 477 788 470 785 465 c 4
 696 323 542 19 524 -3 c 4
 515 -14 506 -15 502 -15 c 4
 483 -15 474 7 467 21 c 4
 359 243 215 472 207 477 c 4
 206 478 205 478 204 478 c 4
 201 478 200 475 200 473 c 4
 196 403 194 335 194 265 c 4
 194 223 197 72 200 62 c 4
 210 29 294 65 294 17 c 4
 294 8 290 -6 276 -6 c 4
 272 -6 220 0 156 0 c 4
 92 0 40 -6 36 -6 c 4
 29 -6 18 -2 18 16 c 4
 18 46 42 43 92 49 c 4
 125 53 121 74 124 102 c 4
 139 280 149 504 149 549 c 4
 149 562 143 568 138 574 c 4
 123 590 100 634 42 635 c 4
 35 636 22 636 22 653 c 4
 22 674 33 675 40 675 c 6
 184 675 l 6
 198 675 203 672 209 662 c 6
 398 346 l 5
 515 160 l 6
 517 156 523 148 532 148 c 4
 539 148 543 152 546 159 c 4
 817 666 816 666 817 666 c 4
 821 673 826 675 835 675 c 6
 980 675 l 6xb8
 987 675 995 674 995 653 c 4
 995 626 971 633 917 616 c 4
 901 612 893 605 893 587 c 4
 897 199 898 150 898 101 c 6
 898 94 l 6
 898 69 899 49 933 45 c 4
 977 41 997 45 997 16 c 4
 997 3 989 -6 977 -6 c 4
 972 -6 917 0 848 0 c 4
 780 0 725 -6 721 -6 c 4xd8
EndSplineSet
Fore
SplineSet
530.918 173.21 m 1
 780.926 640.968 794.414 669.974 801.006 678.193 c 1
 810.361 691.91 823.951 695 835 695 c 0
 980 695 l 0
 994.485 695 1015 682.48 1015 653 c 0
 1015 644.846 1013.39 635.998 1008.07 628.361 c 0
 990.364 602.921 959.475 608.404 923.006 596.923 c 0
 922.433 596.743 l 1
 921.851 596.597 l 0
 911.062 593.9 913 595.805 913 587.106 c 1
 917 199.332 918 150.272 918 101 c 0
 918 94 l 0
 918 68.7545 915.741 67.1684 935.074 64.8939 c 1
 961.484 62.493 988.863 67.5729 1006.97 47.009 c 0
 1014.89 38.0033 1017 26.6528 1017 16 c 0
 1017 -5.7501 1001.1 -26 977 -26 c 0
 968.198 -26 916.834 -20 848 -20 c 0
 780.114 -20 728.926 -26 721 -26 c 0
 687.745 -26 682 7.05385 682 18 c 0
 682 25.7892 683.919 33.7513 688.24 40.4449 c 0
 702.593 62.6752 729.36 61.5993 745.315 62.9289 c 1
 781.142 65.9997 789 65.5951 789 94 c 0
 789 311 l 0
 789 351.205 788.261 400.412 787.538 430.928 c 1
 696.181 279.481 561.752 11.557 539.479 -15.6648 c 0
 526.287 -31.7881 509.98 -35 502 -35 c 0
 466.11 -35 453.951 2.37638 449.063 12.1532 c 1
 367.708 179.381 264.748 352.31 217.631 426.175 c 1
 215.19 371.865 214 319.398 214 265 c 0
 214 232.734 216.019 132.988 217.972 87.0905 c 1
 218.575 78.0391 218.626 70.3537 218.921 68.5191 c 1
 226.561 65.0229 280.364 76.9296 304.856 45.8157 c 0
 311.205 37.75 314 27.4671 314 17 c 0
 314 5.92798 308.173 -26 276 -26 c 0
 267.74 -26 220.058 -20 156 -20 c 0
 92.5277 -20 43.5675 -26 36 -26 c 0
 20.7408 -26 -2 -13.4658 -2 16 c 0
 -2 26.2786 0.20295 36.9689 7.09567 45.7018 c 0
 25.5067 69.0282 57.7837 65.0374 89.5934 68.8547 c 0
 106.171 70.8641 100.403 69.5007 104.09 103.905 c 1
 118.974 280.538 129 505.641 129 549 c 0
 129 554.663 128.168 554.625 122.992 560.77 c 1
 103.85 581.574 88.272 614.201 41.6552 615.003 c 0
 40.4069 615.025 l 1
 39.1716 615.201 l 0
 36.6056 615.568 2 618.712 2 653 c 0
 2 686.167 28.3628 695 40 695 c 0
 184 695 l 0
 192.649 695 201.746 694.204 210.413 689.051 c 0
 218.042 684.515 222.673 678.085 226.164 672.266 c 0
 415.048 356.46 l 1
 532.451 169.82 l 1
 532.889 168.944 l 0
 533.505 167.711 530.918 173.21 530.918 173.21 c 1
EndSplineSet
EndChar

StartChar: N
Encoding: 78 78 47
Width: 799
GlyphClass: 2
Flags: HW
HStem: -23 21G<675 690> -6 52<188.519 290.647> -6 46<21.4455 113.656 230.63 303.774> 633 48<9.16241 90.8418 551.132 633.188 706.744 790.857>
VStem: 638 62<360.111 627.882> 647 49<172.004 504.224>
DStem2: 194 662 116 590 0.657753 -0.753234<-42.918 76.0834 189.311 648.432>
LayerCount: 2
Back
SplineSet
9 655 m 4xe0
 9 676 18 681 31 681 c 6
 154 681 l 6
 175 681 183 675 194 662 c 6
 351 480 l 5
 442 378 l 5
 623 182 631 172 638 172 c 4xe0
 644 172 645 177 645 182 c 4
 646 218 647 253 647 289 c 4xd0
 647 391 644 489 638 587 c 4
 636 630 617 631 573 636 c 4
 566 637 551 640 551 657 c 4
 551 667 558 681 580 681 c 4
 589 681 618 678 676 678 c 4
 733 678 761 681 770 681 c 4
 781 681 791 675 791 658 c 4
 791 606 700 673 700 576 c 5xe0
 698 486 696 395 696 305 c 4xd0
 696 136 700 52 700 24 c 4
 700 10 700 -23 680 -23 c 4
 670 -23 659 -13 631 19 c 6
 424 255 l 5
 222 480 206 499 202 499 c 4
 200 499 199 496 198 495 c 4
 190 378 185 262 185 140 c 6
 185 111 l 6
 185 59 188 49 230 46 c 4
 243 46 284 41 291 39 c 4
 295 37 304 34 304 13 c 4
 304 2 298 -6 287 -6 c 4
 283 -6 230 0 165 0 c 4
 99 0 47 -6 42 -6 c 4
 30 -6 21 2 21 14 c 4
 21 17 23 36 36 40 c 4
 58 47 105 39 121 72 c 4
 126 84 125 81 149 542 c 5
 149 545 l 5
 149 546 l 6
 149 555 148 561 116 590 c 4
 109 597 82 629 27 633 c 4
 17 633 9 636 9 655 c 4xe0
EndSplineSet
Fore
SplineSet
129 542.52 m 1
 129 546 l 0
 129 546.89 128.974 547.465 128.968 547.572 c 1
 128.225 549.104 122.054 557.523 102.57 575.18 c 0
 102.206 575.51 l 1
 101.858 575.858 l 0
 94.1181 583.597 72.5556 609.15 26.2243 613.004 c 1
 7.64344 613.309 -11 627.864 -11 655 c 0
 -11 669.207 -7.59599 683.533 4.0107 692.712 c 0
 13.0454 699.857 23.2163 701 31 701 c 0
 154 701 l 0
 180.096 701 196.684 689.79 209.206 674.992 c 1
 366.035 493.19 l 1
 456.809 391.444 l 1
 554.865 285.263 602.818 232.984 625.731 208.974 c 1
 626.471 237.178 627 261.728 627 289 c 0
 627 390.701 624.023 487.996 618.029 585.922 c 1
 616.645 615.671 616.96 610.875 570.456 616.16 c 1
 564.707 616.982 550.996 618.342 540.166 630.965 c 0
 534.405 637.68 531 647.057 531 657 c 0
 531 676.602 547.054 701 580 701 c 0
 591.6 701 618.193 698 676 698 c 0
 732.798 698 758.344 701 770 701 c 0
 778.325 701 788.073 698.917 796.388 692.14 c 0
 806.309 684.054 811 671.287 811 658 c 0
 811 647.166 808.241 636.025 800.342 627.758 c 0
 782.731 609.325 758.209 615.032 746.762 614.078 c 1
 725.403 612.075 720.936 616.124 719.996 563.592 c 1
 717.995 478.459 716 390.734 716 305 c 0
 716 136.101 720 53.1691 720 24 c 0
 720 19.5287 726.613 -43 680 -43 c 0
 656.101 -43 642.33 -24.32 615.964 5.81188 c 0
 409.041 241.725 l 1
 297.832 365.593 242.728 427.316 215.558 457.171 c 1
 208.887 350.873 205 249.104 205 140 c 0
 205 111 l 0
 205 60.1903 200.837 68.2586 230.778 65.996 c 1
 248.086 65.7946 284.674 61.6078 296.494 58.2305 c 0
 298.282 57.7198 l 1
 299.944 56.8885 l 0
 305.196 54.2627 324 41.861 324 13 c 0
 324 -5.59054 310.724 -26 287 -26 c 0
 278.94 -26 229.857 -20 165 -20 c 0
 99.1781 -20 50.9891 -26 42 -26 c 0
 20.5623 -26 1 -9.68734 1 14 c 0
 1 17.4973 0.4798 49.996 30.0269 59.0875 c 1
 65.3344 70.3217 93.5977 62.4768 102.785 80.2849 c 1
 103.615 82.2988 105.541 91.877 129 542.52 c 1
EndSplineSet
EndChar

StartChar: O
Encoding: 79 79 48
Width: 778
GlyphClass: 2
Flags: HW
HStem: -24 58<292.823 500.654> 667 53<268.469 476.398>
VStem: 18 95<247.435 473.525> 661 99<215.912 458.255>
LayerCount: 2
Fore
SplineSet
780 337 m 0
 780 115.786 606.575 -44 401 -44 c 0
 297.629 -44 194.914 -2.03288 120.162 69.5602 c 0
 44.1713 142.385 -0.943893 246.235 -2 352.901 c 1
 -2 567.355 175.092 740 387 740 c 0
 613.922 740 780 551.087 780 337 c 0
133 384 m 0
 133 216.235 223.817 54 397 54 c 0
 502.721 54 641 121.453 641 319 c 0
 641 411.603 612.533 519.467 537.808 584.967 c 0
 492.604 624.637 432.203 647 371 647 c 0
 256.508 647 133 570.719 133 384 c 0
EndSplineSet
EndChar

StartChar: P
Encoding: 80 80 49
Width: 572
GlyphClass: 2
Flags: HW
HStem: -6 53<14.3235 103.74 191.169 329.729> 301 35<192.058 346.108> 635 48<22.1854 103.916> 648 45<192.498 376.489>
VStem: 104 88<48.1758 301 336.165 634.629> 476 84<428.095 566.357>
LayerCount: 2
Fore
SplineSet
456 498 m 0
 456 565.048 390.18 628 253 628 c 0
 232.608 628 219.194 627.429 212 626.574 c 1
 212 356.208 l 1
 216.349 356.046 221.854 356 229 356 c 0
 372.534 356 456 418.22 456 498 c 0
69 703 m 2
 162.538 703 233.044 713 307 713 c 0
 392.518 713 462.275 695.439 515.429 647.822 c 1
 555.643 610.961 580 557.968 580 503 c 0
 580 501.866 l 1
 578.884 417.98 527.227 355.891 467.502 324.4 c 1
 426.083 301.512 358.911 281 233 281 c 0
 210 281 l 1
 210 82 l 0
 210 66.1272 207.376 68.184 223.188 66.9677 c 1
 287.162 64.274 321.055 72.842 341.136 49.17 c 0
 349.585 39.2102 350 27.8605 350 19 c 0
 350 18 l 0
 350 4.38274 343.441 -26 311 -26 c 0
 302.459 -26 245.847 -20 173 -20 c 0
 98.1533 -20 42.535 -26 34 -26 c 0
 1.73178 -26 -6 4.04531 -6 18 c 0
 -6 27.9747 -5.56011 39.8534 3.45236 50.0078 c 0
 20.1723 68.8463 43.6056 63.9774 73.7488 66.8758 c 1
 78.7825 67.5324 82.9178 68.8872 83.678 69.2277 c 1
 83.8487 70.1531 84 71.6981 84 74 c 0
 84 609 l 0
 84 611.47 83.8994 613.626 83.7652 614.938 c 1
 82.4214 615.017 82.7651 615 82 615 c 0
 46 615 l 0
 40.6612 615 29.0985 614.529 18.004 622.803 c 0
 6.7044 631.23 2 645.424 2 661 c 0
 2 671.07 4.28406 682.391 12.647 691.167 c 0
 21.4769 700.433 33.4726 703 44 703 c 0
 69 703 l 2
EndSplineSet
EndChar

StartChar: Q
Encoding: 81 81 50
Width: 752
GlyphClass: 2
Flags: HW
HStem: -203 49<721.771 814.451> -16 48<309.028 497.125> 675 49<275.167 480.352>
VStem: 20 97<261.525 474.605> 655 89<231.95 470.122>
LayerCount: 2
Fore
SplineSet
407 52 m 0
 529.142 52 635 154.402 635 329 c 0
 635 418.889 608.212 532.627 530.016 599.788 c 1
 487.957 635.445 432.44 655 376 655 c 0
 258.292 655 137 568.043 137 392 c 0
 137 223.965 245.026 52 407 52 c 0
454.849 -31.0677 m 1
 446.554 -31.7661 422.682 -36 389 -36 c 0
 280.295 -36 180.374 10.287 111.755 79.9615 c 0
 39.947 152.826 0 252.782 0 354 c 0
 0 457.445 43.0735 561.464 118.015 634.297 c 1
 188.799 704.027 287.767 744 388 744 c 0
 475.782 744 573.832 711.396 648.042 638.242 c 0
 723.13 564.209 764 460.147 764 356 c 0
 764 217.791 691.822 87.7574 589.884 10.3978 c 1
 655.821 -40.1929 680.205 -82.7117 722.133 -110.384 c 1
 744.281 -125.445 770.38 -134 796 -134 c 0
 808.25 -134 809.43 -133 817 -133 c 0
 831.273 -133 849 -143.34 849 -163 c 0
 849 -204.195 780.867 -223 740 -223 c 0
 649.126 -223 593.033 -154.318 550.858 -112.142 c 0
 550.445 -111.729 474.109 -39.1437 454.849 -31.0677 c 1
EndSplineSet
EndChar

StartChar: R
Encoding: 82 82 51
Width: 696
GlyphClass: 2
Flags: HW
HStem: -13 62<594.041 660.287> -6 55<24.5925 112.643 202.643 317.523> 330 36<202.309 305.766> 640 35<14.0265 102.122> 648 39<200.592 346.517>
VStem: 113 89<49.7219 330 366.549 627.863> 438 78<431.776 566.374>
DStem2: 399 338 398 202 0.585268 -0.81084<-4.33804 371.1>
LayerCount: 2
Fore
SplineSet
418 496 m 0
 418 563.092 354.824 628 263 628 c 0
 254.989 628 227.94 625.494 218 622.799 c 1
 218 386.97 l 1
 226.798 386.045 241.003 386 264 386 c 0
 298.952 386 324.024 388.926 348.591 398.577 c 1
 385.139 413.37 418 446.055 418 496 c 0
283 707 m 0
 472.558 707 536 593.922 536 513 c 0
 536 416.054 464.176 357.806 426.424 336.553 c 1
 540.311 200.6 566.175 133.106 599.167 94.0377 c 1
 612.072 79.2901 627.263 69 638 69 c 0
 651.976 69 643.02 91 681 91 c 0
 699.925 91 711 74.5452 711 60 c 0
 711 33.8226 675.609 -33 604 -33 c 0
 537.346 -33 493.121 33.1722 481.82 48.2395 c 1
 381.7 190.411 l 1
 314.462 284.09 298.547 305.726 295.625 308.884 c 1
 295.372 309.051 295.204 309.161 294.906 309.359 c 0
 294.184 309.841 l 1
 293.859 310.1 291.53 310 289 310 c 0
 222 310 l 1
 222 81 l 0
 222 69.8984 220.058 70.0966 230.084 68.8934 c 1
 275.136 64.8589 309.601 70.5321 329.584 46.1755 c 0
 336.973 37.1691 339 26.1683 339 16 c 0
 339 -4.85319 324.26 -26 299 -26 c 0
 291.129 -26 238.892 -20 170 -20 c 0
 101.101 -20 49.9198 -26 42 -26 c 0
 7.34633 -26 4 9.986 4 21 c 0
 4 28.6074 5.32663 37.4198 11.0005 45.1739 c 0
 27.1086 67.188 54.6774 62.3517 83.8926 64.8922 c 1
 88.7839 65.5036 91.6196 66.9387 91.694 66.9861 c 1
 92.028 67.7056 93 71.9709 93 80 c 0
 93 597 l 0
 93 603.333 92.0516 605.881 92.0065 605.976 c 1
 90.0501 607.691 71.598 612.292 25.3236 620.339 c 1
 10.2506 623.354 -6 635.479 -6 656 c 0
 -6 675.058 5.44877 695 27 695 c 0
 62 695 l 0
 149.133 695 214.453 707 283 707 c 0
EndSplineSet
EndChar

StartChar: S
Encoding: 83 83 52
Width: 492
GlyphClass: 2
Flags: HW
HStem: -17 56<173.564 329.398> 635 50<138.512 269.954>
VStem: 32 72<479.18 595.956> 48 50<112.089 247.636> 398 73<105.026 250.11>
LayerCount: 2
Fore
SplineSet
12 516 m 0
 12 616.313 95.3619 705 211 705 c 0
 277.841 705 318.951 678.415 336.5 668.131 c 1
 341.702 677.481 352.169 705 382 705 c 0
 404.48 705 418 685.058 418 666 c 0
 418 654.019 414 632.683 414 583 c 0
 414 534.338 418 514.071 418 502 c 0
 418 492.219 413.995 482.004 406.054 475.386 c 0
 398.347 468.963 389.166 467 381 467 c 0
 379.688 467 l 1
 328.053 468.614 332.657 523.768 296.031 565.735 c 1
 271.45 593.047 236.873 615 201 615 c 0
 155.585 615 124 581.871 124 541 c 0
 124 511.633 139.565 485.478 166.643 466.262 c 1
 214.068 432.011 282.996 432.865 352.844 403.398 c 1
 430.978 369.758 491 297.792 491 198 c 0
 491 67.8058 385.741 -37 252 -37 c 0
 188.993 -37 128.899 -13.5852 86.7524 23.0156 c 1
 77.0591 31.7395 77.0715 32 69 32 c 0
 63.4319 32 56.9543 29 43 29 c 0
 17.604 29 5 49.014 5 64 c 0
 5 85.1024 19.0116 113.935 28.0714 228.692 c 1
 28.7612 236.281 30.3924 246.661 38.8178 255.774 c 0
 46.6824 264.279 58.2831 268 70 268 c 0
 77.5426 268 86.9623 267.34 95.7427 261.049 c 0
 115.583 246.834 114.008 223.822 117.879 192.211 c 1
 125.577 115.231 108.354 159.194 140.057 116.924 c 1
 162.154 86.8716 201.585 59 253 59 c 0
 321.865 59 378 111.926 378 178 c 0
 378 215.155 359.564 249.2 328.27 271.801 c 0
 276.566 309.243 215.929 306.272 143.627 335.408 c 1
 54.5774 370.161 12 443.005 12 516 c 0
EndSplineSet
EndChar

StartChar: T
Encoding: 84 84 53
Width: 692
GlyphClass: 2
Flags: HW
HStem: -6 53<202.22 307.561 402.04 510.545> 622 66<95.0021 308.605 402.112 608.482>
VStem: 309 93<49.375 621.698>
LayerCount: 2
Fore
SplineSet
494 -26 m 0
 485.366 -26 430.863 -20 358 -20 c 0
 286.12 -20 229.636 -26 222 -26 c 0
 189.878 -26 182 3.78315 182 20 c 0
 182 28.2325 182.544 38.7584 190.29 48.0731 c 0
 207.394 68.6414 233.735 63.1002 273.041 66.9039 c 1
 292.488 68.8486 289 68.7749 289 84 c 0
 289 591 l 0
 289 596.216 288.492 600.143 288.14 601.26 c 1
 287.028 601.627 285.372 602 282 602 c 0
 133 602 l 0
 120.482 602 117.032 600.248 117.032 600.248 c 1
 116.962 600.181 115.567 598.413 112.866 593.011 c 1
 75.5509 519.291 71.0045 489 34 489 c 0
 7.83527 489 -8 511.776 -8 534 c 0
 -8 535 l 0
 -8 546.939 -6.59355 548.019 21.4502 677.219 c 1
 27.2724 704.39 52.7538 708 62 708 c 0
 645 708 l 0
 653.986 708 663.581 705.676 670.98 699.221 c 0
 682.893 688.828 683.706 674.941 684.705 668.446 c 1
 704.674 566.617 709 548.802 709 537 c 0
 709 516.954 694.72 495 670 495 c 0
 642.828 495 632.184 519.618 629.648 524.054 c 0
 579.687 611.227 590.022 602 571 602 c 0
 424 602 l 0
 423.354 602 422.443 601.951 422.29 601.942 c 1
 422.013 599.441 422 597.938 422 595 c 0
 422 71 l 0
 422 70.2688 422.028 69.3273 422.039 69.046 c 1
 430.665 66.75 453.741 65.6037 495.135 61.8888 c 1
 503.835 60.8012 513.335 58.8443 521.191 50.3477 c 0
 532.082 38.5694 531 25.08 531 14 c 0
 531 -0.165899 522.223 -26 494 -26 c 0
EndSplineSet
EndChar

StartChar: U
Encoding: 85 85 54
Width: 756
GlyphClass: 2
Flags: HW
HStem: -15 57<289.866 527.494> 641 48<17.1222 85.4336 179.027 269.862>
VStem: 86 90<149.926 634.586> 618 56<128.982 634.348>
LayerCount: 2
Fore
SplineSet
762 663 m 0
 762 580.479 695 664.01 695 572 c 0
 695 565.774 694.017 562.04 694 561.864 c 1
 694 335 l 0
 694 319.856 695 304.856 695 288 c 0
 695 256 l 0
 695 186.76 689.572 81.9756 597.432 17.5895 c 1
 543.824 -19.6079 475.495 -35 397 -35 c 0
 148.131 -35 92.3251 106.436 78.825 150.311 c 1
 65.8491 195.727 65 236.729 65 284 c 0
 65 309.526 66 335.522 66 360 c 0
 66 612 l 0
 66 614.954 65.6724 616.901 65.4887 617.728 c 1
 62.1111 618.902 53.9857 619.715 41.6094 621.143 c 1
 35.1652 621.949 -3 626.907 -3 665 c 0
 -3 676.534 3.48489 709 37 709 c 0
 48.5792 709 77.5905 706.995 138.164 706 c 1
 144 706 l 0
 207.769 706 237.743 709 251 709 c 0
 282.147 709 290 679.908 290 663 c 0
 290 653.524 288.049 643.092 280.75 634.77 c 0
 262.265 613.693 235.314 620.784 210.815 617.199 c 1
 193.313 614.784 196 611.943 196 602 c 0
 196 289 l 0
 196 217.818 200.506 156.489 250.44 111.812 c 1
 294.298 71.4627 363.473 62 417 62 c 0
 455.38 62 546.969 67.3818 581.96 141.635 c 1
 597.52 173.623 599 215.347 599 244 c 0
 599 258 l 0
 599 278.352 598 298.352 598 320 c 0
 598 592 l 0
 598 626.891 597.426 619.837 549.014 625.098 c 1
 542.409 625.698 530.412 626.87 520.482 636.532 c 0
 512.428 644.369 509 655.627 509 667 c 0
 509 681.674 514.623 695.981 526.987 703.483 c 0
 534.188 707.851 541.685 709 548 709 c 0
 559.789 709 583.251 706 636 706 c 0
 688.746 706 712.214 709 724 709 c 0
 761.02 709 762 671.645 762 663 c 0
EndSplineSet
EndChar

StartChar: V
Encoding: 86 86 55
Width: 830
GlyphClass: 2
Flags: HW
HStem: -20 21G<418 433.5> 632 57<22.8225 78.1183> 639 50<198.317 280.264 575.138 660.312>
VStem: 16 182<609 673> 662 161<603 670.5>
LayerCount: 2
Fore
SplineSet
45 709 m 0
 58.2083 709 90.1674 706 157 706 c 0
 220.809 706 250.665 709 263 709 c 0
 291.025 709 301 684.462 301 670 c 0
 301 660.669 300.015 650.013 292.692 640.642 c 0
 277.695 621.45 255.795 623.549 227.642 619.171 c 1
 218.572 618.163 218 617.522 218 613 c 0
 218 611.09 219.732 606.257 222.077 601.567 c 1
 311.914 401.156 414.433 218.863 444.284 169.231 c 1
 517.886 304.112 582.166 444.258 637.082 591.508 c 1
 640.477 601.196 642 604.868 642 607 c 0
 642 613.646 638.074 616.56 633.451 618.101 c 1
 626.603 620.567 587.537 610.935 565.504 634.478 c 0
 558.025 642.469 555 653.301 555 664 c 0
 555 674.205 557.205 688.257 568.83 698.801 c 0
 576.237 705.519 586.445 709 597 709 c 0
 609.405 709 638.211 706 699 706 c 0
 760.808 706 788.555 709 801 709 c 0
 810.738 709 821.055 706.333 829.032 699.263 c 0
 840.8 688.831 843 674.265 843 662 c 0
 843 653.224 840.867 644.092 835.21 636.711 c 0
 810.574 604.565 779.555 622.409 761.682 603.418 c 1
 740.521 580.141 682.575 384.45 468.37 -9.92281 c 1
 467.01 -12.1894 455.651 -40 426 -40 c 0
 395.935 -40 384.084 -12.3465 382.744 -10.1124 c 1
 61.2066 551.821 66.865 604.181 50.2623 615.803 c 1
 50.2623 615.803 -4 628.112 -4 669 c 0
 -4 688.688 13.5673 709 45 709 c 0
EndSplineSet
EndChar

StartChar: W
Encoding: 87 87 56
Width: 1002
GlyphClass: 2
Flags: HW
HStem: -22 21G<314 326.5 636 654.5> 644 45<302.026 383.24 474.172 547.97 764.009 849.396>
VStem: 850 150<605 675>
LayerCount: 2
Fore
SplineSet
481.244 285.45 m 1
 365.089 -15.8529 371.693 -23.7144 343.581 -36.6075 c 1
 337.625 -40.1369 331.872 -42 325 -42 c 0
 282.537 -42 273.233 13.2045 267.57 26.2304 c 1
 132.136 357.851 65.2264 592.264 57.4087 613.616 c 1
 49.2236 631.58 38.5006 594.53 4.60883 631.961 c 1
 -2.554 639.961 -7 646.289 -7 661 c 0
 -7 675.694 1.78076 709 38 709 c 0
 49.6004 709 76.1935 706 134 706 c 0
 189.775 706 216.392 709 228 709 c 0
 265.87 709 266 669.553 266 664 c 0
 266 653.732 263.04 643.1 255.529 635.358 c 0
 227.939 606.921 194.806 622.557 192.547 620.411 c 1
 192.318 620.037 192.128 619.532 192.02 619.19 c 1
 192.132 617.48 192.193 617.336 192.889 615.944 c 0
 193.585 614.552 l 1
 194.057 613.068 l 0
 250.011 437.347 267.816 390.75 346.185 180.524 c 1
 358.118 208.716 383.033 273.606 433.918 402.133 c 1
 434.949 406.376 435 407.106 435 408 c 0
 435 409 l 0
 434.997 409.466 l 1
 434.443 412.799 425.195 440.097 370.085 599.501 c 1
 365.563 612.719 362.566 619.526 361.934 620.417 c 1
 360.346 621.092 345.669 622.641 318.571 623.996 c 1
 297.253 624.467 282 641.435 282 666 c 0
 282 677.167 285.502 688.572 293.753 696.915 c 0
 302.385 705.643 314.058 709 325 709 c 0
 337.402 709 366.197 706 428 706 c 0
 429 706 l 0
 489.788 706 518.596 709 531 709 c 0
 560.207 709 568 682.183 568 667 c 0
 568 659.198 567.054 649.844 560.596 641.502 c 0
 546.701 623.555 526.517 626.462 507.45 624.151 c 1
 499.928 623.211 494.818 621.368 494.165 620.956 c 1
 494.08 620.549 494 620 494 619 c 0
 494 618.445 494.361 615.992 495.364 611.147 c 1
 558.351 421.493 644.04 211.594 667.974 162.78 c 1
 763.727 365.66 828.298 595.15 830 616.206 c 1
 829.983 617.031 829.943 617.401 829.938 617.451 c 1
 824.766 619.638 807.165 621.172 781.742 624.128 c 1
 770.864 625.336 759.764 629.146 752.347 638.306 c 0
 743.933 648.698 744 660.019 744 667 c 0
 744 681.528 751.801 709 782 709 c 0
 794.45 709 822.205 706 883 706 c 0
 884 706 l 0
 942.755 706 970.56 709 983 709 c 0
 1004.31 709 1020 690.749 1020 666 c 0
 1020 655.945 1017.38 645.692 1010.56 637.852 c 0
 979.387 602.003 955.808 629.575 944.752 610.764 c 1
 935.931 589.826 863.847 356.39 705.182 17.6662 c 1
 693.575 -8.22613 679.814 -42 646 -42 c 0
 607.266 -42 592.666 3.43852 585.287 23.9337 c 1
 498.514 243.408 474.815 305.371 468.134 319.172 c 0
 481.244 285.45 l 1
EndSplineSet
EndChar

StartChar: X
Encoding: 88 88 57
Width: 665
GlyphClass: 2
Flags: HW
HStem: -6 48<5.24261 91.0269 167.505 255.734 365.283 446.731 562.391 657.668> 641 48<18.2314 104.749 392.766 472.357>
VStem: 5 162<8.5 74> 285 89<326.776 370.875> 473 185<597 676.5>
LayerCount: 2
Fore
SplineSet
342.049 440.385 m 1
 443.555 583.045 453 595.825 453 611 c 0
 453 622.914 453.796 620.569 416.716 623.041 c 1
 407.148 623.639 395.282 625.719 385.6 634.769 c 0
 375.319 644.379 372 658.074 372 672 c 0
 372 684.615 380.714 709 408 709 c 0
 421.177 709 454.136 706 523 706 c 0
 592.737 706 626.01 709 640 709 c 0
 648.072 709 656.592 706.995 663.716 701.69 c 0
 674.229 693.863 678 681.564 678 671 c 0
 678 656.739 674.977 643.215 665.167 633.443 c 0
 635.138 603.534 600.905 626.045 577.825 608.87 c 1
 565.601 600.041 526.474 549.063 520.873 540.263 c 0
 494.577 498.925 605.755 673.696 520.619 539.863 c 1
 494.849 503.313 610.207 666.923 520.347 539.477 c 0
 433.75 416.636 404.271 375.777 395.701 362.681 c 1
 405.994 344.928 442.1 288.839 562.89 97.7108 c 0
 586.755 60.0761 575.415 69.0667 634.094 62.8901 c 0
 634.569 62.8401 l 1
 635.041 62.7674 l 0
 651.107 60.2957 678 48.79 678 15 c 0
 678 -16.2356 653.031 -26 641 -26 c 0
 633.076 -26 581.92 -20 512 -20 c 0
 444.128 -20 391.867 -26 384 -26 c 0
 358.2 -26 345 -4.04901 345 15 c 0
 345 24.5315 346.493 34.9385 353.331 43.8753 c 0
 369.115 64.5025 394.373 62.0934 422.119 65.7928 c 1
 424.322 66.1408 426.736 66.9724 426.975 67.0722 c 1
 426.994 67.4062 427 67.6355 427 68 c 0
 427 70 l 0
 426.996 70.5206 l 1
 425.463 75.1273 404.605 109.335 313.328 254.806 c 1
 299.447 235.215 264.605 184.669 194.352 83.484 c 1
 189.251 76.3416 187 71.0837 187 69 c 0
 187 68.6889 187.006 68.5319 187.006 68.5319 c 1
 192.813 66.3076 208.013 64.5752 231.31 61.8661 c 0
 231.801 61.8091 l 1
 232.288 61.7279 l 0
 239.499 60.5261 254.684 58.9832 266.034 45.6799 c 0
 272.753 37.8053 276 27.1919 276 16 c 0
 276 5.23922 270.348 -26 238 -26 c 0
 230.381 -26 186.932 -20 129 -20 c 0
 70.2958 -20 28.3683 -26 20 -26 c 0
 -8.82313 -26 -15 1.77471 -15 13 c 0
 -15 24.374 -14.6609 36.6087 -5.75105 47.3638 c 0
 8.56387 64.6434 28.2273 62.8892 50.505 66.6927 c 1
 80.3852 72.1969 79.9569 77.1487 121.72 135.617 c 0
 220.368 273.859 253.23 319.09 263.126 333.778 c 1
 253.267 351.024 219.164 404.626 109.071 580.35 c 1
 80.3493 625.75 83.4789 617.055 41.2206 621.079 c 1
 33.3915 621.732 20.447 623.458 10.0622 633.973 c 0
 1.79623 642.343 -2 654.279 -2 667 c 0
 -2 675.602 -0.600985 687.917 9.23235 697.911 c 0
 16.6609 705.461 27.3126 709 38 709 c 0
 51.1768 709 84.1362 706 153 706 c 0
 156 706 l 2
 223.783 706 254.833 709 268 709 c 0
 291.181 709 307 689.919 307 660 c 0
 307 611.439 237.159 619.052 237.159 619.052 c 1
 237.046 618.399 237 617.97 237 617 c 0
 237 613.772 241.663 606.395 246.519 596.684 c 0
 307.766 495.94 333.422 453.322 346.075 433.343 c 1
 347.834 430.587 347.393 431.278 348.181 430.061 c 0
 342.049 440.385 l 1
EndSplineSet
EndChar

StartChar: Y
Encoding: 89 89 58
Width: 667
GlyphClass: 2
Flags: HW
HStem: -6 51<166.486 272.828 358.093 489.951> 642 47<182.316 272.83 429.389 520.835>
VStem: 273 85<49.9095 315.178> 521 138<610 673>
DStem2: 346 353 462 427 0.61277 0.790262<-9.49858 313.684>
LayerCount: 2
Back
SplineSet
490 21 m 6
 490 13 l 6
 490 4 487 -6 474 -6 c 4
 469 -6 408 0 333 0 c 4
 256 0 195 -6 191 -6 c 4
 179 -6 166 0 166 22 c 4
 166 49 178 44 244 48 c 4
 258 49 273 48 273 70 c 6
 273 277 l 6
 273 301 267 307 252 332 c 4
 68 627 73 620 68 627 c 4
 49 651 26 632 15 653 c 4
 13 656 11 661 11 667 c 4
 11 676 16 689 36 689 c 4
 47 689 80 686 146 686 c 4
 212 686 244 689 255 689 c 4
 270 689 273 679 273 669 c 4
 273 639 259 643 208 639 c 4
 200 638 182 636 182 616 c 6
 182 614 l 6
 182 604 186 600 324 361 c 4
 330 351 332 347 338 347 c 4
 343 347 345 352 346 353 c 4
 495 558 521 589 521 617 c 4
 521 666 429 618 429 669 c 4
 429 677 434 689 450 689 c 4
 459 689 486 686 539 686 c 6
 542 686 l 5
 596 687 622 689 631 689 c 4
 652 689 659 677 659 669 c 4
 659 648 631 645 607 614 c 6
 462 427 l 5
 359 287 358 296 358 265 c 6
 358 70 l 6
 358 46 371 50 468 45 c 4
 486 44 490 35 490 21 c 6
EndSplineSet
Fore
SplineSet
472.979 622.025 m 0
 458.403 622.632 434.465 620.917 418.737 639.624 c 0
 411.888 647.771 409 658.359 409 669 c 0
 409 675.909 410.652 683.658 415.469 691.148 c 0
 422.065 701.403 434.746 709 450 709 c 0
 461.73 709 486.26 706 539 706 c 0
 541.814 706 l 1
 595.326 706.99 620.206 709 631 709 c 0
 660.72 709 679 689.213 679 669 c 0
 679 631.405 636.441 619.357 622.805 601.745 c 0
 477.96 414.944 l 1
 372.755 271.952 378 286.877 378 265 c 0
 378 70.4675 l 1
 388.901 68.1902 417.475 67.6308 469.07 64.9714 c 1
 480.511 64.3358 492.235 60.925 500.386 51.5495 c 0
 509.124 41.4989 510 29.7732 510 21 c 0
 510 13 l 0
 510 1.05167 502.9 -26 474 -26 c 0
 465.514 -26 407.86 -20 333 -20 c 0
 256.057 -20 198.583 -26 191 -26 c 0
 181.903 -26 170.326 -23.7997 160.664 -15.1548 c 0
 150.797 -6.32635 146 7.13219 146 22 c 0
 146 30.761 146.552 41.7868 154.81 51.3674 c 0
 172.839 72.286 201.458 65.4585 242.683 67.9569 c 1
 246.952 68.2618 251.415 68.5303 252.975 68.7391 c 1
 253.003 69.7387 253 69 253 70 c 0
 253 277 l 0
 253 296.124 251.026 294.751 234.939 321.562 c 1
 55.0643 609.949 55.1708 610.538 52.0321 614.945 c 1
 46.6722 621.308 18.5649 606.594 -2.3498 643.008 c 1
 -6.27206 649.435 -9 657.138 -9 667 c 0
 -9 674.614 -7.15295 684.334 -0.203734 693.152 c 0
 7.6963 703.175 20.9083 709 36 709 c 0
 49.243 709 80.1817 706 146 706 c 0
 211.783 706 241.763 709 255 709 c 0
 264.614 709 274.541 706.094 281.76 699.179 c 0
 292.196 689.184 293 676.636 293 669 c 0
 293 657.955 291.76 645.58 282.531 635.582 c 0
 264.915 616.498 239.584 621.358 210.033 619.099 c 1
 206.263 618.628 203.301 617.909 202.086 617.348 c 1
 202.01 616.759 202 616.617 202 616 c 0
 202 614.456 l 1
 204.762 607.009 229.204 565.126 338.227 376.356 c 1
 425.413 496.581 467.542 553.119 486.809 584.226 c 1
 495.51 599.471 501 612.546 501 616 c 0
 501 617.415 500.868 618.956 500.833 619.263 c 1
 496.374 620.476 487.095 621.17 472.979 622.025 c 0
EndSplineSet
EndChar

StartChar: Z
Encoding: 90 90 59
Width: 629
GlyphClass: 2
Flags: HW
HStem: 0 81<188.196 522.299> 600 75<76.6612 459.999> 706 20G<40.5 53>
VStem: 16 41<486.018 580.65> 24 47<681.217 725.616> 577 43<149.472 255.763>
LayerCount: 2
Fore
SplineSet
-4 511 m 0
 -4 530.359 4 571.375 4 661 c 0
 4 698 l 0
 4 729.339 25.4171 746 45 746 c 0
 76.2607 746 86.4595 716.46 89.2762 710.123 c 0
 89.7452 709.068 l 1
 90.0896 707.966 l 0
 90.8203 705.627 101.109 695 126 695 c 0
 562 695 l 0
 592.175 695 606 673.258 606 657 c 0
 606 632.518 593.396 625.895 511.78 518.71 c 1
 366.523 336.388 l 1
 308.424 266.27 252.467 195.479 208.432 117.195 c 0
 208.061 116.535 l 1
 207.641 115.906 l 0
 207.447 115.615 206.327 113.226 206.184 112.756 c 1
 214.324 109.522 240.881 106.972 287.272 103.959 c 1
 318.774 101.991 351.421 101 384 101 c 0
 405 101 l 0
 479.972 101 514.986 103.548 534.552 149.725 c 1
 544.646 174.12 547.769 232.26 559.111 254.944 c 0
 559.668 256.058 l 1
 560.359 257.094 l 0
 564.21 262.871 575.606 276 596 276 c 0
 614.929 276 640 259.91 640 228 c 0
 640 227 l 0
 640 182.477 632.583 160.304 627.885 120.85 c 1
 622.082 61.139 634.185 -12.0073 571.481 -19.8456 c 0
 570.245 -20 l 1
 44 -20 l 0
 39.6714 -20 -4 -19.7874 -4 21 c 0
 -4 35.9361 4.16772 47.1202 8.00827 52.0257 c 1
 138.676 236.9 281.171 414.365 430.791 580 c 1
 123 580 l 0
 86.2896 580 97.7479 586.393 76.3882 503.091 c 1
 74.835 496.878 67.6154 466 36 466 c 0
 17.9132 466 -4 481.359 -4 511 c 0
EndSplineSet
EndChar

StartChar: bracketleft
Encoding: 91 91 60
Width: 378
GlyphClass: 2
Flags: HW
HStem: -185 25<131.75 150.983> 223 77<25.5738 74.811> 233 60<52.6504 78.9392>
VStem: 23 102<233.178 292.875> 80 45<-159.999 232.998 293.002 678.999> 192 42<-138.954 654.033>
LayerCount: 2
Fore
SplineSet
145 -128.608 m 1
 154.359 -124.512 163.091 -121.756 172 -119.673 c 1
 172 639.329 l 1
 163.986 641.194 155.949 643.285 145 647.708 c 1
 145 -128.608 l 1
104 764 m 0
 147.934 764 149.686 728 222 728 c 0
 286.757 728 319.755 757 343 757 c 0
 369.793 757 375 730.5 375 721 c 0
 375 689.998 320.4 640.934 253.016 633.808 c 1
 253.989 -118.82 l 1
 268.393 -120.791 288.472 -124.772 317.492 -141.969 c 1
 342.619 -158.05 374 -180.097 374 -207 c 0
 374 -221.765 363.064 -240 342 -240 c 0
 312.983 -240 285.182 -205 211 -205 c 0
 144.533 -205 122.527 -230 96 -230 c 0
 66.1568 -230 60 -201.233 60 -188 c 0
 60 203.668 l 1
 56.5823 203.119 54.8868 203 52 203 c 0
 10.0637 203 3 245.541 3 264 c 0
 3 303.803 31.1019 320 52 320 c 0
 54.3774 320 57.2424 319.751 59 319.592 c 1
 59 710 l 0
 59 719.224 58.3918 740.363 75.8602 754.648 c 0
 83.437 760.844 93.4898 764 104 764 c 0
EndSplineSet
EndChar

StartChar: backslash
Encoding: 92 92 61
Width: 235
GlyphClass: 2
Flags: HW
HStem: -226 21G<196.5 204>
VStem: 3 229
LayerCount: 2
Fore
SplineSet
170 -217.286 m 1
 5.53338 492.737 -17 582.573 -17 596 c 0
 -17 629.412 22.0755 638 34 638 c 0
 59.8318 638 66.8214 613.426 68.2305 608.494 c 0
 68.4517 607.72 l 1
 68.61 606.931 l 0
 160.92 146.392 252 -170.592 252 -200 c 0
 252 -233.544 214.066 -246 201 -246 c 0
 174.673 -246 170 -223.653 170 -217.286 c 1
EndSplineSet
EndChar

StartChar: bracketright
Encoding: 93 93 62
Width: 378
GlyphClass: 2
Flags: HW
HStem: -185 25<227.017 246.25> 223 77<303.189 352.426> 233 60<299.061 325.35>
VStem: 144 42<-138.954 654.033> 253 102<233.178 292.875> 253 45<-159.999 232.998 293.002 678.999>
LayerCount: 2
Fore
SplineSet
233 -128.608 m 1
 233 647.708 l 1
 219.303 642.175 212.66 640.879 206 639.329 c 1
 206 -119.673 l 1
 218.129 -122.509 225.661 -125.396 233 -128.608 c 1
274 764 m 0
 283.876 764 293.378 761.247 300.803 755.693 c 0
 319.649 741.598 319 719.305 319 710 c 0
 319 319.592 l 1
 325.349 320.165 323.016 320 326 320 c 0
 346.898 320 375 303.803 375 264 c 0
 375 245.476 368.022 203 326 203 c 0
 322.778 203 318 203.668 318 203.668 c 1
 318 -188 l 0
 318 -201.233 311.843 -230 282 -230 c 0
 254.021 -230 234.73 -205 167 -205 c 0
 92.9135 -205 64.8997 -240 36 -240 c 0
 14.9363 -240 4 -221.765 4 -207 c 0
 4 -179.617 35.4881 -157.982 60.5082 -141.969 c 1
 89.8095 -124.606 111.665 -120.509 124.011 -118.82 c 1
 124.984 633.808 l 1
 55.6522 641.14 3 690.601 3 721 c 0
 3 730.5 8.20711 757 35 757 c 0
 58.2776 757 91.2172 728 156 728 c 0
 228.312 728 230.067 764 274 764 c 0
EndSplineSet
EndChar

StartChar: asciicircum
Encoding: 94 94 63
Width: 423
GlyphClass: 2
Flags: HW
HStem: 606 110<188.927 234.747>
VStem: 51 322<472 492>
LayerCount: 2
Fore
SplineSet
73 442 m 0
 48.6984 442 31 461.679 31 484 c 0
 31 498.618 37.7712 509.158 40.8151 514.231 c 1
 153.227 704.545 153.612 716.61 185.724 731.207 c 0
 186.143 731.398 l 1
 1461.6 1241.79 186.572 731.57 186.572 731.57 c 0
 193.707 734.424 201.315 736 209 736 c 0
 247.377 736 266.542 699.332 275.481 686.331 c 0
 275.737 685.958 l 1
 583.812 191.245 275.976 685.574 275.976 685.574 c 0
 383.821 512.427 393 510.522 393 483 c 0
 393 456.867 371.261 440 349 440 c 0
 312.965 440 293.382 476.422 283.158 489.792 c 1
 241.365 543.602 221.1 570.559 212.257 581.359 c 1
 201.547 568.919 180.995 543.196 135.373 487.205 c 1
 121.186 470.515 105.923 442 73 442 c 0
EndSplineSet
EndChar

StartChar: underscore
Encoding: 95 95 64
Width: 527
GlyphClass: 2
Flags: HW
HStem: -76 55<27.0354 500.941>
LayerCount: 2
Fore
SplineSet
7 -50 m 2
 7 -46 l 0
 7 -38.515 6.59765 -1 41 -1 c 0
 487 -1 l 0
 520.438 -1 521 -37.4519 521 -46 c 0
 521 -48 l 0
 521 -54.0976 523.899 -96 487 -96 c 0
 41 -96 l 0
 4.9078 -96 7 -55.8565 7 -50 c 2
EndSplineSet
EndChar

StartChar: grave
Encoding: 96 96 65
Width: 227
GlyphClass: 2
Flags: HW
HStem: 474 227
VStem: 8 198
LayerCount: 2
Fore
SplineSet
-12 664 m 0
 -12 697.865 15.8689 721 45 721 c 0
 46 721 l 0
 87.7196 721 109.992 681.998 117.716 669.982 c 1
 216.193 523.253 226 520.122 226 494 c 0
 226 474.51 210.916 454 187 454 c 0
 185 454 l 0
 156.859 454 155.455 466.31 18.8073 604.908 c 1
 13.1795 610.536 -12 631.172 -12 664 c 0
EndSplineSet
EndChar

StartChar: a
Encoding: 97 97 66
Width: 423
GlyphClass: 2
Flags: HW
HStem: -12 59<333.638 390.033> 193 37<161.154 258.94> 387 47<123.78 229.046>
VStem: 33 74<48.7656 154.201> 260 70<76.3281 192.996 230.096 353.167>
LayerCount: 2
Fore
SplineSet
9 345 m 0
 9 401.355 96.3392 454 183 454 c 0
 221.666 454 336.105 441.602 347.916 325.845 c 1
 348.951 313.419 350 301.232 350 288 c 0
 350 91 l 0
 350 64.1736 361.195 67 364 67 c 0
 379.563 67 361.662 100 408 100 c 0
 426.161 100 437 83.2207 437 67 c 0
 437 36.5956 407.957 -32 340 -32 c 0
 303.211 -32 277.688 -10.466 265.625 2.18245 c 1
 259.713 -2.65946 257.484 -4.29712 251.087 -8.6469 c 1
 224.979 -25.6738 188.783 -40 147 -40 c 0
 66.9277 -40 13 20.6486 13 92 c 0
 13 93 l 0
 13 137.411 33.9854 175.039 62.5662 197.665 c 1
 114.973 239.396 209.881 246.562 239 248.985 c 1
 239 280 l 0
 239 310.688 235.202 328.935 220.119 346.635 c 1
 210 357.409 195.304 367 177 367 c 0
 135.514 367 112.164 317.607 108.889 311.056 c 0
 108.082 309.443 l 1
 107 308 l 0
 102.72 302.294 90.3543 289 69 289 c 0
 42.6383 289 9 307.529 9 345 c 0
171 55 m 0
 210.202 55 234.65 83.3189 237.725 87.6248 c 0
 239.453 90.0433 240 91.2661 240 99 c 0
 240 164 l 0
 240 167.27 239.956 171.072 239.927 172.622 c 1
 214.188 170.952 165.735 162.189 144.694 142.423 c 0
 144.315 142.068 l 1
 143.919 141.732 l 0
 134.88 134.084 127 121.807 127 103 c 0
 127 89.9626 132.101 70.9873 141.344 62.8991 c 1
 147.263 57.4739 159.329 55 171 55 c 0
EndSplineSet
EndChar

StartChar: b
Encoding: 98 98 67
Width: 486
GlyphClass: 2
Flags: HW
HStem: -19 41<151.529 329.336> 377 53<183.706 323.906> 693 20G<129 134>
VStem: 69 69<2.73671 330.126> 72 70<65.0945 353.728 389.001 621.937> 414 63<104.331 284.133>
LayerCount: 2
Fore
SplineSet
162.19 420.179 m 1
 186.583 433.334 225.804 450 282 450 c 0
 411.467 450 497 349.287 497 209 c 0
 497 142.51 473.229 28.5142 351.097 -17.6987 c 1
 305.559 -35.0464 256.047 -39 232 -39 c 0
 178.005 -39 154.748 -20 135 -20 c 0
 115.193 -20 122.178 -41 85 -41 c 0
 48.7987 -41 49 -0.571566 49 9 c 0
 49 126.186 52 477.186 52 594 c 0
 52 595.531 51.9073 596.682 51.8562 597.234 c 1
 51.137 597.813 49.941 598.669 49.2191 599.15 c 1
 12.3146 621.796 -16 627.987 -16 656 c 0
 -16 680.193 7.47503 686.731 9.61501 687.587 c 1
 111.249 727.839 115.475 733 131 733 c 0
 132.655 733 l 1
 134.288 732.728 l 0
 146.127 730.754 165 718.823 165 693 c 0
 165 643.006 162.832 483.577 162.19 420.179 c 1
394 192 m 0
 394 293.853 321.313 357 247 357 c 0
 212.751 357 166.808 335.795 159 325.905 c 1
 159 72 l 0
 159 66.2005 158.002 64.026 158.002 64.026 c 1
 158.072 61.0976 158.137 60.9448 158.234 60.14 c 1
 158.664 59.9141 159.091 59.7122 159.671 59.4704 c 1
 186.514 48.3627 214.946 42 244 42 c 0
 335.53 42 394 101.347 394 192 c 0
EndSplineSet
EndChar

StartChar: c
Encoding: 99 99 68
Width: 381
GlyphClass: 2
Flags: HW
HStem: -18 64<167.358 299.435> 376 52<142.345 251.426>
VStem: 17 66<134.62 305.205>
LayerCount: 2
Fore
SplineSet
209 -38 m 0
 81.2654 -38 -3 65.615 -3 197 c 0
 -3 342.086 91.1785 448 231 448 c 0
 305.567 448 378 411.578 378 354 c 0
 378 318.434 348.087 296 318 296 c 0
 252.302 296 239.406 356 197 356 c 0
 152.192 356 103 299.905 103 222 c 0
 103 137.571 162.387 66 241 66 c 0
 311.939 66 313.457 120 363 120 c 0
 382.312 120 400 104.57 400 83 c 0
 400 70.5406 394.593 61.1245 390.088 55.1173 c 1
 355.211 7.16105 291.591 -38 209 -38 c 0
EndSplineSet
EndChar

StartChar: d
Encoding: 100 100 69
Width: 494
GlyphClass: 2
Flags: HW
HStem: -21 52<181.137 326.745> 383 40<159.841 319.221> 694 20G<412 418>
VStem: 17 67<127.427 307.105> 355 71<69.2324 354.672 408.003 610.663>
LayerCount: 2
Fore
SplineSet
238 363 m 0
 147.82 363 104 309.076 104 216 c 0
 104 104.968 198.333 51 258 51 c 0
 293.836 51 329.294 70.0047 332.762 79.5176 c 1
 334.435 86.44 335 90.8298 335 97 c 0
 335 321 l 0
 335 327.086 336.544 324.89 331.137 330.583 c 1
 305.245 354.358 271.582 363 238 363 c 0
240 443 m 2
 283.705 443 316.155 436.434 335 431.811 c 1
 335 585 l 0
 335 586.188 334.945 587.342 334.916 587.764 c 1
 330.61 590.497 313.905 597.026 288.52 607.055 c 1
 284.166 608.328 256 614.362 256 642 c 0
 256 662.864 273.906 669.641 273.906 669.641 c 0
 275.006 670.374 l 1
 276.191 670.956 l 0
 382.867 723.287 396.139 734 414 734 c 0
 435.602 734 446 714.503 446 700 c 0
 446 666.245 443 569.93 443 376 c 0
 443 286.199 444.703 122.904 445.698 89.1799 c 1
 453.373 88.7389 461.971 88.6082 473.645 87.9964 c 1
 473.645 87.9964 512 90.0008 512 54 c 0
 512 18.6019 471.009 14.7844 442.761 -1.4578 c 1
 400.299 -24.5348 392.534 -48 364 -48 c 0
 354.582 -48 336 -38.738 336 -18 c 0
 336 -18 264.324 -41 235 -41 c 0
 92.0387 -41 -3 71.5907 -3 207 c 0
 -3 319.182 68.6236 443 239 443 c 0
 240 443 l 2
EndSplineSet
EndChar

StartChar: e
Encoding: 101 101 70
Width: 409
GlyphClass: 2
Flags: HW
HStem: -19 57<165.729 309.105> 376 55<130.468 248.721>
VStem: 22 71<115.769 316.359> 290 97<292.942 337.386>
LayerCount: 2
Fore
SplineSet
2 206 m 0
 2 354.237 94.0156 451 207 451 c 0
 284.637 451 355.408 401.123 394.782 347.304 c 1
 401.958 337.874 407 327.694 407 313 c 0
 407 312 l 0
 407 259.576 331.898 249.775 312.497 243.085 c 1
 185.044 199.367 132.882 182.512 114.21 175.053 c 1
 120.722 141.187 148.567 58 241 58 c 0
 279.284 58 318.848 75.007 345.974 101.258 c 1
 349.145 104.43 361.345 121 383 121 c 0
 401.137 121 419 107.109 419 86 c 0
 419 75.9336 414.567 65.8387 407.597 57.4754 c 1
 363.561 0.551758 292.756 -39 215 -39 c 0
 123.997 -39 2 23.5819 2 206 c 0
265.474 313.342 m 1
 251.086 330.759 217.23 356 185 356 c 0
 146.146 356 115.143 323.814 109.724 253.003 c 1
 152.349 269.153 239.455 303.097 265.474 313.342 c 1
EndSplineSet
EndChar

StartChar: f
Encoding: 102 102 71
Width: 292
GlyphClass: 2
Flags: HW
HStem: -6 45<18.0677 79.8315 153 229.988> 359 52<10.824 82.4098 153.06 281.154> 653 67<224.432 344.919>
VStem: 84 69<38.7292 358.944 411.182 564.612>
LayerCount: 2
Fore
SplineSet
33 -26 m 0
 -1.15426 -26 -2 10.9728 -2 19 c 0
 -2 54.858 34.7305 54.4994 59.6174 58.3917 c 1
 59.8015 60.8898 59.8637 62.1959 60.0663 64.6281 c 1
 61.8877 87.3953 63.9168 154.348 63.9981 339.661 c 1
 55.8164 339.764 45.3629 339.696 30.7914 340 c 1
 27.9518 340 17.0718 339.179 6.10146 346.176 c 0
 -3.74984 352.46 -10 364.632 -10 378 c 0
 -10 394.242 -6.86683 410.373 6.45883 420.435 c 0
 14.2855 426.345 23.9008 428 30.6004 428 c 1
 44.0053 428.536 57.3125 428.682 62.2966 428.75 c 1
 64.005 473.499 70.1631 555.092 107.689 621.017 c 1
 151.8 696.006 239.302 740 308 740 c 0
 370.85 740 400 701.072 400 668 c 0
 400 638.618 376.348 609 338 609 c 0
 298.448 609 275.548 633 255 633 c 0
 206.752 633 172 555.977 172 436 c 0
 172 431 l 1
 260 431 l 0
 268.541 431 280.35 429.855 290.228 420.727 c 0
 298.544 413.043 302 401.856 302 391 c 0
 302 390 l 0
 302 381.349 298.763 339 256 339 c 0
 173 339 l 1
 173 61 l 0
 173 59.4111 173.066 57.8354 173.127 57.0405 c 1
 174.123 56.9547 173.394 57.007 174.392 56.9544 c 1
 180.049 56.4625 183.898 56.2039 188.241 55.9492 c 0
 214.784 54.3924 250 55.6923 250 16 c 0
 250 1.67612 242.749 -26 214 -26 c 0
 207.672 -26 200.732 -24.4684 184.023 -22.914 c 0
 168.329 -21.4542 147.171 -20 124 -20 c 0
 75.1605 -20 41.4788 -26 33 -26 c 0
EndSplineSet
EndChar

StartChar: g
Encoding: 103 103 72
Width: 440
GlyphClass: 2
Flags: HW
HStem: -234 47<142.754 341.117> -30 44<132.457 326.557> 112 35<153.211 252.627> 351 101<362.723 402.419> 399 34<138.823 236.686>
VStem: 22 78<200.871 354.327> 27 56<-139.464 -47.0017> 44 51<19.8401 100.604> 292 72<197.295 342.215> 373 58<-158.727 -67.4462>
LayerCount: 2
Fore
SplineSet
187 379 m 0
 151.133 379 120 348.082 120 289 c 0
 120 218.64 157.906 167 203 167 c 0
 242.24 167 272 202.39 272 258 c 0
 272 323.221 233.945 379 187 379 c 0
103 -88 m 0
 103 -129.032 155.873 -167 246 -167 c 0
 343.307 -167 353 -128.89 353 -114 c 0
 353 -90.1952 333.122 -77.0247 324.724 -73.2073 c 0
 324.306 -73.0174 l 1
 323.898 -72.8087 l 0
 288.024 -54.4735 225.119 -60.8733 121.22 -50.0283 c 1
 119.913 -51.2955 118.382 -52.9024 116.142 -55.1421 c 0
 108.333 -62.9511 103 -76.2347 103 -88 c 0
2 277 m 0
 2 372.247 80.2791 453 184 453 c 0
 260.921 453 306.113 417 310 417 c 0
 320.099 417 335.11 425.495 345.254 439.944 c 1
 349.178 446.29 361.683 472 391 472 c 0
 423.344 472 449 441.311 449 411 c 0
 449 361.397 391.546 344.168 375.215 337.551 c 1
 378.986 325.547 384 306.99 384 280 c 0
 384 177.428 303.378 92 198 92 c 0
 161.849 92 142.71 100.94 140.146 100.999 c 1
 138.587 100.713 130.521 96.3389 124.143 88.6682 c 0
 117.953 81.2241 115 72.9208 115 70 c 0
 115 37.858 244.263 63.0816 345.576 33.2072 c 1
 416.901 12.8287 451 -44.4629 451 -97 c 0
 451 -164.43 395.674 -254 223 -254 c 0
 50.9321 -254 7 -165.571 7 -108 c 0
 7 -61.3287 32.6457 -31.6182 49.7874 -17.1076 c 1
 36.5624 -4.94974 24 13.9514 24 43 c 0
 24 87.3174 55.1005 121.537 72.7113 138.712 c 1
 57.9092 148.992 39.685 164.838 23.6206 194.098 c 1
 8.94032 218.941 2 248.112 2 277 c 0
EndSplineSet
EndChar

StartChar: h
Encoding: 104 104 73
Width: 514
GlyphClass: 2
Flags: HW
HStem: -6 42<21.0267 80.623 293.01 367.94 444.564 497.985> 371 51<192.054 305.085> 699 20G<139.5 147>
VStem: 87 66<39.8055 348.283 385.001 609.081> 370 74<38.0009 293.71>
LayerCount: 2
Fore
SplineSet
273 8 m 2
 273 15 l 0
 273 56.8069 316.252 53.5832 347.166 57.7986 c 1
 347.759 57.8876 347.76 57.8929 347.858 57.9093 c 1
 349.631 66.3308 350 86.9107 350 125 c 0
 350 267.519 327.833 299.16 307.581 321.135 c 1
 289.912 338.561 266.074 351 241 351 c 0
 228.064 351 215.019 347.61 203.739 342.362 c 0
 184.47 333.398 173.978 319.451 173.403 317.149 c 0
 173.19 316.297 173 314.136 173 309 c 0
 173 303.866 173.293 84.4035 174.715 65.377 c 1
 175.942 59.7212 250 70.3402 250 15 c 0
 250 10.0849 251.052 -26 219 -26 c 0
 210.631 -26 175.816 -20 127 -20 c 0
 76.1299 -20 41.349 -26 33 -26 c 0
 0.0225806 -26 1 10.0447 1 14 c 0
 1 48.2552 32.8791 51.071 54.1898 55.6376 c 1
 63.3666 57.2335 60.9463 55.4294 62.0235 71.0426 c 1
 65.0472 162.988 67 253.214 67 345 c 0
 67 349 l 0
 67 422.54 64.4453 561.478 63.3178 588.366 c 1
 62.0285 589.073 -8 594.222 -8 636 c 0
 -8 664.753 18.6206 672.68 18.6206 672.68 c 1
 125.549 734.658 122.854 739 143 739 c 0
 144 739 l 0
 158.249 739 179 726.906 179 699.968 c 1
 178.077 415.644 l 1
 201.048 427.566 235.633 442 281 442 c 0
 355.778 442 407.854 397.706 433.377 338.893 c 1
 455.012 288.047 460.004 252.967 464 66.2137 c 1
 464 60.6243 464.661 57.7085 464.888 56.9489 c 1
 467.557 55.9732 473.644 55.0261 483.432 53.8517 c 1
 494.527 52.4647 518 43.3303 518 16 c 0
 518 -5.33194 506.755 -26 485 -26 c 0
 476.417 -26 443.893 -20 394 -20 c 0
 346.202 -20 312.472 -26 304 -26 c 0
 278.496 -26 273 -0.963147 273 8 c 2
EndSplineSet
EndChar

StartChar: i
Encoding: 105 105 74
Width: 243
GlyphClass: 2
Flags: HW
HStem: -6 44<18.136 93.0582 163.719 228.991> 421 20<149.5 156> 571 94<112.016 191.668>
VStem: 94 67<39.1511 336.573> 104 96<579.719 656.984>
LayerCount: 2
Fore
SplineSet
84 618 m 0
 84 655.594 115.372 685 152 685 c 0
 188.428 685 220 655.932 220 619 c 0
 220 580.188 187.429 551 151 551 c 0
 114.351 551 84 579.894 84 618 c 0
EndSplineSet
Refer: 203 305 S 1 0 0 1 0 0 2
EndChar

StartChar: j
Encoding: 106 106 75
Width: 232
GlyphClass: 2
Flags: HW
HStem: -231 77<-30.0167 54.2285> 422 20<152.5 158> 558 93<111.688 191.668>
VStem: 95 71<-117.424 346.052> 104 96<566.659 643.248>
LayerCount: 2
Fore
SplineSet
84 604 m 0
 84 642.665 115.752 671 152 671 c 0
 188.046 671 220 643.001 220 605 c 0
 220 566.858 187.231 538 151 538 c 0
 114.551 538 84 566.561 84 604 c 0
EndSplineSet
Refer: 262 567 S 1 0 0 1 0 0 2
EndChar

StartChar: k
Encoding: 107 107 76
Width: 454
GlyphClass: 2
Flags: HW
HStem: -4 38<135.229 201.909 375.977 444.993> 370 45<318.514 420.766> 698 20G<122 129>
VStem: 67 68<37.2274 171.859 225.001 625.327> 243 178<335 403.957>
LayerCount: 2
Fore
SplineSet
212.591 39.5954 m 1
 225.422 54.6496 244.028 54.7124 248.891 55.3261 c 1
 234.994 82.5067 183.643 148.009 162.531 174.118 c 1
 158.109 169.121 156.52 167.004 155.049 165.005 c 1
 154.992 163.32 155 162.616 155 161 c 0
 155 58 l 0
 155 56.992 173.069 55.216 183.609 53.8291 c 0
 184.481 53.7144 l 1
 185.339 53.5237 l 0
 190.587 52.3575 202.458 49.9622 212.591 39.5954 c 1
211.88 -14.4301 m 1
 203.898 -22.1903 194.266 -24 188 -24 c 0
 176.447 -24 157.982 -20 111 -20 c 0
 64.6478 -20 44.7856 -24 33 -24 c 0
 4.67712 -24 -4 1.68495 -4 14 c 0
 -4 58.0656 46.8884 56.35 46.8884 56.35 c 1
 46.9379 56.6032 47 57.0088 47 57.0088 c 1
 47 595 l 0
 47 598.255 46.6318 600.239 46.6132 600.32 c 1
 46.2122 600.7 45.5583 601.258 43.7867 602.439 c 1
 26.1528 614.562 1.07775 630.638 -5.14214 636.858 c 0
 -13.9875 645.703 -14.9109 656.873 -14.9742 657.95 c 1
 -15.033 658.948 -14.9413 657.414 -15 658.412 c 1
 -15 659 l 0
 -15 688.997 17.5375 694.594 18.6754 694.974 c 1
 18.9284 694.215 108.56 738 124 738 c 0
 154.586 738 155 705.128 155 701 c 0
 155 268.66 l 1
 180.617 294.467 195.836 309.331 206.719 320.801 c 0
 225.099 340.17 223 339.181 223 347 c 0
 223 362.54 197 345.814 197 389 c 0
 197 399 l 0
 197 428.43 227.479 432 238 432 c 0
 296 432 l 0
 361.772 432 392.81 435 406 435 c 0
 430.925 435 441 412.378 441 396 c 0
 441 348.711 389.709 356.348 368.124 350.667 c 1
 336.204 342.156 306.977 315.873 256.408 263.881 c 0
 249.917 257.206 242.507 249.547 235.616 242.437 c 1
 247.664 227.634 276.13 194.173 342.343 114.829 c 1
 368.722 83.3778 392.136 56.7636 431.655 51.8238 c 1
 440.247 50.5964 465 42.9096 465 15 c 0
 465 8.0563 464.227 0.467644 460.37 -7.24748 c 0
 454.764 -18.4599 442.311 -26 429 -26 c 0
 420.754 -26 384.883 -20 333 -20 c 0
 282.194 -20 245.117 -26 237 -26 c 0
 231.5 -26 220.152 -24.4823 211.88 -14.4301 c 1
EndSplineSet
EndChar

StartChar: l
Encoding: 108 108 77
Width: 239
GlyphClass: 2
Flags: HW
HStem: -5 43<18.0052 85.7427 160.703 227.907> 703 20G<143.5 152>
VStem: 87 73<39.238 609.091>
LayerCount: 2
Fore
SplineSet
248 14 m 0
 248 3.3572 244.544 -26 216 -26 c 0
 207.744 -26 171.823 -20 122 -20 c 0
 74.1653 -20 39.5699 -25 32 -25 c 0
 0.510196 -25 -2 6.9682 -2 13 c 0
 -2 16 l 0
 -2 51.3292 28.6835 54.5713 56.6862 57.8657 c 1
 69.1638 59.3054 67 56.9952 67 76 c 0
 67 585 l 0
 67 586.458 58.558 589.998 53.7883 592.803 c 1
 20.4606 612.799 -9 618.809 -9 649 c 0
 -9 650 l 0
 -9 679.241 12.853 678.513 123.912 736.296 c 1
 128.885 739.431 136.255 743 146 743 c 0
 175.894 743 180 713.165 180 704 c 0
 180 71 l 0
 180 65.105 180.627 61.2951 180.9 60.2633 c 1
 184.467 58.7695 196.152 56.9023 214.368 53.7146 c 1
 233.147 50.5847 248 35.1532 248 14 c 0
EndSplineSet
EndChar

StartChar: m
Encoding: 109 109 78
Width: 723
GlyphClass: 2
Flags: HMW
HStem: -6 43<140.259 206.883 242.009 320.739 387.139 454.994 509.206 575.944 647.643 708.974> 371 51<176.293 286.616 417.763 533.955> 414 20G<126 133>
VStem: 78 62<36.1465 331.765> 322 66<38.0512 337.462> 576 71<37.4201 324.172>
LayerCount: 2
Fore
SplineSet
224.34 29.6836 m 1
 235.907 56.1449 265.376 52.1719 292.567 56.7038 c 1
 298.159 57.7205 300.314 59.141 300.314 59.141 c 1
 300.531 59.5296 302 64.2841 302 75 c 0
 302 260 l 0
 302 292.378 297.745 316.191 277.925 331.056 c 1
 263.792 341.864 242.785 351 220 351 c 0
 204.57 351 192.316 346.803 182.746 341.365 c 0
 171.607 335.035 164.124 326.385 162.049 323.23 c 1
 160.926 320.07 160 317.536 160 306 c 0
 160 65 l 0
 160 61.1482 160.317 57.8682 160.455 57.0012 c 1
 165.545 55.3293 177.589 53.7032 195.986 50.7765 c 1
 207.755 49.0952 219.713 41.221 224.34 29.6836 c 1
224.697 -4.30292 m 1
 220.189 -15.844 208.095 -26 194 -26 c 0
 185.125 -26 154.829 -20 109 -20 c 0
 65.5748 -20 47.21 -24 36 -24 c 0
 5.81417 -24 2 6.3778 2 16 c 0
 2 69.0116 57.2741 56.6702 58 61.1151 c 1
 58 308 l 0
 58 311.618 57.8027 313.744 57.7098 314.337 c 1
 56.5298 315.776 45.7601 324.093 26.3924 338.702 c 1
 23.5468 340.619 9 348.347 9 367 c 0
 9 393.007 24.8571 394.108 99.1954 441.83 c 0
 99.7962 442.216 l 1
 100.423 442.558 l 0
 107.558 446.449 113.783 454 129 454 c 0
 155.544 454 158 426.476 158 422 c 0
 158 412.842 l 1
 179.901 426.614 210.768 442 250 442 c 0
 307.508 442 347.723 406.136 363.451 390.272 c 1
 365.06 391.525 366.237 392.414 367.897 393.625 c 0
 373.846 397.964 382.093 403.427 393.973 410.305 c 1
 440.261 437.217 479.154 442 501 442 c 0
 559.172 442 629.677 409.591 655.234 318.484 c 1
 667.206 277.129 667 235.847 667 196 c 0
 667 69 l 0
 667 63.4185 667.513 59.5635 667.783 58.3335 c 1
 671.662 56.8468 682.53 55.0635 699.12 51.571 c 1
 699.044 51.2099 729 49.241 729 14 c 0
 729 4.90765 725.023 -26 694 -26 c 0
 680.188 -26 659.501 -20 610 -20 c 0
 559.48 -20 538.779 -26 525 -26 c 0
 511.798 -26 489 -15.6557 489 11 c 0
 489 47.1683 519.696 50.1354 552.078 56.6116 c 0
 552.553 56.7068 l 1
 553.033 56.7787 l 0
 554.204 56.9543 555.184 57.1678 555.877 57.3225 c 1
 555.998 59.2622 556 61.1513 556 64 c 0
 556 203 l 0
 556 255.911 550.552 308.464 522.196 333.63 c 1
 513.738 340.326 497.394 351 473 351 c 0
 453.74 351 431.351 342.894 416.297 333.542 c 0
 409.978 329.616 405.001 325.341 402.768 322.919 c 1
 404.872 311.425 408 290.404 408 258 c 0
 408 65 l 0
 408 61.471 407.248 57.7517 407.223 57.6179 c 1
 413.331 56.5808 423.287 55.6985 438.732 53.815 c 1
 458.286 50.8066 475 36.6454 475 15 c 0
 475 9.45181 474.704 2.4023 471.525 -5.52876 c 0
 467.807 -14.8071 457.379 -26 442 -26 c 0
 433.635 -26 398.849 -20 349 -20 c 0
 299.069 -20 263.459 -26 256 -26 c 0
 242.174 -26 229.196 -16.5314 224.697 -4.30292 c 1
EndSplineSet
EndChar

StartChar: n
Encoding: 110 110 79
Width: 499
GlyphClass: 2
Flags: HW
HStem: -6 42<11.1138 75.251 145.568 220.772 294.036 361.915 427.242 488.974> 384 49<199.31 317.254>
VStem: 76 69<38.2075 347.206> 362 65<36.1777 339.27>
LayerCount: 2
Fore
SplineSet
162 412.65 m 1
 187.098 430.794 227.316 452.366 281.883 453 c 1
 284 453 l 0
 334.419 453 434.913 427.28 445.906 290.973 c 1
 447.987 273.282 448 254.752 448 238 c 0
 448 220.308 447 203.062 447 65 c 0
 447 63 l 0
 447 59.8218 447.344 57.1371 447.453 56.5514 c 1
 451.45 55.2377 461.97 54.0644 477.935 51.7838 c 1
 504.878 47.6387 509 22.5929 509 14 c 0
 509 -13.1245 488.844 -26 474 -26 c 0
 459.296 -26 439.399 -20 390 -20 c 0
 346.098 -20 316.186 -26 308 -26 c 0
 277.814 -26 274 4.3778 274 14 c 0
 274 52.3194 313.62 51.7167 341.897 56.5854 c 1
 341.995 58.6808 342 59.2824 342 61 c 0
 342 216 l 0
 342 233.247 339.56 292.958 330.514 316.366 c 1
 312.753 356.139 268.949 364 249 364 c 0
 229.583 364 212.215 357.507 197.996 348.438 c 0
 177.854 335.592 166.38 317.59 165.555 314.759 c 1
 165.115 312.997 165 310.293 165 306 c 0
 165 66 l 0
 165 62.2488 165.373 59.5712 165.559 58.9126 c 1
 166.318 58.5502 167.129 58.1847 170.059 57.7661 c 1
 204.023 52.1054 241 53.3761 241 11 c 0
 241 -2.25649 233.591 -27 208 -27 c 0
 198.871 -27 163.759 -20 115 -20 c 0
 67.1556 -20 35.7002 -26 27 -26 c 0
 13.1519 -26 -9 -14.7906 -9 12 c 0
 -9 47.674 21.4932 51.6606 46.8402 55.7488 c 0
 52.4125 56.6404 54.6817 57.955 55.0894 58.2197 c 1
 55.3782 58.9678 56 63.0041 56 70 c 0
 56 309 l 0
 56 316.513 55.5762 319.685 55.5762 319.685 c 1
 55.1771 320.36 45.7954 328.754 18.9433 349.043 c 0
 17.8377 349.878 l 1
 16.8579 350.858 l 0
 14.7598 352.956 5 360.401 5 375 c 0
 5 376 l 0
 5 403.572 26.1212 405.268 109.706 450.172 c 1
 112.96 452.318 119.889 457 130 457 c 0
 154.544 457 162 433.694 162 422 c 0
 162 412.65 l 1
EndSplineSet
EndChar

StartChar: o
Encoding: 111 111 80
Width: 467
GlyphClass: 2
Flags: HW
HStem: -19 49<167.083 305.289> 385 47<165.676 296.741>
VStem: 21 78<107.025 304.389> 378 68<109.681 295.193>
LayerCount: 2
Fore
SplineSet
1 204 m 0
 1 353.922 114.207 452 237 452 c 0
 367.924 452 466 347.412 466 204 c 0
 466 49.9342 355.07 -39 233 -39 c 0
 93.9306 -39 1 71.6572 1 204 c 0
236 50 m 0
 306.293 50 358 118.037 358 200 c 0
 358 299.021 291.754 365 230 365 c 0
 189.243 365 119 333.49 119 209 c 0
 119 110.882 169.071 50 236 50 c 0
EndSplineSet
EndChar

StartChar: p
Encoding: 112 112 81
Width: 494
GlyphClass: 2
Flags: HW
HStem: -228 46<13.3345 91.7562> -220 42<166.185 266.758> -7 34<182.8 315.77> 372 59<202.772 321.179> 421 20G<134.5 140>
VStem: 93 73<-177.901 -1.00293> 93 65<45.2268 333.699> 408 67<117.256 282.885>
LayerCount: 2
Fore
SplineSet
250 47 m 0
 319.827 47 388 105.839 388 195 c 0
 388 282.644 319.711 352 253 352 c 0
 241.215 352 220.103 351.231 198.981 334.984 c 1
 181.587 322.333 178 314.102 178 289 c 0
 178 74 l 0
 178 71.5427 178.104 70.5116 178.132 70.349 c 1
 178.379 69.9594 180.765 66.5206 192.665 61.0283 c 1
 210.683 52.0191 230.307 47 250 47 c 0
286 451 m 0
 410.675 451 495 339.084 495 215 c 0
 495 70.2012 385.162 -27 237 -27 c 0
 216.591 -27 196.235 -24.6769 186 -23.2322 c 1
 186 -152 l 0
 186 -154.581 186.239 -156.948 186.334 -157.43 c 1
 187.351 -157.743 188.118 -157.921 189.942 -158.094 c 1
 238.758 -162.976 288 -156.235 288 -209 c 0
 288 -220.694 280.544 -244 256 -244 c 0
 243.527 -244 217.699 -240 162 -240 c 0
 89.1562 -240 39.023 -248 29 -248 c 0
 15.2427 -248 -7 -236.471 -7 -208 c 0
 -7 -169.75 32.2559 -169.956 67.0316 -162.396 c 1
 70.6441 -161.718 71.7696 -161.11 72.2265 -160.867 c 1
 72.5871 -159.801 73 -157.855 73 -154 c 0
 73 310 l 0
 73 310.698 72.9288 311.244 72.9288 311.244 c 1
 72.6195 311.413 72.8767 311.301 72.0787 311.634 c 1
 15.1782 337.02 -7 337.179 -7 365 c 0
 -7 366 l 0
 -7 393.276 12.12 392.526 109.831 450.222 c 0
 110.432 450.577 l 1
 111.056 450.889 l 0
 116.858 453.79 121.7 461 137 461 c 0
 159.75 461 165 438.324 165 430 c 0
 165 408.48 l 1
 185.677 425.316 216.484 443.638 260.362 449.826 c 1
 270.189 451.054 277.949 451 286 451 c 0
EndSplineSet
EndChar

StartChar: q
Encoding: 113 113 82
Width: 525
GlyphClass: 2
Flags: HW
HStem: -235 45<290.501 370.591> -225 36<452.956 515.684> -9 61<187.768 336.033> 401 33<185.131 334.656> 426 20G<429.5 439.5>
VStem: 16 72<150.894 302.179> 374 73<-182.941 28.9978 78.3765 371.626>
LayerCount: 2
Fore
SplineSet
259 381 m 0
 175.602 381 108 315.584 108 233 c 0
 108 142.757 184.406 72 273 72 c 0
 305.112 72 344.822 86.4405 352.163 92.4576 c 1
 353.92 94.4766 355 97.0747 355 108 c 0
 355 130.945 355.007 154.47 352 342.84 c 1
 352 354.441 353.13 350.677 346.627 355.541 c 1
 320.577 372.39 290.085 381 259 381 c 0
-4 213 m 0
 -4 318.118 75.3483 454 283 454 c 0
 346.72 454 390.801 441 397 441 c 0
 414.282 441 391.074 466 435 466 c 0
 470.996 466 466 422.709 466 391 c 0
 466 383.48 467 374.48 467 364 c 0
 467 -139 l 0
 467 -170.988 465.021 -164.095 504.543 -169.162 c 0
 505.448 -169.278 l 1
 506.339 -169.476 l 0
 519.11 -172.314 536 -183.007 536 -203 c 0
 536 -214.852 529.25 -245 498 -245 c 0
 489.068 -245 475.697 -243 443 -243 c 0
 367.027 -243 319.705 -255 308 -255 c 0
 297.382 -255 286.306 -250.984 278.831 -242.207 c 0
 272.683 -234.989 270 -225.827 270 -217 c 0
 270 -176.083 314.566 -175.403 341.045 -170.393 c 1
 355.858 -167.219 354 -165.103 354 -150 c 0
 354 -0.529531 l 1
 330.359 -13.0714 293.141 -29 239 -29 c 0
 107.1 -29 -4 78.7019 -4 213 c 0
EndSplineSet
EndChar

StartChar: r
Encoding: 114 114 83
Width: 358
GlyphClass: 2
Flags: HW
HStem: -6 44<12.3504 75 147.448 244.95> 346 100<247.701 330.441>
VStem: 75 72<38.4622 329.719>
LayerCount: 2
Fore
SplineSet
162 411.95 m 1
 187.164 429.233 220.194 452.659 242.363 460.869 c 1
 254.67 464.972 265.662 466 278 466 c 0
 309.388 466 376 452.55 376 402 c 0
 376 400.412 l 1
 375.965 399.826 l 0
 374.2 369.807 346.323 354.582 342.17 350.948 c 0
 341.023 349.945 l 1
 339.738 349.127 l 0
 332.661 344.624 314.895 326 288 326 c 0
 244.031 326 247.845 351 229 351 c 0
 218.823 351 202.359 344.321 188.697 335.559 c 0
 177.909 328.64 168.746 320.174 167.52 318.719 c 1
 167.074 317.986 167 319.179 167 312 c 0
 167 68 l 0
 167 62.6954 167.885 59.5155 168.011 59.2868 c 1
 168.111 59.216 169.373 58.2882 173.661 57.9309 c 0
 222.437 53.8662 265 58.7519 265 14 c 0
 265 8.281 263.737 -26 231 -26 c 0
 223.056 -26 183.869 -20 130 -20 c 0
 74.0684 -20 36.0143 -26 28 -26 c 0
 6.33649 -26 -8 -7.8616 -8 11 c 0
 -8 54.8543 38.3535 51.827 52.393 55.4668 c 1
 54.0583 55.8237 54.6842 56.0134 54.8355 56.0557 c 1
 54.9818 57.7205 55 58.3543 55 60 c 0
 55 325 l 0
 55 327.065 54.8308 328.379 54.7949 328.591 c 1
 52.6877 331.003 37.9285 340.346 8.27761 361.796 c 0
 6.9856 362.73 l 1
 5.85786 363.858 l 0
 4.34437 365.371 -1.2339 371.473 -3.40285 380.149 c 0
 -4 382.538 l 1
 -4 385 l 0
 -4 412.817 18.3241 410.923 112.194 456.957 c 0
 113.401 457.549 l 1
 114.626 457.957 l 1
 114.902 458.066 119.771 462 130 462 c 0
 161.996 462 162 427.299 162 422 c 0
 162 411.95 l 1
EndSplineSet
EndChar

StartChar: s
Encoding: 115 115 84
Width: 338
GlyphClass: 2
Flags: HW
HStem: -19 54<106.18 240.638> 380 47<98.6701 211.868> 412 20G<244 256>
VStem: 26 41<71.0105 155.78> 31 54<283.553 367.539> 230 55<295.352 359.134> 262 67<56.0454 149.045>
LayerCount: 2
Fore
SplineSet
11 309 m 0
 11 381.912 76.2915 447 175 447 c 0
 199.79 447 216.976 443.525 223.425 442.359 c 1
 226.738 444.643 236.2 452 250 452 c 0
 281.295 452 285.231 418.825 285.666 416.652 c 1
 291.956 379.959 305 319.547 305 308 c 0
 305 288.319 289.383 278.099 279.573 274.81 c 0
 272.935 272.585 266.993 272 262 272 c 0
 221.504 272 215.912 326.25 213.7 329.41 c 1
 205.419 340.876 173.518 360 148 360 c 0
 121.146 360 105 344.677 105 327 c 0
 105 320.731 102.654 293.199 169.377 274.264 c 1
 216.684 261.278 271.499 257.623 314.137 208.072 c 1
 344.328 173.236 349 135.009 349 116 c 0
 349 41.0691 286.734 -39 177 -39 c 0
 127.759 -39 59.1128 -23.3997 23.9885 17.7805 c 1
 11.3755 31.6549 7 48.0827 7 65 c 0
 7 91.5409 6 110.096 6 125 c 0
 6 151.166 15.1368 176 44 176 c 0
 90.0942 176 84.9746 102.772 84.9746 102.772 c 1
 90.9498 90.2241 130.998 55 181 55 c 0
 218.942 55 242 76.2892 242 102 c 0
 242 146.943 177.588 156.215 136.565 167.753 c 1
 48.7655 192.683 11 250.477 11 309 c 0
EndSplineSet
EndChar

StartChar: t
Encoding: 116 116 85
Width: 333
GlyphClass: 2
Flags: HW
HStem: -19 65<156.838 241.254> 363 54<156.006 290.812>
VStem: 75 70<56.8354 362.954>
LayerCount: 2
Fore
SplineSet
40 345 m 2
 33.8143 345 0 346.02 0 378 c 0
 0 418.271 56.7217 429.887 106.8 515.207 c 1
 107.275 515.998 116.92 543 144 543 c 0
 158.739 543 177 530.29 177 507 c 0
 177 492.46 176 450.514 176 437 c 0
 266 437 l 0
 270.674 437 274.175 436.061 274.481 436 c 1
 281.305 435.993 320 434.987 320 397 c 0
 320 385.779 317.386 368.422 306.364 355.196 c 0
 305.784 354.499 l 1
 305.142 353.858 l 0
 295.409 344.125 282.674 343 273 343 c 0
 165.942 343 l 1
 164.992 164.74 165 144.025 165 120 c 0
 165 84.814 173.242 66 196 66 c 0
 231.442 66 259.479 126 305 126 c 0
 316.148 126 326.147 121.149 332.8 113.963 c 0
 339.388 106.849 343 97.6337 343 88 c 0
 343 71.8483 333.365 60.9927 332.641 59.906 c 0
 331.914 58.8158 l 1
 331.052 57.8299 l 0
 296.358 18.1806 243.824 -39 177 -39 c 0
 126.533 -39 63.7025 -1.17916 56.0673 101.352 c 1
 55.0008 113.085 55 124.133 55 135 c 0
 55 174.846 58.2111 303.831 58.8752 345 c 1
 40 345 l 2
EndSplineSet
EndChar

StartChar: u
Encoding: 117 117 86
Width: 505
GlyphClass: 2
Flags: HW
HStem: -14 21G<370 378> 377 38<7.08487 63.9033 277.108 356.564>
VStem: 64 68<95.1389 375.136> 358 71<69.1563 373.706>
LayerCount: 2
Fore
SplineSet
342.396 -1.92471 m 1
 316.009 -18.2021 274.778 -38 220 -38 c 0
 128.698 -38 60.2949 23.7719 47.1291 124.711 c 1
 44.9939 146.064 44 166.168 44 188 c 0
 44 220.178 45 333.261 45 349 c 0
 45 350.057 44.9799 351.169 44.9753 351.304 c 1
 42.9219 352.954 39.1937 355.23 31.0537 358.245 c 0
 30.4577 358.466 l 1
 29.8772 358.724 l 0
 25.5701 360.638 -13 362.933 -13 398 c 0
 -13 401 l 0
 -13 409.837 -7.85545 432.514 16.4026 434.94 c 1
 100.365 439.997 110.031 441 122 441 c 0
 144.192 441 152 419.659 152 409 c 0
 152 204 l 0
 152 173.954 152.434 140.853 167.831 110.059 c 1
 181.307 83.9504 212.75 54 256 54 c 0
 277.248 54 294.928 60.6883 309.09 69.8089 c 0
 315.643 74.0289 322.433 79.7691 326.43 83.7165 c 1
 334.822 93.1932 337.216 96.0413 337.912 97.0775 c 1
 337.977 97.9093 338 98.6039 338 100 c 0
 338 346 l 0
 338 349.425 337.602 351.587 337.458 352.142 c 1
 334.092 354.065 317.923 357.116 288.301 362.344 c 1
 273.269 365.35 257 377.48 257 398 c 0
 257 420.825 274.651 433.112 288.519 434.846 c 0
 289.45 434.962 l 1
 290.388 434.991 l 0
 388.417 437.993 399.773 439 414 439 c 0
 445.346 439 449 408.136 449 399 c 0
 449 91.1085 l 1
 456.795 87.7257 469.012 82.9283 487.25 74.2237 c 1
 499.684 68.8947 507 54.0717 507 44 c 0
 507 -5.10695 465.832 9.91289 397.321 -27.1501 c 1
 391.959 -30.5204 385.905 -34 376 -34 c 0
 352.275 -34 343.723 -12.4088 342.396 -1.92471 c 1
EndSplineSet
EndChar

StartChar: v
Encoding: 118 118 87
Width: 490
GlyphClass: 2
Flags: HW
HStem: -25 21G<252.5 264> 374 41<143.006 218.984 298.064 371.985>
VStem: 2 141<349.5 406> 372 113<351 401>
LayerCount: 2
Fore
SplineSet
278 396 m 2
 278 401 l 0
 278 412.58 285.942 435 310 435 c 0
 321.214 435 342.042 432 390 432 c 0
 437.503 432 459.275 435 470 435 c 0
 497.964 435 505 408.529 505 396 c 0
 505 347 447.133 355.459 447.133 355.459 c 1
 446.338 353.55 446.125 352.039 443.346 340.922 c 1
 390.405 148.513 312.567 -8.05556 293.876 -29.3888 c 1
 285.506 -39.0027 274.173 -45 260 -45 c 0
 230.596 -45 217.41 -18.632 209.448 -3.59194 c 1
 82.0745 222.301 40.7306 340.88 33.2203 350.711 c 1
 33.2203 350.711 -18 351.009 -18 402 c 0
 -18 417.911 -5.62387 435 14 435 c 0
 26.5615 435 52.2497 432 109 432 c 0
 166.763 432 192.446 435 205 435 c 0
 234.361 435 239 405.948 239 395 c 0
 239 346.982 181.004 356.868 166.476 354.304 c 0
 165.574 354.145 l 1
 164.661 354.069 l 0
 164.245 354.034 163.689 353.953 163.689 353.953 c 1
 170.647 327.054 212.915 215.282 269.666 113.911 c 1
 330.469 228.462 349.335 331.459 351.751 355.619 c 1
 344.52 357.083 330.324 357.57 311.426 359.062 c 0
 310.242 359.155 l 1
 309.078 359.388 l 0
 307.137 359.776 278 365.523 278 396 c 2
EndSplineSet
EndChar

StartChar: w
Encoding: 119 119 88
Width: 752
GlyphClass: 2
Flags: HW
HStem: -25 109<234.747 265.221 515.394 546.266> 376 39<394.084 474.998 565.092 643.881 697.814 749.859>
LayerCount: 2
Fore
SplineSet
377.642 170.499 m 1
 372.223 159.05 365.105 143.854 355.016 122.312 c 1
 288.234 -12.2519 288.409 -16.3389 277.678 -28.4632 c 1
 268.762 -38.8844 258.812 -45 244 -45 c 0
 219.49 -45 206.402 -25.5053 197.318 -8.34564 c 1
 92.0481 191.375 39.0326 339.416 32.5674 352.209 c 1
 32.5674 352.209 -14 350.46 -14 398 c 0
 -14 413.215 -2.66296 435 24 435 c 0
 34.4023 435 54.1461 432 98 432 c 0
 101 432 l 0
 143.562 432 162.801 435 173 435 c 0
 193.757 435 205 415.602 205 398 c 0
 205 351.829 150.563 357.349 144.673 356.919 c 1
 145.82 354.084 146.066 353.589 146.889 351.944 c 0
 147.341 351.039 l 1
 147.7 350.093 l 0
 178.456 269.01 214.475 188.766 251.82 114.836 c 1
 285.078 168.232 325.173 247.602 331.577 267.273 c 1
 325.959 283.181 300.008 336.364 297.223 341.112 c 1
 292.811 347.994 219 344.2 219 392 c 0
 219 407.031 225.654 435 255 435 c 0
 267.402 435 296.197 432 358 432 c 0
 419.8 432 448.602 435 461 435 c 0
 486.39 435 495 412.03 495 400 c 0
 495 394 l 0
 495 359.364 463.18 360.044 418.887 356.089 c 1
 417.078 355.908 414.775 355.36 414.076 355.117 c 1
 418.484 333.069 475.286 206.487 534.292 112.251 c 1
 599.409 230.661 622.735 341.263 624.029 354.665 c 1
 617.153 356.248 603.239 356.539 581.308 358.069 c 1
 566.331 359.567 545 370.713 545 398 c 0
 545 404.48 547.411 435 577 435 c 0
 588.461 435 608.011 431 655 431 c 0
 702.336 431 723.375 435 735 435 c 0
 757.837 435 770 415.055 770 398 c 0
 770 354.432 725.484 356.218 721.982 356.153 c 1
 705.06 351.257 728.122 293.318 565.66 -9.38741 c 1
 555.339 -28.9978 541.822 -45 520 -45 c 0
 481.149 -45 469.078 -3.34995 425.315 77.6587 c 1
 400.521 125.672 386.856 152.57 377.642 170.499 c 1
EndSplineSet
EndChar

StartChar: x
Encoding: 120 120 89
Width: 443
GlyphClass: 2
Flags: HW
HStem: -4 42<245.243 306.998 387.004 433.968> -4 30<119.588 175.827> 376 39<11.0516 62.125 150.007 201.163 344.166 422.852>
VStem: 181 68<202.618 231.317>
DStem2: 64 53 129 76 0.613452 0.789732<29.9269 185.508 264.054 389.539> 164 338 177 216 0.630781 -0.775961<-27.1583 95.9275 152.083 312.756>
LayerCount: 2
Fore
SplineSet
24 435 m 0
 34.991 435 57.2657 432 106 432 c 0
 155.76 432 178.013 435 189 435 c 0
 214.272 435 221 410.939 221 401 c 0
 221 399 l 0
 221 398.9 222 398.373 222 390 c 0
 222 360.123 190.925 358.32 174.765 356.774 c 1
 177.479 353.347 178.541 352.052 180.016 349.987 c 1
 202.306 321.548 219.817 298.501 224.146 292.791 c 1
 228.898 299.092 232.08 303.31 235.785 308.221 c 0
 253.342 331.493 264.55 346.364 271.377 355.825 c 0
 271.377 355.825 230 358.476 230 390 c 0
 230 405.322 234.131 435 263 435 c 0
 273.553 435 291.197 432 334 432 c 0
 337 432 l 0
 380.571 432 399.835 435 410 435 c 0
 435.476 435 443 411.207 443 400 c 0
 443 364.519 414.081 359.567 388.686 356.181 c 1
 364.144 352.796 365.197 350.998 349.298 332.117 c 1
 349.145 332.246 347.472 329.379 286.522 249.769 c 0
 280.133 241.425 275.318 235.111 272.564 231.449 c 1
 285.164 215.059 317.446 174.503 402.854 66.1943 c 1
 416.694 47.7409 405.701 56.0559 427.922 51.6116 c 0
 434.229 50.3503 454 41.6527 454 20 c 0
 454 13.2341 454.339 5.6404 450.844 -3.42956 c 0
 445.997 -16.0077 432.517 -24 419 -24 c 0
 406.929 -24 386.662 -20 338 -20 c 0
 289.338 -20 269.071 -24 257 -24 c 0
 227.411 -24 225 6.52018 225 13 c 0
 225 55.6213 273.652 53.7224 281.792 55.4338 c 1
 236.398 111.688 218.945 133.368 207.002 148.168 c 1
 196.153 133.602 178.671 109.501 144.983 63.9763 c 1
 141.76 59.7622 138.183 54.9431 137.904 54.5573 c 1
 147.746 53.0157 173.94 58.8804 189.852 38.1942 c 0
 190.265 37.6574 l 1
 190.641 37.094 l 0
 197.097 27.4094 196 18.6162 196 16 c 0
 196 4.50932 191.481 -24 163 -24 c 0
 151.268 -24 134.793 -20 91 -20 c 0
 48.7381 -20 31.301 -25 19 -25 c 0
 -14.2753 -25 -11 13.3201 -11 16 c 0
 -11 63.8294 42.75 57.8125 42.75 57.8125 c 1
 42.9406 57.9555 43.2773 58.703 48.0561 65.0748 c 1
 61.3289 82.4316 72.884 97.5045 83.2795 111.04 c 0
 119.055 157.621 139.246 183.573 150.488 198.274 c 0
 153.545 202.272 156.601 206.329 157.804 207.954 c 1
 20.7924 378.356 45.6016 353.322 26.294 356.183 c 1
 0.172919 359.447 -9 381.445 -9 398 c 0
 -9 423.823 11.3811 435 24 435 c 0
EndSplineSet
EndChar

StartChar: y
Encoding: 121 121 90
Width: 468
GlyphClass: 2
Flags: HW
HStem: -223 21G<81 106.5> 376 39<136.006 187.914 277.065 343.956 405.081 462.995>
LayerCount: 2
Fore
SplineSet
92 -243 m 0
 60.3355 -243 33 -219.226 33 -187 c 0
 33 -129.949 99.3712 -111.848 127.345 -85.3865 c 1
 150.542 -63.9736 188 -0.772828 188 15 c 0
 188 25.4912 160.923 90.4318 79.2155 253.848 c 1
 62.8521 284.756 30.9183 344.023 25.4982 353.612 c 1
 25.4982 353.612 -16 350.74 -16 398 c 0
 -16 411.786 -7.23884 435 18 435 c 0
 28.3526 435 49.0059 432 96 432 c 0
 142.494 432 164.249 435 175 435 c 0
 202.077 435 208 408.91 208 399 c 0
 208 364.52 179.505 358.544 158.088 356.586 c 1
 167.852 326.943 201.667 243.244 251.489 146.707 c 1
 298.402 259.262 324 332.13 324 355 c 0
 324 355.603 323.992 355.771 323.992 355.771 c 1
 318.556 356.611 308.386 356.791 293.99 358.1 c 1
 282.325 359.396 257 367.931 257 397 c 0
 257 418.701 274.586 435 296 435 c 0
 306.353 435 327.006 432 374 432 c 0
 375 432 l 0
 420.558 432 441.011 435 451 435 c 0
 482.461 435 483 401.65 483 395 c 0
 483 361.226 451.009 359.22 426.655 356.176 c 1
 426.556 356.162 426.575 356.165 426.377 356.136 c 1
 420.201 343.491 407.533 300.852 363.52 191.45 c 1
 318.313 81.943 257.072 -58.92 182.745 -171.937 c 1
 159.337 -208.024 133.985 -243 92 -243 c 0
EndSplineSet
EndChar

StartChar: z
Encoding: 122 122 91
Width: 361
GlyphClass: 2
Flags: HW
HStem: 0 65<106.006 290.69> 355 62<83.8823 234.993>
VStem: 39 35<294.02 354.03> 291 47<-92.6147 -3.0012e-08> 309 41<65.8229 140.75>
LayerCount: 2
Fore
SplineSet
65 474 m 2
 71 474 l 0
 101.819 474 103.765 441.068 104.204 437 c 1
 317 437 l 0
 330.64 437 359 430.671 359 402 c 0
 359 386.162 350.889 379.056 350.889 379.056 c 0
 350.122 377.523 l 1
 349.106 376.143 l 0
 207.469 183.738 153.952 112.327 134.349 85 c 1
 267 85 l 0
 272.877 85 278.254 84.3362 280.661 84.1069 c 1
 282.669 91.337 284.899 106.026 289.374 128.848 c 0
 289.621 130.107 l 1
 289.955 131.109 l 1
 290.589 133.39 297.323 161 326 161 c 0
 332.223 161 370 158.984 370 124 c 0
 370 112.126 357 60.9855 357 -19 c 0
 357 -50.8321 358 -65.5285 358 -73 c 0
 358 -80.7054 356.23 -89.1898 350.99 -96.4131 c 0
 339.945 -111.639 322.288 -113 308 -113 c 0
 298.029 -113 287.067 -109.959 279.65 -101.471 c 0
 271.622 -92.2848 271 -81.8973 271 -75 c 0
 271 -20 l 1
 42 -20 l 0
 22.9118 -20 7.20333 -13.3219 -1.21433 -0.636694 c 0
 -6.96695 8.03238 -8 16.877 -8 23 c 0
 -8 43.7214 4.36615 57.7218 8.04003 63.6 c 0
 8.46237 64.2757 l 1
 209.291 335 l 1
 100.217 335 l 1
 98.4821 328.346 96.6988 319.417 93.4878 305.503 c 0
 93.2742 304.577 l 1
 93.0454 303.891 l 1
 92.4112 301.61 85.6775 274 57 274 c 0
 51.2315 274 45.0608 275.016 37.8006 278.552 c 0
 30.4775 282.119 19 291.298 19 307 c 0
 19 318.577 29 350.979 29 409 c 0
 29 439 l 0
 29 464.84 52.037 474 65 474 c 2
EndSplineSet
EndChar

StartChar: braceleft
Encoding: 123 123 92
Width: 251
GlyphClass: 2
Flags: HW
HStem: 700 20G<162.5 189>
VStem: 45 77<240.115 270.308> 73 64<-147.001 59.8049 494.524 665.89> 105 60<24.5381 215.922 297.492 513.796>
LayerCount: 2
Fore
SplineSet
25 256 m 0
 25 305.016 84 272.042 84 359 c 0
 84 431.118 57 500.362 57 586 c 0
 57 701.712 131.45 740 184 740 c 0
 184 740 228 750.625 228 715 c 0
 228 678.714 181.434 684.637 166.919 643.51 c 1
 162.811 631.187 161 618.241 161 604 c 0
 161 552.4 188 492.794 188 411 c 0
 188 328.242 155.096 274.192 143.94 254.271 c 1
 155.926 235.35 185 192.702 185 120 c 0
 185 49.284 157 -12.8938 157 -70 c 0
 157 -159.812 221 -156.131 221 -195 c 0
 221 -224.343 187.342 -218 185 -218 c 0
 130.28 -218 53 -177.633 53 -57 c 0
 53 25.6058 85 90.751 85 148 c 0
 85 220.111 43.26 228.456 31.8579 239.858 c 0
 31.4926 240.223 25 253.097 25 256 c 0
EndSplineSet
EndChar

StartChar: bar
Encoding: 124 124 93
Width: 153
GlyphClass: 2
Flags: HW
HStem: 698 20G<68.5 86.5>
VStem: 50 53<-197.934 717.913>
LayerCount: 2
Fore
SplineSet
77 -218 m 2
 73 -218 l 0
 67.6221 -218 30 -218.948 30 -185 c 0
 30 705 l 0
 30 739.126 67.9701 738 74 738 c 0
 76 738 l 0
 95.1998 738 123 732.684 123 705 c 0
 123 -185 l 0
 123 -207.207 101.622 -218 77 -218 c 2
EndSplineSet
EndChar

StartChar: braceright
Encoding: 125 125 94
Width: 251
GlyphClass: 2
Flags: HW
HStem: 700 20G<65.5 91.5>
VStem: 89 60<24.5381 215.905 296.882 513.796> 117 64<-147.001 59.8049 494.524 666.135> 132 77<240.03 269.121>
LayerCount: 2
Fore
SplineSet
197 586 m 0
 197 500.364 170 431.116 170 359 c 0
 170 283.713 207.595 284.304 220 275 c 0
 221.137 274.147 l 1
 222.142 273.142 l 0
 222.507 272.777 229 259.903 229 257 c 0
 229 246.471 221.11 237.696 211.83 232.902 c 1
 188.838 219.905 169 192.676 169 148 c 0
 169 90.7509 201 25.6059 201 -57 c 0
 201 -177.609 123.727 -218 69 -218 c 0
 66.6578 -218 33 -224.343 33 -195 c 0
 33 -152.823 97 -162.424 97 -70 c 0
 97 -12.8957 69 49.2859 69 120 c 0
 69 194.41 99.5608 237.953 110.238 254.659 c 1
 75.979 309.214 66 364.332 66 411 c 0
 66 492.788 93 552.407 93 604 c 0
 93 690.709 26 669.24 26 715 c 0
 26 750.943 70 740 70 740 c 0
 122.55 740 197 701.713 197 586 c 0
EndSplineSet
EndChar

StartChar: asciitilde
Encoding: 126 126 95
Width: 451
GlyphClass: 2
Flags: HW
HStem: 183 71<236.303 342.652> 242 70<92.9183 188.615>
LayerCount: 2
Fore
SplineSet
40 153 m 0
 16.066 153 4 176.997 4 193 c 0
 4 214.365 43.9469 269.716 68.6595 294.948 c 1
 85.7563 312.997 112.624 332 149 332 c 0
 222.373 332 254.374 274 299 274 c 0
 345.873 274 362.813 317.886 387.667 331.694 c 1
 390.161 332.941 394.249 336 403 336 c 0
 412.672 336 447 329.171 447 298 c 0
 447 275.256 374.219 163 277 163 c 0
 195.489 163 169.789 222 133 222 c 0
 108.831 222 89.0448 205.752 64.2839 167.891 c 1
 61.3763 162.773 54.0008 153 40 153 c 0
EndSplineSet
EndChar

StartChar: exclamdown
Encoding: 161 161 97
Width: 325
GlyphClass: 2
Flags: HW
HStem: -16 21G<127.5 134.5> 572 102<117.887 201.265>
VStem: 108 103<582.181 664.265> 122 95<20.366 289.904> 166 33<367.851 461.971>
LayerCount: 2
Fore
SplineSet
132 -36 m 0
 101.825 -36 102 -2.99825 102 9 c 0
 102 32 l 0
 102 248.944 139.792 427.074 146.889 451.912 c 1
 149.313 459.185 157.559 482 183 482 c 0
 220.096 482 219 439.566 219 429 c 0
 219 416.224 l 1
 224 193.196 237 50.5732 237 46 c 0
 237 36.4559 234.866 26.8643 229.131 19.0909 c 0
 224.201 12.4098 217.956 8.61721 212.944 6.11146 c 1
 212.587 6.827 150.064 -36 132 -36 c 0
160 552 m 0
 121.282 552 88 583.391 88 623 c 0
 88 660.67 118.499 694 159 694 c 0
 195.943 694 231 665.076 231 623 c 0
 231 580.359 196.949 552 160 552 c 0
EndSplineSet
EndChar

StartChar: dieresis
Encoding: 168 168 98
Width: 255
GlyphClass: 2
Flags: HW
HStem: 571 94<20.332 99.9316 155.332 234.932>
VStem: 12 96<579.068 656.984> 147 96<579.068 656.984>
LayerCount: 2
Fore
SplineSet
127 618 m 0
 127 655.959 159.447 685 195 685 c 0
 232.507 685 263 655.557 263 619 c 0
 263 580.734 231.823 551 195 551 c 0
 158.752 551 127 579.334 127 618 c 0
-8 618 m 0
 -8 655.959 24.4471 685 60 685 c 0
 97.507 685 128 655.557 128 619 c 0
 128 580.734 96.8231 551 60 551 c 0
 23.752 551 -8 579.334 -8 618 c 0
EndSplineSet
EndChar

StartChar: copyright
Encoding: 169 169 99
Width: 772
GlyphClass: 2
Flags: HW
HStem: -24 51<278.469 494.439> 88 38<321.097 470.988> 520 34<316.956 457.544> 637 52<275.379 496.213>
VStem: 30 51<221.604 443.858> 151 66<234.315 415.614> 559 25<222.277 259.891> 691 51<218.952 443.657>
LayerCount: 2
Fore
SplineSet
386 47 m 0
 537.387 47 671 168.439 671 333 c 0
 671 484.265 548.659 617 385 617 c 0
 225.277 617 101 487.224 101 332 c 0
 101 171.341 232.783 47 386 47 c 0
10 332 m 0
 10 535.733 173.66 709 386 709 c 0
 596.271 709 762 536.844 762 332 c 0
 762 130.308 600.34 -44 385 -44 c 0
 182.169 -44 10 119.76 10 332 c 0
550 364 m 0
 500.959 364 508.352 433.972 499.343 445.553 c 1
 476.653 473.481 436.747 500 386 500 c 0
 381.28 500 376.548 499.749 371.826 499.251 c 0
 303.672 492.061 237 433.564 237 332 c 0
 237 224.619 310.319 146 395 146 c 0
 407.221 146 419.606 147.659 431.757 150.908 c 0
 479.495 163.674 522.903 200.689 539.884 255.882 c 0
 540.197 256.899 l 1
 540.617 257.878 l 0
 546.788 272.277 560.22 280 573 280 c 0
 588.964 280 604 267.236 604 250 c 0
 604 248.326 l 1
 603.722 246.675 l 0
 603.722 246.675 589.789 163.171 588.94 150.429 c 1
 588.307 143.471 587.439 134.642 580.189 126.011 c 0
 572.533 116.897 561.031 114 551 114 c 0
 533 114 l 0
 531.378 114 530.006 113.911 530.006 113.911 c 1
 527.313 112.077 522.156 108.208 513.91 103.626 c 1
 490.933 90.177 466.553 80.8196 443.651 75.2295 c 0
 423.018 70.1932 403.15 68 385 68 c 0
 242.915 68 131 182.977 131 320 c 0
 131 448.385 229.412 557.481 358.128 572.293 c 0
 367.926 573.42 377.896 574 388 574 c 0
 450.394 574 487.772 555.616 505.942 545.986 c 1
 511.287 554.98 522.687 564 538 564 c 0
 547.146 564 565.273 557.469 569.524 538.339 c 0
 569.683 537.622 l 1
 569.789 536.896 l 0
 581.828 454.62 587 420.49 587 401 c 0
 587 387.752 578.006 364 550 364 c 0
EndSplineSet
EndChar

StartChar: guillemotleft
Encoding: 171 171 100
Width: 365
GlyphClass: 2
Flags: HW
HStem: 52 282<180 192 320 333>
VStem: 22 80<171.745 215.713> 163 79<171.745 215.713>
LayerCount: 2
Fore
SplineSet
185 354 m 0
 208.883 354 222 331.866 222 315 c 0
 222 294.112 213.186 292.451 125.127 193.532 c 1
 134.057 182.448 159.547 153.225 211.126 93.2478 c 1
 217.374 86.2573 221 82.0609 221 71 c 0
 221 52.9803 207.039 32 184 32 c 0
 169.539 32 164.484 39.145 136.435 63.3292 c 0
 115.142 81.6883 76.8036 115.125 15.7164 168.178 c 1
 10.4124 172.068 2 179.473 2 193 c 0
 2 209.496 14.4653 217.75 14.8579 218.142 c 0
 15.4086 218.693 l 1
 16.0007 219.199 l 0
 165.715 347.243 162.797 354 185 354 c 0
157.488 219.616 m 0
 307.013 347.498 303.135 354 326 354 c 0
 349.883 354 363 331.866 363 315 c 0
 363 293.962 354.526 292.832 265.764 193.123 c 1
 275.758 181.021 301.594 151.483 350.922 93.5007 c 1
 358.765 86.7512 361 77.4927 361 71 c 0
 361 54.5891 349.149 32 325 32 c 0
 309.118 32 304.944 39.118 268.795 70.5748 c 0
 246.712 89.7913 210.772 121.229 156.717 168.178 c 1
 151.412 172.068 143 179.473 143 193 c 0
 143 207.632 152.804 216.103 157.488 219.616 c 0
EndSplineSet
EndChar

StartChar: logicalnot
Encoding: 172 172 101
Width: 701
GlyphClass: 2
Flags: HW
HStem: 231 57<53 592>
VStem: 592 57<41.0781 231>
LayerCount: 2
Fore
SplineSet
76 211 m 2
 67.1836 211 55.4638 211.569 45.3757 220.483 c 0
 35.4065 229.293 33 241.831 33 253 c 0
 33 266 l 0
 33 278.494 36.7394 290.818 46.1846 298.848 c 0
 57.8778 308.789 70.8514 308 77 308 c 0
 641 308 l 0
 660.012 308 669 288.589 669 279 c 0
 669 61 l 0
 669 53.4907 668.883 42.5576 660.397 32.7682 c 0
 652.003 23.0855 640.051 21 630 21 c 0
 616 21 l 0
 603.979 21 592.037 24.1166 583.493 32.7865 c 0
 572.288 44.1562 572 58.1925 572 67 c 0
 572 211 l 1
 76 211 l 2
EndSplineSet
EndChar

StartChar: registered
Encoding: 174 174 102
Width: 519
GlyphClass: 2
Flags: HW
HStem: 335 37<185.27 334.574> 419 27<146.018 178 349.745 384.28> 542 18<216.119 253.266> 657 19<142.608 175.333 213.002 267.187> 719 36<185.27 332.161>
VStem: 50 35<471.505 618.161> 178 36<445.157 542 560 650 651 652.047> 291 37<568.344 643.871> 433 36<471.505 618.161>
DStem2: 286 548 252 537 0.587113 -0.809505<0 131.605>
LayerCount: 2
Fore
SplineSet
242 696 m 0
 317.877 696 348 647.618 348 610 c 0
 348 578.097 329.551 555.511 315.844 543.691 c 1
 335.33 519.745 346.344 502.148 360.993 478.547 c 0
 361.289 478.07 l 1
 361.558 477.577 l 0
 363.479 474.056 366.301 470.35 368.344 468.253 c 1
 376.281 473.281 379.543 474 386 474 c 0
 400.902 474 412 462.886 412 447 c 0
 412 429.999 393.53 399 358 399 c 0
 331.41 399 312.905 417.963 301.531 434.643 c 1
 238.173 522 l 1
 236 522 l 1
 236 464.935 l 1
 242.772 464.56 278 464.487 278 432 c 0
 278 416.036 265.236 401 248 401 c 0
 238.55 401 229.558 403 202 403 c 0
 174.225 403 163.676 401 156 401 c 0
 132.395 401 126 423.819 126 433 c 0
 126 456.437 150.584 462.287 158 463.395 c 1
 158 632.154 l 1
 154.551 632.759 148.885 633.814 147.361 634.122 c 1
 134.315 635.511 122 646.128 122 662 c 0
 122 674.044 132.457 691 150 691 c 0
 162 691 l 0
 191.863 691 215.053 696 242 696 c 0
271 604 m 0
 271 621.283 259.463 637 234 637 c 0
 234 580 l 1
 274.886 580 271 593.664 271 604 c 0
258 392 m 0
 343.063 392 413 462.366 413 544 c 0
 413 628.904 342.904 699 258 699 c 0
 176.255 699 105 628.908 105 544 c 0
 105 462.363 176.097 392 258 392 c 0
258 315 m 0
 131.752 315 30 419.074 30 544 c 0
 30 671.795 131.75 775 258 775 c 0
 386.011 775 489 672.011 489 544 c 0
 489 418.857 386.008 315 258 315 c 0
EndSplineSet
EndChar

StartChar: degree
Encoding: 176 176 103
Width: 212
GlyphClass: 2
Flags: HW
HStem: 496 38<67.3347 146.833> 653 37<67.5418 145.575>
VStem: 12 40<548.199 639.382> 162 38<548.7 637.058>
LayerCount: 2
Fore
SplineSet
106 710 m 0
 170.905 710 220 655.24 220 593 c 0
 220 529.533 169.687 476 106 476 c 0
 43.5319 476 -8 528.308 -8 593 c 0
 -8 657.692 43.532 710 106 710 c 0
106 633 m 0
 87.7917 633 72 616.895 72 594 c 0
 72 570.346 88.6005 554 107 554 c 0
 126.847 554 142 571.815 142 593 c 0
 142 614.617 125.091 633 106 633 c 0
EndSplineSet
EndChar

StartChar: plusminus
Encoding: 177 177 104
Width: 701
GlyphClass: 2
Flags: HW
HStem: -12 57<53 648.948> 280 58<53 322 379 648.948>
VStem: 322 57<71 280 338 546.977>
LayerCount: 2
Fore
SplineSet
76 260 m 2
 66.4209 260 54.2531 261.278 44.4795 270.698 c 0
 35.4356 279.414 33 291.272 33 302 c 0
 33 316 l 0
 33 327.975 36.6662 339.689 45.27 347.618 c 0
 56.6518 358.107 69.958 358 77 358 c 0
 302 358 l 1
 302 531 l 0
 302 539.72 304.253 549.935 312.023 557.398 c 0
 322.525 567.484 334.749 567 342 567 c 0
 356 567 l 0
 368.474 567 382.048 564.578 391.027 553.387 c 0
 398.867 543.616 399 533.066 399 526 c 0
 399 358 l 1
 629 358 l 0
 636.602 358 646.739 357.123 655.819 349.766 c 0
 665.823 341.66 669 329.267 669 318 c 0
 669 304 l 0
 669 290.84 665.209 278.015 655.373 269.619 c 0
 643.019 259.074 629.127 260 622 260 c 0
 399 260 l 1
 399 89 l 0
 399 79.5588 396.945 68.6088 388.452 60.553 c 0
 377.786 50.4356 365.415 51 358 51 c 0
 344 51 l 0
 331.567 51 317.294 53.3545 308.538 65.6612 c 0
 302.15 74.6408 302 83.729 302 90 c 0
 302 260 l 1
 76 260 l 2
76 -32 m 2
 68.0554 -32 56.6389 -31.8933 46.2683 -23.3488 c 0
 35.8542 -14.7686 33 -1.86248 33 10 c 0
 33 23 l 0
 33 35.4938 36.7395 47.8174 46.1846 55.8479 c 0
 57.8776 65.7895 70.8515 65 77 65 c 0
 629 65 l 0
 636.265 65 646.909 64.7025 656.573 56.6465 c 0
 666.201 48.6203 669 36.6339 669 26 c 0
 669 12 l 0
 669 -1.1597 665.209 -13.9852 655.373 -22.3809 c 0
 643.019 -32.9259 629.127 -32 622 -32 c 0
 76 -32 l 2
EndSplineSet
EndChar

StartChar: acute
Encoding: 180 180 105
Width: 227
GlyphClass: 2
Flags: HW
HStem: 474 227
VStem: 15 197
LayerCount: 2
Fore
SplineSet
175 721 m 0
 205.235 721 232 697.426 232 664 c 0
 232 636.943 215.614 619.346 202.477 605.198 c 1
 155.203 556.897 70.4008 470.508 61.2498 463.187 c 1
 53.7356 457.552 44.6869 454 34 454 c 0
 23.9558 454 14.634 457.871 7.96947 463.98 c 0
 -0.82723 472.044 -5 483.109 -5 494 c 0
 -5 518.98 2.0774 520.633 103.308 670.019 c 1
 110.904 681.836 132.354 721 175 721 c 0
EndSplineSet
EndChar

StartChar: paragraph
Encoding: 182 182 106
Width: 750
GlyphClass: 2
Flags: HW
HStem: -204 53<606.812 684.35> -18 36<300.806 410.564> 679 31<341.197 437.5> 694 39<593.204 669.63>
VStem: 26 172<173.297 423.162> 365 26<175.738 468.644> 444 37<128.563 491.261> 670 54<640.104 693.031>
LayerCount: 2
Fore
SplineSet
424 315 m 0
 424 482.149 468.12 585.042 476.556 608.204 c 1
 475.314 611.904 472.294 617.85 469.97 621.642 c 1
 432.053 539.748 411 445.296 411 323 c 0
 411 233.418 429.435 133.012 443.286 86.9297 c 1
 445.73 90.8864 445.965 91.3867 447.192 93.6613 c 1
 438.607 141.269 424 226.867 424 315 c 0
414.351 656.735 m 1
 406.46 658.407 399.844 659 396 659 c 0
 326.68 659 270.924 569.529 244.949 493.6 c 1
 226.759 439.031 218 379.996 218 321 c 0
 218 320 l 0
 218 147.116 283.708 38 359 38 c 0
 367.46 38 382.565 41.3909 389.501 44.3386 c 1
 378.281 76.1957 345 168.29 345 313 c 0
 345 503.344 396.318 616.691 414.351 656.735 c 1
627 633 m 0
 627 656.767 645.736 670.022 648.551 673.151 c 1
 646.822 673.684 645.167 674 642 674 c 0
 628.09 674 613.659 667.7 600.145 657.169 c 0
 581.923 642.97 567.182 622.12 560.972 609.224 c 1
 510.763 507.838 501 408.593 501 321 c 0
 501 317.051 l 1
 501.983 128.636 551.978 -18.0674 590.677 -77.9572 c 1
 608.029 -103.529 633.614 -128.887 641.866 -133.602 c 1
 641.866 -133.602 705 -128.011 705 -177 c 0
 705 -210.256 671.398 -224 647 -224 c 0
 643 -224 l 0
 628.033 -224 602.172 -219.343 571.142 -189.421 c 1
 542.974 -162.378 526.289 -129.292 510.291 -99.2964 c 1
 485.529 -51.3689 476.292 -27.0844 466.394 6.35971 c 1
 439.51 -14.9865 403.606 -32.4084 329.222 -36.9626 c 0
 328.612 -37 l 1
 328 -37 l 0
 323.025 -37 317.025 -38 308 -38 c 0
 126.059 -38 6 113.561 6 295 c 0
 6 547.417 209.526 730 390 730 c 0
 461.615 730 504.468 698.751 523.857 682.255 c 1
 534.417 695.029 549.28 710.974 577.561 728.06 c 1
 600.34 742.161 627.116 753 657 753 c 0
 714.403 753 744 709.98 744 673 c 0
 744 624.209 702.664 592 670 592 c 0
 649.828 592 627 606.675 627 633 c 0
EndSplineSet
EndChar

StartChar: periodcentered
Encoding: 183 183 107
Width: 227
GlyphClass: 2
Flags: HW
HStem: 201 117<67.9846 158.932>
VStem: 54 119<214.578 303.753>
LayerCount: 2
Fore
SplineSet
113 338 m 0
 155.562 338 193 303.691 193 259 c 0
 193 217.159 159.151 181 114 181 c 0
 73.1135 181 34 212.901 34 260 c 0
 34 306.981 72.2755 338 113 338 c 0
EndSplineSet
EndChar

StartChar: cedilla
Encoding: 184 184 108
Width: 199
GlyphClass: 2
Flags: HW
HStem: -199 36<27.665 118.434>
VStem: 46 47<-77.5 -20.3329> 122 61<-160.177 -95.2734>
LayerCount: 2
Fore
SplineSet
101 -219 m 0
 65.838 -219 25.0707 -214.069 9.5061 -201.617 c 0
 8.6411 -200.925 l 1
 7.85786 -200.142 l 0
 3.24083 -195.525 -1 -187.11 -1 -179 c 0
 -1 -179 -4.11737 -135 33 -135 c 0
 43.9906 -135 66.8321 -143 84 -143 c 0
 99.0408 -143 102 -137.363 102 -130 c 0
 102 -120.368 87.2275 -101.969 50.2369 -98.9979 c 1
 50.2369 -98.9979 26 -99.7253 26 -76 c 0
 26 -59.5461 47.613 -16.5777 59.4782 12.5459 c 0
 64.552 25 l 1
 136.204 25 l 1
 128.09 -0.9655 l 0
 125.745 -8.46713 122.245 -19.0032 119.115 -28.4002 c 1
 166.596 -35.382 203 -68.935 203 -123 c 0
 203 -162.749 179.743 -219 101 -219 c 0
EndSplineSet
EndChar

StartChar: guillemotright
Encoding: 187 187 109
Width: 365
GlyphClass: 2
Flags: HW
HStem: 52 282<32 45 174 186>
VStem: 123 79<171.321 215.498> 263 79<171.129 215.713>
LayerCount: 2
Fore
SplineSet
347.235 167.257 m 1
 198.7 37.4127 202.75 32 180 32 c 0
 160.349 32 144 49.3251 144 70 c 0
 144 91.0425 154.577 93.583 240.414 192.922 c 1
 149.446 295.067 142 292.223 142 315 c 0
 142 335.667 158.93 354 180 354 c 0
 202.955 354 198.968 346.704 348.486 219.636 c 1
 354.418 215.186 362 204.527 362 193 c 0
 362 181.159 356.461 171.87 347.235 167.257 c 1
208.599 168.449 m 0
 60.0661 38.6045 62.7485 32 40 32 c 0
 18.1381 32 4 51.3104 4 70 c 0
 4 90.9191 14.4024 95.1966 99.3649 194.004 c 1
 10.1755 292.681 l 1
 9.35899 293.906 l 0
 7.60884 296.531 2 303.92 2 315 c 0
 2 335.667 18.93 354 40 354 c 0
 63.2274 354 65.0506 341.584 206.13 219.949 c 1
 215.987 212.709 222 204.632 222 193 c 0
 222 180.422 214.566 172.925 208.599 168.449 c 0
EndSplineSet
EndChar

StartChar: questiondown
Encoding: 191 191 110
Width: 380
GlyphClass: 2
Flags: HW
HStem: -16 38<137.806 231.719> -7 103<256.943 320.057> 572 118<147.34 238.609>
VStem: 15 85<60.8065 202.07> 133 120<586.247 675.996> 181 52<345.138 480.296>
LayerCount: 2
Fore
SplineSet
193 552 m 0
 150.438 552 113 586.309 113 631 c 0
 113 672.98 147.722 710 193 710 c 0
 234.357 710 273 676.779 273 630 c 0
 273 582.586 233.402 552 193 552 c 0
192 -36 m 0
 52.9532 -36 -5 61.674 -5 131 c 0
 -5 276.567 161 301.365 161 423 c 0
 161 430.38 160 435.882 160 445 c 0
 160 481.113 183.996 501 206 501 c 0
 232.208 501 253 476.518 253 426 c 0
 253 279.944 120 223.834 120 126 c 0
 120 76.7824 152.166 42 187 42 c 0
 231.525 42 219.903 116 295 116 c 0
 331.017 116 357 85.8628 357 52 c 0
 357 34.0091 347.492 -11.5736 277.333 -26.5256 c 1
 250.071 -32.8168 220.374 -36 192 -36 c 0
EndSplineSet
EndChar

StartChar: AE
Encoding: 198 198 117
Width: 1010
GlyphClass: 2
Flags: HMW
HStem: -6 45<-3.94116 79.1425 181.881 269.971> 0 62<607.348 730.546> 0 55<639.454 874.356> 300 52<322.58 517> 369 58<608.877 817.602> 638 54<609.095 872.107>
VStem: 517 89<65 300 352 366.058 427 630.512> 819 54<271.329 368.925 428.417 512.682> 909 44<525.207 582.383>
LayerCount: 2
Back
SplineSet
508 352 m 6x3980
 512 352 517 354 517 361 c 6
 517 619 l 5
 516 627 512 631 507 631 c 4
 503 631 499 629 496 626 c 4
 452 581 321 366 321 356 c 4
 321 352 326 352 330 352 c 6
 508 352 l 6x3980
308 675 m 4
 308 680 311 701 322 701 c 4xb380
 331 701 359 697 459 693 c 4x3980
 510 691 903 693 912 691 c 4
 921 688 923 682 924 675 c 4
 931 631 953 548 953 544 c 4
 953 533 940 525 928 525 c 4
 920 525 913 528 909 535 c 4
 902 547 869 618 862 629 c 4
 856 638 849 638 830 638 c 6
 639 638 l 6
 608 638 608 618 608 596 c 6
 608 449 l 6
 608 439 609 427 628 427 c 6
 781 427 l 6
 817 427 819 440 819 473 c 6
 819 491 l 6
 819 501 822 513 846 513 c 4
 872 513 873 495 873 484 c 6
 873 300 l 6
 873 289 872 271 846 271 c 4
 820 271 819 284 819 293 c 6
 819 332 l 6
 819 363 816 369 793 369 c 6
 655 369 l 6
 631 369 606 367 606 329 c 6
 606 108 l 6
 606 78 607 66 638 62 c 4
 669 57 701 55 732 55 c 4
 802 55 862 66 875 76 c 4
 893 90 928 173 944 183 c 4
 947 185 951 186 954 186 c 4
 963 186 972 178 972 163 c 4
 972 156 970 148 941 20 c 4
 937 0 926 0 906 0 c 6
 571 0 l 6x7580
 462 0 448 -6 434 -6 c 4
 423 -6 417 5 417 15 c 4
 417 60 495 25 513 65 c 4
 517 73 517 83 517 94 c 6
 517 291 l 5
 516 299 510 300 506 300 c 6
 340 300 l 6
 287 300 289 299 283 289 c 4
 226 200 180 91 180 72 c 4
 180 44 206 46 252 39 c 4
 260 38 270 35 270 16 c 4
 270 7 267 -6 253 -6 c 4xb180
 249 -6 196 0 132 0 c 4x7180
 67 0 16 -6 12 -6 c 4
 1 -6 -4 5 -4 15 c 4
 -4 24 -1 33 7 36 c 4
 22 41 56 41 77 59 c 4
 100 79 117 140 253 360 c 4
 389 580 425 609 425 625 c 4
 425 643 399 642 328 653 c 4xb380
 312 655 308 665 308 675 c 4
EndSplineSet
Fore
SplineSet
497 372 m 1
 497 596.415 l 1
 456.486 544.573 383.673 425.959 353.408 372 c 1
 497 372 l 1
288 675 m 0
 288 675.508 285.394 721 322 721 c 0
 334.51 721 359.451 716.999 459.799 712.984 c 0
 483.575 712.033 595.207 712 701 712 c 0
 808.736 712 903.204 713.155 915.922 710.612 c 0
 917.143 710.367 l 1
 918.325 709.974 l 0
 936.468 703.926 942.499 686.928 943.777 677.983 c 1
 950.768 634.036 973 557.93 973 544 c 0
 973 516.023 945.541 505 928 505 c 0
 915.08 505 899.834 510.73 891.678 525.002 c 1
 884.191 537.838 860.647 594.693 849.737 618 c 1
 639 618 l 0
 631.959 618 629.914 616.571 629.914 616.571 c 1
 629.423 615.806 628 608.718 628 596 c 0
 628 449 l 0
 628 448.274 628.018 447.199 628.023 447 c 1
 781 447 l 0
 791.614 447 796.493 448.735 797.038 449.02 c 1
 797.786 450.66 799 458.698 799 473 c 0
 799 491 l 0
 799 496.889 799.513 506.117 805.609 515.225 c 0
 813.986 527.742 829.137 533 846 533 c 0
 859.991 533 872.707 528.749 881.264 519.706 c 0
 893.713 506.548 893 490.626 893 484 c 0
 893 300 l 0
 893 293.489 893.662 278.503 882.351 265.493 c 0
 873.865 255.733 860.65 251 846 251 c 0
 828.814 251 813.528 256.085 805.211 268.781 c 0
 798.69 278.736 799 288.486 799 293 c 0
 799 332 l 0
 799 339.858 798.685 345.621 798.268 348.824 c 1
 796.342 348.969 795.172 349 793 349 c 0
 655 349 l 0
 630.83 349 626 350.612 626 329 c 0
 626 108 l 0
 626 93.0737 627.424 85.8124 627.738 85.1765 c 1
 628.291 84.7705 631.308 83.0292 640.873 81.7952 c 1
 671.288 76.8895 701.657 75 732 75 c 0
 797.177 75 854.725 87.1964 862.838 91.8928 c 1
 874.93 103.442 905.505 182.526 933.151 199.804 c 1
 939.737 204.195 947.05 206 954 206 c 0
 976.1 206 992 186.212 992 163 c 0
 992 150.05 989.505 143.587 960.562 15.8282 c 1
 958.68 6.41915 954.457 -3.82923 945.966 -10.7106 c 0
 932.153 -21.9041 917.104 -20 906 -20 c 0
 434 -20 l 0
 415.639 -20 397 -6.73203 397 15 c 0
 397 73.0464 497 70.5082 497 70.5082 c 1
 497 280 l 1
 340 280 l 0
 318.177 280 305.643 279.639 300.362 279.063 c 1
 299.847 278.206 300.381 279.056 299.842 278.214 c 0
 245.963 194.089 201.79 86.5339 200.001 71.7387 c 1
 200.042 69.5772 200.252 68.9614 200.348 68.627 c 1
 203.196 66.5972 222.981 63.6462 254.745 58.8125 c 1
 258.874 58.2963 267.221 56.9878 274.933 51.151 c 0
 285.216 43.3686 290 30.2283 290 16 c 0
 290 5.89491 285.157 -26 253 -26 c 0
 244.94 -26 195.844 -20 132 -20 c 0
 67.5005 -20 19.6216 -26 12 -26 c 0
 -16.1366 -26 -24 1.27322 -24 15 c 0
 -24 26.8639 -20.5565 47.0263 0.324183 54.8566 c 1
 23.316 62.5205 49.4035 61.6874 63.9305 74.1391 c 1
 77.6483 86.0676 99.9158 150.4 235.988 370.516 c 0
 342.352 542.575 389.175 600.534 402.159 621.301 c 1
 389.111 624.605 363.523 627.259 325.228 633.191 c 1
 313.946 634.601 302.734 640.021 296 649 c 0
 289.385 657.82 288 667.531 288 675 c 0
EndSplineSet
EndChar

StartChar: Ccedilla
Encoding: 199 199 118
Width: 700
GlyphClass: 2
Flags: HW
HStem: -195 36<325.143 416.233> -23 50<300.541 363 390.001 498.99> 439 21G<629 650.5> 650 46<283.328 486.406>
VStem: 19 96<229.101 451.697> 420 61<-156.256 -91.5187> 613 49<439.285 545.701>
LayerCount: 2
Fore
SplineSet
683.165 60.2832 m 0
 673.943 31.4493 647.375 27 641 27 c 0
 612 27 l 0
 594.348 27 602.117 25.4547 575.263 8.83143 c 1
 537.102 -13.184 496.253 -28.2976 454.967 -36.6928 c 1
 484.232 -53.1923 501 -81.8539 501 -119 c 0
 501 -120 l 0
 501 -159.212 476.58 -215 399 -215 c 0
 364.457 -215 322.627 -208.562 307.724 -197.848 c 1
 299.306 -191.251 296 -182.604 296 -175 c 0
 296 -175 292.883 -131 330 -131 c 0
 340.712 -131 364.842 -139 382 -139 c 0
 396.469 -139 400 -132.431 400 -127 c 0
 400 -116.065 384.999 -97.9447 348.333 -95.0056 c 1
 346.102 -94.9437 324 -92.9449 324 -72 c 0
 324 -58.2213 329.074 -54.3288 334.387 -40.7229 c 1
 140.499 -17.5812 -1 145.607 -1 335 c 0
 -1 442.065 47.3674 541.762 116.133 608.412 c 1
 188.089 677.193 286.773 716 385 716 c 0
 386 716 l 0
 487.117 716 551.091 679.866 577.103 666.444 c 1
 579.768 674.464 585.278 692.912 605.91 698.341 c 0
 608.412 699 l 1
 610.921 699 l 1
 612.601 699.08 616.358 700 622 700 c 0
 644.818 700 653.343 679.593 654.728 671.288 c 0
 655 669.655 l 1
 655 651.354 682 471.151 682 456 c 0
 682 442.066 670.902 419 642 419 c 0
 631.955 419 620.031 419.063 609.614 428.213 c 0
 593.105 442.713 595.865 461.833 593.182 483.295 c 1
 589.358 509.112 586.928 519.642 571.271 539.646 c 1
 533.557 587.481 468.038 630 383 630 c 0
 257.24 630 135 528.654 135 354 c 0
 135 178.446 253.43 47 396 47 c 0
 502.139 47 603.41 118.062 637.955 230.111 c 1
 637.966 230.144 644.685 257 672 257 c 0
 680.213 257 708 253.325 708 226 c 0
 708 224.596 l 1
 707.804 223.206 l 0
 707.804 223.206 685.777 68.2846 683.165 60.2832 c 0
EndSplineSet
EndChar

StartChar: multiply
Encoding: 215 215 133
Width: 552
GlyphClass: 2
Flags: HW
DStem2: 63 86 277 219 0.707107 0.707107<23.0541 245.366 302.642 523.883> 277 300 237 259 0.707107 -0.707107<-220.441 0.0306047 57.9828 280.295>
LayerCount: 2
Fore
SplineSet
348.068 257.227 m 0
 510.931 94.5809 521 96.5708 521 69 c 0
 521 45.3207 494.666 16 468 16 c 0
 452.489 16 442.353 25.3626 436.858 30.8579 c 0
 277.004 190.712 l 1
 110.827 24.3159 115.294 16 87 16 c 0
 63.3207 16 34 42.3336 34 69 c 0
 34 84.5195 43.3429 94.6272 48.8781 100.162 c 1
 222.188 272.477 l 0
277.177 328.392 m 0
 446.144 496.639 440.03 501.402 465.01 503.901 c 0
 466.002 504 l 1
 468 504 l 0
 490.562 504 520 477.285 520 450 c 0
 520 449 l 0
 520 420.536 507.079 419.798 332.142 244.858 c 1
207.796 259.995 m 0
 53.0628 415.353 33 420.652 33 450 c 0
 33 472.061 58.662 502 87 502 c 0
 88 502 l 0
 116.491 502 117.265 489.005 291.182 314.102 c 1
EndSplineSet
EndChar

StartChar: Oslash
Encoding: 216 216 134
Width: 778
GlyphClass: 2
Flags: HW
HStem: -24 58<292.657 500.654> 667 53<268.469 479.38>
VStem: 18 95<244.676 473.525> 661 99<215.912 457.417>
DStem2: 183 44 196 -39 0.482254 0.876032<-79.7358 0 70.7106 665.33 734.538 805.635>
LayerCount: 2
Fore
SplineSet
780 337 m 0
 780 115.786 606.575 -44 401 -44 c 0
 344.149 -44 287.338 -30.7476 236.55 -8.15932 c 1
 214.419 -48.9526 216.73 -46.5542 210.142 -53.1421 c 0
 208.742 -54.5425 l 1
 207.094 -55.641 l 0
 202.409 -58.7643 191.724 -64 177 -64 c 0
 165.227 -64 123 -66.7104 123 -31 c 0
 123 -30 l 0
 123 -13.9851 127.499 -16.0531 157.005 38.0488 c 1
 59.2225 111.757 -0.993786 229.154 -2 352.919 c 1
 -2 567.34 175.092 740 387 740 c 0
 434.67 740 483.242 730.469 526.755 714.229 c 1
 540.199 739.717 543.196 753.013 560.092 761.389 c 0
 568.951 765.78 576.174 765 581 765 c 0
 613.176 765 637 752.389 637 729 c 0
 637 712.054 628.615 704.969 609.424 670.471 c 1
 716.159 595.773 780 469.255 780 337 c 0
133 384 m 0
 133 304.198 155.413 207.696 212.679 139.798 c 1
 477.424 624.245 l 1
 443.901 639.111 407.835 647 371 647 c 0
 256.508 647 133 570.719 133 384 c 0
397 54 m 0
 502.721 54 641 121.453 641 319 c 0
 641 407.358 614.99 504.116 553.916 569.441 c 1
 285.105 80.7778 l 1
 317.408 64.3455 353.728 54 397 54 c 0
EndSplineSet
EndChar

StartChar: germandbls
Encoding: 223 223 140
Width: 529
GlyphClass: 2
Flags: HW
HStem: -19 56<332.655 442.874> -6 45<18.1294 80.4949 152.236 217.996> 360 47<9.65625 81.9186> 659 60<213.74 316.602>
VStem: 82 71<38.5658 359.712 410.048 563.25> 252 57<345.337 432.51> 258 41<68.2012 148.863> 340 81<533.904 634.935> 460 61<54.6943 152.155>
LayerCount: 2
Fore
SplineSet
30 -26 m 0
 8.25355 -26 -2 -5.11108 -2 13 c 0
 -2 51.7882 31.1932 54.8486 60.0654 58.5268 c 1
 61.2759 66.162 60.9834 81.1685 62.02 101.899 c 1
 62.8933 123.733 63.8682 280.01 63.9875 339.681 c 1
 55.4929 339.769 45.2632 339.685 30.7829 340 c 1
 30 340 l 0
 25.4804 340 12.8362 339.584 1.38413 349.579 c 0
 -6.49464 356.456 -11 367.376 -11 379 c 0
 -11 383.467 -12.3449 416.3 16.6754 425.974 c 0
 30.0138 430.42 48.8351 428.813 62.1715 428.967 c 1
 64.7526 530.297 90.8702 628.825 157.129 685.309 c 1
 202.55 722.973 259.369 739 304 739 c 0
 380.399 739 441 686.605 441 607 c 0
 441 517.152 368.916 473.207 342.692 436.212 c 0
 333.655 423.464 329 412.135 329 399 c 0
 329 353.848 384.664 335.106 473.693 238.569 c 1
 499.138 211.088 541 161.935 541 97 c 0
 541 15.6192 474.133 -39 397 -39 c 0
 316.51 -39 263.546 -0.116142 246.679 27.9957 c 1
 239.529 40.8661 238 52.7862 238 65 c 0
 238 131 l 0
 238 144.007 240.298 155.773 243.37 160.11 c 1
 244.458 161.742 l 1
 245.677 162.962 l 1
 249.243 166.68 258.565 176 275 176 c 0
 320.803 176 312.374 108.402 316.212 101.199 c 1
 322.971 90.762 357.158 57 390 57 c 0
 418.756 57 440 75.3992 440 100 c 0
 440 142.574 382.152 166.398 277.751 273.965 c 1
 252.632 299.084 232 328.561 232 368 c 0
 232 412.377 257.709 446.63 278.959 477.516 c 0
 301.265 509.938 320 539.463 320 575 c 0
 320 612.749 296.812 639 265 639 c 0
 253.355 639 193.874 637.514 177.846 505.523 c 1
 173.04 468.039 173 430.065 173 390 c 0
 173 380 l 0
 173 131.033 172 98.617 172 68 c 0
 172 61.4489 172.795 58.4575 172.85 58.3422 c 1
 172.941 58.2603 176.144 55.8537 185.676 54.9312 c 1
 207.665 53.3606 238 50.2252 238 17 c 0
 238 13.2619 241.198 -26 207 -26 c 0
 199.225 -26 165.94 -20 119 -20 c 0
 71.1667 -20 38.6014 -26 30 -26 c 0
EndSplineSet
EndChar

StartChar: ae
Encoding: 230 230 147
Width: 645
GlyphClass: 2
Flags: HW
HStem: -22 54<120.893 227.079 414.939 541.487> 191 37<159.882 257.94> 376 56<370.172 486.763> 385 47<124.393 228.628>
VStem: 32 74<46.7656 152.973> 259 74<115.787 190.367 228.097 337.5> 529 98<298.142 339.608>
LayerCount: 2
Fore
SplineSet
424 356 m 0
 386.24 356 354.302 322.846 348.755 252.945 c 1
 390.647 268.683 478.049 302.479 505.155 313.173 c 1
 491.238 330.566 456.414 356 424 356 c 0
126 101 m 0
 126 76.9039 133.724 52 169 52 c 0
 186.592 52 208.995 60.4928 222.351 71.4924 c 1
 241.554 87.0376 239 77.4315 239 115 c 0
 239 144 l 0
 239 155.565 238.883 165.258 238.723 170.297 c 1
 177.926 164.89 126 148.836 126 101 c 0
447 452 m 0
 548.929 452 647 361.683 647 313 c 0
 647 311.667 l 1
 645.251 259.222 571.349 249.93 551.517 243.092 c 0
 424.326 199.254 371.96 182.228 354.206 175.074 c 1
 360.725 141.169 388.566 58 481 58 c 0
 519.334 58 557.147 73.9412 585.235 100.547 c 1
 590.501 106.904 602.145 121 623 121 c 0
 641.729 121 658 106.401 658 87 c 0
 658 76.7647 654.287 67.3752 648.641 58.906 c 0
 648.242 58.3079 l 1
 647.802 57.7401 l 0
 598.941 -5.23809 525.227 -39 454 -39 c 0
 369.907 -39 321.862 5.10814 301.533 26.9943 c 1
 274.933 4.03156 218.96 -42 146 -42 c 0
 66.9612 -42 12 18.4854 12 90 c 0
 12 91 l 0
 12 135.396 33.0351 173.078 61.5098 195.621 c 1
 111.832 236.266 206.545 244.641 237.982 247.218 c 1
 237.998 248.405 238 248.965 238 250 c 0
 238 278 l 0
 238 308.588 234.454 326.999 218.98 344.794 c 1
 206.753 358.549 191.179 365 176 365 c 0
 133.662 365 114.688 318.976 106.641 306.906 c 0
 105.971 305.901 l 1
 105.185 304.984 l 0
 95.8743 294.122 82.196 287 67 287 c 0
 40.7433 287 8 306.838 8 343 c 0
 8 398.046 92.1638 452 183 452 c 0
 263.929 452 299.15 416.796 315.504 399.312 c 1
 337.068 418.287 382.3 452 447 452 c 0
EndSplineSet
EndChar

StartChar: ccedilla
Encoding: 231 231 148
Width: 381
GlyphClass: 2
Flags: HW
HStem: -195 36<133.143 224.233> -18 64<199.932 299.226> 376 52<142.345 251.426>
VStem: 17 66<132.437 305.205> 228 61<-156.256 -91.5187>
LayerCount: 2
Fore
SplineSet
309 -120 m 2
 309 -159.212 284.58 -215 207 -215 c 0
 172.457 -215 130.627 -208.562 115.725 -197.848 c 1
 107.306 -191.251 104 -182.604 104 -175 c 0
 104 -175 100.883 -131 138 -131 c 0
 148.712 -131 172.842 -139 190 -139 c 0
 204.469 -139 208 -132.431 208 -127 c 0
 208 -116.065 192.999 -97.9447 156.333 -95.0056 c 1
 154.102 -94.9437 132 -92.9449 132 -72 c 0
 132 -57.3073 140.562 -46.0801 147.343 -28.3728 c 1
 54.9645 -1.38133 -3 85.8744 -3 197 c 0
 -3 342.086 91.1785 448 231 448 c 0
 305.567 448 378 411.578 378 354 c 0
 378 318.434 348.087 296 318 296 c 0
 252.302 296 239.406 356 197 356 c 0
 152.192 356 103 299.905 103 222 c 0
 103 137.571 162.387 66 241 66 c 0
 311.939 66 313.457 120 363 120 c 0
 382.312 120 400 104.57 400 83 c 0
 400 70.5406 394.593 61.1245 390.088 55.1173 c 1
 361.944 16.4187 315.556 -19.7656 255.633 -33.0396 c 1
 288.875 -48.2754 309 -78.4706 309 -119 c 0
 309 -120 l 2
EndSplineSet
EndChar

StartChar: divide
Encoding: 247 247 163
Width: 701
GlyphClass: 2
Flags: HW
HStem: 67 103<302.248 386.752> 231 57<53 647.954> 349 103<295.609 380.752>
VStem: 285 106<359.248 440.996> 292 105<76.9539 159.752>
CounterMasks: 1 e0
LayerCount: 2
Fore
SplineSet
76 211 m 2
 66.7762 211 54.3621 211.435 44.1412 221.288 c 0
 34.6465 230.442 33 242.549 33 253 c 0
 33 266 l 0
 33 279.026 36.8716 292.034 47.2848 300.086 c 0
 58.4538 308.722 70.1405 308 76 308 c 0
 628 308 l 0
 635.509 308 646.442 307.883 656.232 299.397 c 0
 665.914 291.003 668 279.051 668 269 c 0
 668 255 l 0
 668 241.559 664.027 228.613 654.055 220.281 c 0
 641.981 210.192 628.596 211 622 211 c 0
 76 211 l 2
265 400 m 0
 265 440.976 299.756 472 339 472 c 0
 378.788 472 411 440.267 411 401 c 0
 411 360.523 377.603 329 338 329 c 0
 298.924 329 265 359.156 265 400 c 0
345 47 m 0
 306.811 47 272 77.1264 272 119 c 0
 272 159.334 304.559 190 344 190 c 0
 383.603 190 417 158.477 417 118 c 0
 417 77.6661 384.441 47 345 47 c 0
EndSplineSet
EndChar

StartChar: oslash
Encoding: 248 248 164
Width: 467
GlyphClass: 2
Flags: HW
HStem: -19 49<173.958 305.289> 385 47<165.676 294.523>
VStem: 21 78<108.789 304.389> 378 68<109.681 294.771>
DStem2: 105 23 146 -1 0.485263 0.874368<-42.3314 1.97359 66.2418 380.82 443.734 502.726>
LayerCount: 2
Fore
SplineSet
466 204 m 0
 466 49.9342 355.07 -39 233 -39 c 0
 206.469 -39 180.553 -34.5522 155.583 -26.1117 c 1
 149.856 -36.5851 139.303 -53 118 -53 c 0
 87.1062 -53 63 -44.1197 63 -20 c 0
 63 -4.94026 70.1393 1.67049 79.4218 18.1848 c 1
 32.0277 60.8877 1 126.367 1 204 c 0
 1 353.922 114.207 452 237 452 c 0
 262.997 452 288.567 446.842 312.398 438.904 c 1
 321.86 457.329 330.661 479 356 479 c 0
 372.631 479 412 477.896 412 442 c 0
 412 425.893 402.926 415.848 389.627 392.577 c 1
 443.029 343.395 466 272.121 466 204 c 0
236 50 m 0
 306.293 50 358 118.037 358 200 c 0
 358 228.138 350.75 264.147 334.582 293.963 c 1
 200.928 55.8914 l 1
 213.665 51.4086 224.949 50 236 50 c 0
230 365 m 0
 189.243 365 119 333.49 119 209 c 0
 119 182.654 123.63 149.299 136.348 120.966 c 1
 267.687 357.044 l 1
 255.361 362.276 244.059 365 230 365 c 0
EndSplineSet
EndChar

StartChar: dotlessi
Encoding: 305 305 203
Width: 243
GlyphClass: 2
Flags: HW
HStem: -6 44<18.136 93.0582 163.719 228.991> 421 20G<149.5 156>
VStem: 94 67<39.1511 336.573>
LayerCount: 2
Fore
SplineSet
74 121 m 2
 74 236.276 74.9807 295.156 74.9997 313.425 c 1
 68.1935 317.104 50.8441 323.726 19.5206 336.451 c 1
 16.072 337.831 -5 345.235 -5 368 c 0
 -5 399.335 30.6768 405.822 33.528 407.118 c 1
 136.62 456.681 134.617 461 152 461 c 0
 153 461 l 0
 167.917 461 187 448.636 187 425 c 0
 187 414.807 181 319.928 181 198 c 0
 181 165 l 0
 181 98.2964 182.206 66.4658 184.537 57.1293 c 1
 185.344 57.0034 185.703 56.9528 186.849 56.7966 c 1
 211.1 53.1222 249 53.3041 249 16 c 0
 249 13.3918 251.328 -26 217 -26 c 0
 208.631 -26 173.816 -20 125 -20 c 0
 75.1407 -20 41.4576 -26 33 -26 c 0
 10.1627 -26 -2 -6.05542 -2 11 c 0
 -2 47.9563 25.4117 52.6319 64.0979 57.7901 c 1
 76.2826 59.7396 74 57.7928 74 74 c 0
 74 121 l 2
EndSplineSet
EndChar

StartChar: OE
Encoding: 338 338 224
Width: 1018
GlyphClass: 2
Flags: HW
HStem: -24 58<295.027 503.146> 0 55<642.732 907.982> 369 58<639.607 848.8> 638 53<639.128 894.672> 667 53<268.839 477.071>
VStem: 18 94<249.63 473.331> 548 90<67.3145 365.5 427 617.33> 850 55<271.316 368.907 428.208 513.367>
LayerCount: 2
Fore
SplineSet
658 97 m 2
 658 87.4647 643.016 75 762 75 c 0
 791.018 75 877.886 83.1717 894.61 91.8205 c 1
 897.545 95.1907 908.72 114.3 946.591 178.85 c 1
 954.452 193.26 968.267 206 986 206 c 0
 1011.07 206 1023 182.64 1023 163 c 0
 1023 162 l 0
 1023 149.737 1021.71 149.528 992.45 15.323 c 1
 989.657 4.70961 985.426 -4.1012 977.078 -10.7764 c 0
 964.509 -20.8273 950.754 -20 941 -20 c 0
 663 -20 l 0
 513.717 -20 459.283 -44 401 -44 c 0
 180.138 -44 -2 135.636 -2 353 c 0
 -2 566.191 173.992 740 386 740 c 0
 451.543 740 495.124 727.399 532.543 720.684 c 1
 573.052 713.318 629.025 711.086 631.361 711 c 1
 936 711 l 0
 946.919 711 957.595 707.688 964.937 700.26 c 0
 972.857 692.249 974.399 683.404 975.23 680.494 c 0
 975.23 680.494 906.051 922.686 975.394 679.921 c 1
 1004 551.195 l 1
 1004 546 l 0
 1004 517.479 978.486 505 960 505 c 0
 949.676 505 939.863 507.902 932.572 513.941 c 0
 922.048 522.657 919.612 534.324 918.941 536.252 c 1
 876.761 607.86 l 0
 873.198 613.917 870.675 617.15 870.212 617.635 c 1
 869.06 617.844 867.319 618 864 618 c 0
 670 618 l 0
 659.12 618 659 613.981 659 613.981 c 1
 659 449 l 0
 659 448.744 659.076 447.757 659.183 447 c 1
 812 447 l 0
 829.065 447 830 444.746 830 460 c 0
 830 491 l 0
 830 520.299 856.068 534 876 534 c 0
 911.808 534 925 505.746 925 484 c 0
 925 300 l 0
 925 288.004 922.715 274.183 912.216 263.594 c 0
 903.079 254.379 890.463 251 878 251 c 0
 862.614 251 847.48 254.302 837.941 266.669 c 0
 831.048 275.608 830 285.536 830 293 c 0
 830 347 l 0
 830 347.65 829.953 348.59 829.945 348.749 c 1
 827.72 348.975 826.491 349 824 349 c 0
 712 349 l 0
 674.558 349 660.583 345.109 659.711 344.437 c 1
 659.533 344.13 658 339.616 658 329 c 0
 658 97 l 2
371 647 m 2
 370 647 l 0
 256.495 647 132 570.658 132 384 c 0
 132 216.334 223.757 54 397 54 c 0
 439.184 54 481.869 63.0883 522.806 88.2099 c 1
 525.337 89.6562 526.492 90.3182 527.689 91.0247 c 1
 527.918 93.6938 528 97.8261 528 104 c 0
 528 591.793 l 1
 479.157 631.73 424.358 647 371 647 c 2
EndSplineSet
EndChar

StartChar: oe
Encoding: 339 339 225
Width: 763
GlyphClass: 2
Flags: HW
HStem: -19 57<522.033 664.959> -19 49<167.083 306.865> 376 55<487.022 605.717> 385 47<165.676 298.48>
VStem: 21 78<107.025 304.389> 378 72<117.554 196.704 226.001 294.23> 647 97<292.942 337.386>
LayerCount: 2
Fore
SplineSet
564 451 m 0
 641.651 451 712.395 401.217 750.995 347.021 c 1
 756.709 339.66 764 328.905 764 313 c 0
 764 311.667 l 1
 762.251 259.222 688.349 249.93 668.517 243.092 c 0
 541.326 199.254 488.96 182.228 471.206 175.074 c 1
 477.725 141.169 505.566 58 598 58 c 0
 636.11 58 675.169 74.9532 702.264 100.576 c 1
 708.313 107.686 719.721 121 740 121 c 0
 748.918 121 757.921 117.981 764.86 111.645 c 0
 771.856 105.257 776 95.8263 776 86 c 0
 776 75.9336 771.567 65.8387 764.597 57.4754 c 1
 720.494 0.464378 648.773 -39 572 -39 c 0
 501.49 -39 444.843 -7.10891 409.068 37.8334 c 1
 365.381 -11.8866 300.229 -39 233 -39 c 0
 93.9306 -39 1 71.6572 1 204 c 0
 1 353.922 114.207 452 237 452 c 0
 301.494 452 365.805 423.727 409.264 371.948 c 1
 442.307 415.062 495.174 451 564 451 c 0
622.464 313.353 m 1
 608.096 330.748 574.226 356 542 356 c 0
 503.148 356 472.135 323.685 466.736 253.158 c 1
 510.797 269.937 596.172 303.052 622.464 313.353 c 1
236 50 m 0
 306.293 50 358 118.037 358 200 c 0
 358 299.021 291.754 365 230 365 c 0
 189.243 365 119 333.49 119 209 c 0
 119 110.882 169.071 50 236 50 c 0
EndSplineSet
EndChar

StartChar: Scedilla
Encoding: 350 350 236
Width: 492
GlyphClass: 2
Flags: HW
HStem: -195 36<189.143 280.233> -16 55<175.012 229 254.519 327.705> 635 50<138.512 269.954>
VStem: 32 72<479.18 595.956> 48 50<112.089 247.636> 284 61<-156.256 -91.5187> 398 73<105.358 250.11>
LayerCount: 2
Fore
SplineSet
365 -120 m 2
 365 -159.212 340.58 -215 263 -215 c 0
 228.457 -215 186.627 -208.562 171.725 -197.849 c 1
 163.306 -191.251 160 -182.604 160 -175 c 0
 160 -175 156.883 -131 194 -131 c 0
 204.712 -131 228.842 -139 246 -139 c 0
 260.469 -139 264 -132.431 264 -127 c 0
 264 -116.065 248.999 -97.9447 212.333 -95.0056 c 1
 210.102 -94.9437 188 -92.9449 188 -72 c 0
 188 -57.6284 194.751 -50.0365 201.498 -32.2966 c 1
 126.484 -17.6947 83.2373 26.1775 76.4748 29.9079 c 1
 75.6009 30.3157 l 1
 74.7101 30.8501 l 0
 74.0556 31.2428 71.4963 32 69 32 c 0
 63.4319 32 56.9543 29 43 29 c 0
 17.604 29 5 49.014 5 64 c 0
 5 85.1024 19.0116 113.935 28.0714 228.692 c 1
 28.7612 236.281 30.3924 246.661 38.8178 255.774 c 0
 46.6824 264.279 58.2831 268 70 268 c 0
 77.5426 268 86.9623 267.34 95.7427 261.049 c 0
 115.583 246.834 114.008 223.822 117.879 192.211 c 1
 125.577 115.231 108.354 159.194 140.057 116.924 c 1
 162.154 86.8716 201.585 59 253 59 c 0
 321.865 59 378 111.926 378 178 c 0
 378 215.155 359.564 249.2 328.27 271.801 c 0
 276.566 309.243 215.929 306.272 143.627 335.408 c 1
 54.5774 370.161 12 443.005 12 516 c 0
 12 616.313 95.3619 705 211 705 c 0
 277.841 705 318.951 678.415 336.5 668.131 c 1
 341.702 677.481 352.169 705 382 705 c 0
 404.48 705 418 685.058 418 666 c 0
 418 654.019 414 632.683 414 583 c 0
 414 534.338 418 514.071 418 502 c 0
 418 492.219 413.995 482.004 406.054 475.386 c 0
 398.347 468.963 389.166 467 381 467 c 0
 379.688 467 l 1
 328.053 468.614 332.657 523.768 296.031 565.735 c 1
 271.45 593.047 236.873 615 201 615 c 0
 155.585 615 124 581.871 124 541 c 0
 124 511.633 139.565 485.478 166.643 466.262 c 1
 214.068 432.011 282.996 432.865 352.844 403.398 c 1
 430.978 369.758 491 297.792 491 198 c 0
 491 92.0378 418.751 -5.91109 307.317 -31.2277 c 1
 342.245 -45.1663 365 -76.3927 365 -119 c 0
 365 -120 l 2
EndSplineSet
EndChar

StartChar: scedilla
Encoding: 351 351 237
Width: 338
GlyphClass: 2
Flags: HW
HStem: -195 36<101.143 192.233> -19 54<106 141 166.004 238.939> 380 47<98.6701 211.868> 412 20G<244 256>
VStem: 27 40<71.0105 155.76> 31 54<283.553 367.539> 196 61<-156.256 -91.5187> 230 55<295.352 359.134> 262 67<56.0454 149.045>
LayerCount: 2
Back
SplineSet
27 104 m 6x9f
 27 141 24 156 44 156 c 4x9f
 69 156 53 122 67 94 c 4
 77 73 123 35 181 35 c 4
 226 35 262 62 262 102 c 4
 262 168 174 178 142 187 c 4
 61 210 31 260 31 309 c 4
 31 369 85 427 175 427 c 4
 205 427 220 422 225 422 c 4
 234 422 238 432 250 432 c 4
 262 432 265 418 266 413 c 4
 272 378 285 312 285 308 c 4
 285 295 270 292 262 292 c 4
 241 292 244 321 230 341 c 4
 217 359 181 380 148 380 c 4
 114 380 85 359 85 327 c 4
 85 313 90 276 164 255 c 4
 215 241 262 238 299 195 c 4
 325 165 329 132 329 116 c 4
 329 52 276 -19 177 -19 c 6
 173 -19 l 5
 167 -36 166 -38 166 -40 c 4
 166 -42 167 -43 170 -43 c 6
 173 -43 l 6
 221 -43 257 -69 257 -119 c 6
 257 -120 l 6
 257 -152 240 -195 175 -195 c 4xaf
 143 -195 100 -186 96 -182 c 4
 93 -180 92 -178 92 -175 c 4
 92 -174 95 -151 106 -151 c 4x4f
 107 -151 139 -159 158 -159 c 4
 180 -159 196 -146 196 -127 c 4
 196 -100 167 -78 125 -75 c 4
 123 -75 120 -75 120 -72 c 4
 120 -71 134 -35 141 -16 c 5
 103 -11 41 11 29 47 c 4
 27 53 27 59 27 65 c 6
 27 104 l 6x9f
EndSplineSet
Fore
SplineSet
7 126 m 2
 7 144.968 11.5972 176 44 176 c 0
 90.0942 176 84.9746 102.772 84.9746 102.772 c 1
 90.9498 90.2241 130.998 55 181 55 c 0
 218.942 55 242 76.2892 242 102 c 0
 242 146.943 177.588 156.215 136.565 167.753 c 1
 48.7655 192.683 11 250.477 11 309 c 0
 11 381.912 76.2915 447 175 447 c 0
 199.79 447 216.976 443.525 223.425 442.359 c 1
 226.738 444.643 236.2 452 250 452 c 0
 281.295 452 285.231 418.825 285.666 416.652 c 1
 291.956 379.959 305 319.547 305 308 c 0
 305 288.319 289.383 278.099 279.573 274.81 c 0
 272.935 272.585 266.993 272 262 272 c 0
 221.504 272 215.912 326.25 213.7 329.41 c 1
 205.419 340.876 173.518 360 148 360 c 0
 121.146 360 105 344.677 105 327 c 0
 105 320.731 102.654 293.199 169.377 274.264 c 1
 216.684 261.278 271.499 257.623 314.137 208.072 c 1
 344.328 173.236 349 135.009 349 116 c 0
 349 52.1062 303.818 -14.9329 223.27 -33.8783 c 1
 256.028 -49.2682 277 -78.726 277 -119 c 0
 277 -120 l 0
 277 -159.212 252.58 -215 175 -215 c 0
 140.457 -215 98.6269 -208.562 83.7244 -197.848 c 1
 75.3058 -191.251 72 -182.604 72 -175 c 0
 72 -175 68.8826 -131 106 -131 c 0
 116.712 -131 140.842 -139 158 -139 c 0
 172.469 -139 176 -132.431 176 -127 c 0
 176 -116.065 160.999 -97.9447 124.333 -95.0056 c 1
 122.102 -94.9437 100 -92.9449 100 -72 c 0
 100 -57.5587 107.051 -49.2552 113.983 -31.0196 c 1
 83.8088 -23.292 53.1088 -11.4305 30.0083 10.7074 c 1
 17.0315 23.6842 7 39.9884 7 65 c 0
 7 126 l 2
EndSplineSet
EndChar

StartChar: Tcommaaccent
Encoding: 354 354 240
Width: 692
GlyphClass: 2
Flags: HW
HStem: -195 36<285.143 376.233> -6 53<202.22 307.561 402.04 510.545> 622 66<95.0021 308.605 402.112 608.482>
VStem: 309 93<49.375 621.698> 380 61<-156.256 -91.5187>
LayerCount: 2
Fore
SplineSet
461 -120 m 2
 461 -159.212 436.58 -215 359 -215 c 0
 324.457 -215 282.627 -208.562 267.724 -197.848 c 1
 259.306 -191.251 256 -182.604 256 -175 c 0
 256 -175 252.883 -131 290 -131 c 0
 300.712 -131 324.842 -139 342 -139 c 0
 356.469 -139 360 -132.431 360 -127 c 0
 360 -116.065 344.999 -97.9447 308.333 -95.0056 c 1
 306.102 -94.9437 284 -92.9449 284 -72 c 0
 284 -57.7907 293.487 -42.6302 302.077 -20.7915 c 1
 255.433 -22.5861 234.942 -26 222 -26 c 0
 213.166 -26 204.099 -23.5185 196.986 -17.8112 c 0
 183.213 -6.75912 182 9.29449 182 20 c 0
 182 28.2325 182.544 38.7584 190.29 48.0731 c 0
 207.394 68.6414 233.735 63.1002 273.041 66.9039 c 1
 292.488 68.8486 289 68.7749 289 84 c 0
 289 591 l 0
 289 596.216 288.492 600.143 288.14 601.26 c 1
 287.028 601.627 285.372 602 282 602 c 0
 133 602 l 0
 120.482 602 117.032 600.248 117.032 600.248 c 1
 116.962 600.181 115.567 598.413 112.866 593.011 c 1
 75.5509 519.291 71.0045 489 34 489 c 0
 7.83527 489 -8 511.776 -8 534 c 0
 -8 535 l 0
 -8 546.939 -6.59355 548.019 21.4502 677.219 c 1
 27.2724 704.39 52.7538 708 62 708 c 0
 645 708 l 0
 653.986 708 663.581 705.676 670.98 699.221 c 0
 682.893 688.828 683.706 674.941 684.705 668.446 c 1
 704.674 566.617 709 548.802 709 537 c 0
 709 516.954 694.72 495 670 495 c 0
 642.828 495 632.184 519.618 629.648 524.054 c 0
 579.687 611.227 590.022 602 571 602 c 0
 424 602 l 0
 423.354 602 422.443 601.951 422.29 601.942 c 1
 422.013 599.441 422 597.938 422 595 c 0
 422 71 l 0
 422 70.2688 422.028 69.3273 422.039 69.046 c 1
 430.665 66.75 453.741 65.6037 495.135 61.8888 c 1
 503.835 60.8012 513.335 58.8443 521.191 50.3477 c 0
 532.082 38.5694 531 25.08 531 14 c 0
 531 -0.165899 522.223 -26 494 -26 c 0
 485.74 -26 440.02 -20.8728 378.059 -20.0821 c 1
 377.193 -22.5067 377.096 -22.7803 376.548 -24.3168 c 1
 425.073 -31.4522 461 -64.9101 461 -119 c 0
 461 -120 l 2
EndSplineSet
EndChar

StartChar: tcommaaccent
Encoding: 355 355 241
Width: 333
GlyphClass: 2
Flags: HW
HStem: -195 36<113.143 204.233> -18 64<178.638 241.831> 363 54<156.006 290.812>
VStem: 76 69<55.2482 362.954> 208 61<-156.256 -91.5187>
LayerCount: 2
Fore
SplineSet
165.942 343.001 m 1
 164.999 166.084 165 143.441 165 120 c 0
 165 84.814 173.242 66 196 66 c 0
 231.442 66 259.479 126 305 126 c 0
 315.423 126 324.915 121.754 331.523 115.278 c 0
 338.936 108.012 343 98.2214 343 88 c 0
 343 71.8483 333.365 60.9927 332.641 59.906 c 0
 331.958 58.882 l 1
 331.155 57.9495 l 0
 288.148 8.00578 253.703 -16.7431 224.548 -28.8192 c 1
 262.845 -41.1915 289 -73.3267 289 -119 c 0
 289 -120 l 2
 289 -159.212 264.58 -215 187 -215 c 0
 152.457 -215 110.627 -208.562 95.7244 -197.848 c 1
 87.3058 -191.251 84 -182.604 84 -175 c 0
 84 -175 80.8826 -131 118 -131 c 0
 128.712 -131 152.842 -139 170 -139 c 0
 184.469 -139 188 -132.431 188 -127 c 0
 188 -116.065 172.999 -97.9447 136.333 -95.0056 c 1
 134.102 -94.9437 112 -92.9449 112 -72 c 0
 112 -57.6909 120.53 -45.3884 127.736 -27.3957 c 1
 81.5692 -4.37191 60.6747 44.2273 56.0729 101.291 c 1
 54.9934 113.165 55 124.093 55 135 c 0
 55 174.846 58.2111 303.831 58.8752 345 c 1
 40 345 l 0
 33.8143 345 0 346.02 0 378 c 0
 0 418.271 56.7217 429.887 106.8 515.207 c 1
 107.275 515.998 116.92 543 144 543 c 0
 158.739 543 177 530.29 177 507 c 0
 177 492.46 176 450.514 176 437 c 0
 266 437 l 0
 270.674 437 274.175 436.061 274.481 436 c 1
 281.305 435.993 320 434.987 320 397 c 0
 320 385.779 317.386 368.422 306.364 355.196 c 0
 305.784 354.499 l 1
 305.142 353.858 l 0
 295.409 344.125 282.674 343 273 343 c 0
 165.942 343.001 l 1
EndSplineSet
EndChar

StartChar: longs
Encoding: 383 383 261
Width: 240
GlyphClass: 2
Flags: HW
HStem: -6 45<18.0677 79.8315 153 229.988> 360 48<10.5069 82.2295> 653 67<224.432 344.919>
VStem: 84 69<38.7292 359.683 408.753 564.612>
LayerCount: 2
Fore
SplineSet
33 -26 m 0
 -1.15426 -26 -2 10.9728 -2 19 c 0
 -2 54.858 34.7305 54.4994 59.6174 58.3917 c 1
 59.8015 60.8898 59.8637 62.1959 60.0663 64.6281 c 1
 61.8877 87.3953 63.9168 154.348 63.9981 339.661 c 1
 55.8164 339.764 45.3629 339.696 30.7914 340 c 1
 27.9518 340 17.0718 339.179 6.10146 346.176 c 0
 -3.74984 352.46 -10 364.632 -10 378 c 0
 -10 394.242 -6.86683 410.373 6.45883 420.435 c 0
 14.2855 426.345 23.9008 428 30.6004 428 c 1
 44.0053 428.536 57.3125 428.682 62.2966 428.75 c 1
 64.005 473.499 70.1631 555.092 107.689 621.017 c 1
 151.8 696.006 239.302 740 308 740 c 0
 370.85 740 400 701.072 400 668 c 0
 400 638.618 376.348 609 338 609 c 0
 298.448 609 275.548 633 255 633 c 0
 206.752 633 172 555.977 172 436 c 0
 172 421.993 173 407.265 173 365 c 0
 173 61 l 0
 173 59.4111 173.066 57.8354 173.127 57.0405 c 1
 174.123 56.9547 173.394 57.007 174.392 56.9544 c 1
 180.049 56.4625 183.898 56.2039 188.241 55.9492 c 0
 214.784 54.3924 250 55.6923 250 16 c 0
 250 1.67612 242.749 -26 214 -26 c 0
 207.672 -26 200.732 -24.4684 184.023 -22.914 c 0
 168.329 -21.4542 147.171 -20 124 -20 c 0
 75.1605 -20 41.4788 -26 33 -26 c 0
EndSplineSet
EndChar

StartChar: uni0237
Encoding: 567 567 262
Width: 232
GlyphClass: 2
Flags: HW
HStem: -231 77<-30.0167 54.2285> 422 20G<152.5 158>
VStem: 95 71<-117.424 346.052>
LayerCount: 2
Fore
SplineSet
74 102 m 0
 74 229.068 76 293.773 76 314 c 0
 76 318.052 75.6203 319.846 75.6004 319.917 c 1
 74.8319 320.969 60.2521 330.788 26.2367 351.527 c 1
 19.102 355.42 7 363.779 7 381 c 0
 7 411.582 29.7185 411.525 138.578 458.15 c 1
 139.391 458.556 146.522 462 154 462 c 0
 180.646 462 184 434.438 184 426 c 0
 184 406.137 182 349.929 182 235 c 0
 182 55.0977 186 -33.9095 186 -65 c 0
 186 -88.2965 178.38 -103.985 167.433 -120.406 c 1
 160.943 -129.392 142.935 -153.894 118.394 -180.044 c 0
 88.2446 -212.17 46.7641 -251 2 -251 c 0
 -27.5164 -251 -56 -230.044 -56 -197 c 0
 -56 -168.963 -34.0896 -134 8 -134 c 0
 22.8273 -134 32.2212 -137 38 -137 c 0
 43.3693 -137 53.2582 -135.148 60.9326 -127.087 c 0
 67.5553 -120.131 75 -106.556 75 -78 c 0
 75 -60.4553 74 -6.03985 74 102 c 0
EndSplineSet
EndChar

StartChar: circumflex
Encoding: 710 710 263
Width: 215
GlyphClass: 2
Flags: HW
HStem: 479 221
VStem: 16 183<482 499>
LayerCount: 2
Fore
SplineSet
31 459 m 0
 20.7422 459 -4 466.675 -4 494 c 0
 -4 513.093 40.1697 635.67 59.688 679.044 c 1
 61.1418 682.436 72.3891 720 107 720 c 0
 158.864 720 172.288 635.742 214.938 512.431 c 1
 215.221 511.583 219 505.299 219 495 c 0
 219 466.756 193.808 459 184 459 c 0
 160.272 459 149.157 477.865 140.74 491.893 c 1
 123.255 522.493 112.546 541.722 107.275 550.511 c 1
 100.562 539.62 90.5588 521.461 72.1712 489.742 c 1
 64.2832 476.925 53.3196 459 31 459 c 0
EndSplineSet
EndChar

StartChar: caron
Encoding: 711 711 264
Width: 215
GlyphClass: 2
Flags: HW
HStem: 479 221
VStem: 16 183<680 697>
LayerCount: 2
Fore
SplineSet
184 720 m 0
 194.258 720 219 712.325 219 685 c 0
 219 665.908 174.739 542.445 155.27 499.859 c 1
 153.167 494.936 142.047 459 108 459 c 0
 56.1362 459 42.7108 543.258 0.061786 666.569 c 1
 -0.220822 667.417 -4 673.701 -4 684 c 0
 -4 712.244 21.1919 720 31 720 c 0
 54.7364 720 65.8212 701.171 74.2833 687.068 c 1
 83.5511 670.671 99.8462 642.353 107.81 628.458 c 1
 114.921 639.906 124.849 657.689 142.696 688.03 c 1
 150.292 701.322 161.516 720 184 720 c 0
EndSplineSet
EndChar

StartChar: breve
Encoding: 728 728 265
Width: 272
GlyphClass: 2
Flags: HW
HStem: 481 68<83.8293 182.514>
VStem: 15 57<564.065 630.344>
LayerCount: 2
Fore
SplineSet
-5 633 m 2
 -5 666.579 35.0246 663 37 663 c 0
 75.6682 663 74.1889 613.575 87.8386 595.217 c 1
 101.414 578.247 116.575 569 132 569 c 0
 133 569 l 0
 176.479 569 200.84 631.815 210.359 646.094 c 0
 213.041 650.116 222.636 662 239 662 c 0
 239.033 662 277 667.111 277 635 c 0
 277 624.627 248.363 461 128 461 c 0
 70.3959 461 15.9969 503.402 -4.72338 626.685 c 0
 -5 628.331 l 1
 -5 633 l 2
EndSplineSet
EndChar

StartChar: dotaccent
Encoding: 729 729 266
Width: 146
GlyphClass: 2
Flags: HW
HStem: 479 112<28.2549 118.311>
VStem: 15 116<492.202 577.369>
LayerCount: 2
Fore
SplineSet
-5 534 m 0
 -5 577.986 32.5434 611 73 611 c 0
 115.418 611 151 577.656 151 535 c 0
 151 492.037 114.353 459 73 459 c 0
 31.0675 459 -5 491.005 -5 534 c 0
EndSplineSet
EndChar

StartChar: ring
Encoding: 730 730 267
Width: 196
GlyphClass: 2
Flags: HW
HStem: 474 39<63.0263 133.711> 612 38<63.3267 133.209>
VStem: 13 40<522.079 602.575> 144 39<521.969 601.702>
LayerCount: 2
Fore
SplineSet
98 670 m 0
 157.998 670 203 619.152 203 562 c 0
 203 502.545 156.566 454 98 454 c 0
 40.4826 454 -7 502.34 -7 562 c 0
 -7 620.618 40.2786 670 98 670 c 0
98 592 m 0
 85.8907 592 73 579.563 73 563 c 0
 73 545.339 85.7219 533 99 533 c 0
 112.28 533 124 546.481 124 562 c 0
 124 577.821 110.576 592 98 592 c 0
EndSplineSet
EndChar

StartChar: tilde
Encoding: 732 732 268
Width: 336
GlyphClass: 2
Flags: HW
HStem: 568 54<166.82 263.676> 613 52<62.1629 146.569>
VStem: 16 304
LayerCount: 2
Fore
SplineSet
223 642 m 0
 259.652 642 258.937 688 301 688 c 0
 308.264 688 340 684.559 340 655 c 0
 340 629 301.349 593.011 276.18 574.135 c 1
 260.534 561.842 236.196 548 206 548 c 0
 141.3 548 121.335 593 99 593 c 0
 64.7819 593 72.2384 541 29 541 c 0
 8.06666 541 -4 559.256 -4 576 c 0
 -4 597.368 30.5794 639.864 46.8579 656.142 c 0
 60.3724 669.656 80.8729 685 111 685 c 0
 170.373 685 192.381 642 223 642 c 0
EndSplineSet
EndChar

StartChar: emdash
Encoding: 8212 8212 270
Width: 1068
GlyphClass: 2
Flags: HW
HStem: 224 55<27.0354 1041.88>
LayerCount: 2
Fore
SplineSet
7 250 m 2
 7 254 l 0
 7 261.485 6.59765 299 41 299 c 0
 1028 299 l 0
 1063.53 299 1062 258.963 1062 254 c 0
 1062 252 l 0
 1062 231.438 1055.85 204 1028 204 c 0
 41 204 l 0
 4.9078 204 7 244.144 7 250 c 2
EndSplineSet
EndChar

StartChar: quoteleft
Encoding: 8216 8216 271
Width: 227
GlyphClass: 2
Flags: HW
HStem: 464 98<82.4082 175.109>
VStem: 39 39<567.528 642.282>
LayerCount: 2
Fore
SplineSet
125 444 m 0
 78.9761 444 19 482.185 19 576 c 0
 19 660.479 62.1858 707 95 707 c 0
 95.907 707 l 1
 96.8107 706.918 l 0
 117.804 705.01 134 687.737 134 667 c 0
 134 626.139 98 625.872 98 600 c 0
 98 592.118 99.1135 582 121 582 c 0
 124.784 582 130.784 583 139 583 c 0
 191.402 583 209 543.851 209 520 c 0
 209 483.667 176.869 444 125 444 c 0
EndSplineSet
EndChar

StartChar: quoteright
Encoding: 8217 8217 272
Width: 227
GlyphClass: 2
Flags: HW
HStem: 586 98<52.2751 144.908>
VStem: 149 40<505.811 580.483>
LayerCount: 2
Fore
SplineSet
102 704 m 0
 147.822 704 209 666.071 209 572 c 0
 209 546.975 205.21 525.822 199.099 508.307 c 0
 184.444 466.307 156.593 442 132 442 c 0
 109.409 442 93 460.529 93 481 c 0
 93 512.847 122.704 524.775 127.263 538.263 c 0
 128.355 541.494 129 544.907 129 549 c 0
 129 555.497 128.213 566 106 566 c 0
 102.216 566 96.2164 565 88 565 c 0
 35.2025 565 19 604.874 19 628 c 0
 19 663.852 49.8153 704 102 704 c 0
EndSplineSet
EndChar

StartChar: quotesinglbase
Encoding: 8218 8218 273
Width: 227
GlyphClass: 2
Flags: HW
HStem: -44 98<51.8914 144.152>
VStem: 148 40<-124.657 -49.5172>
LayerCount: 2
Fore
SplineSet
102 74 m 0
 147 74 208 35.9776 208 -58 c 0
 208 -142.689 164.493 -188 132 -188 c 0
 109.409 -188 93 -169.471 93 -149 c 0
 93 -108.244 128 -106.832 128 -81 c 0
 128 -73.9188 127.994 -64 105 -64 c 0
 101.386 -64 96.3863 -65 88 -65 c 0
 35.5979 -65 18 -25.8508 18 -2 c 0
 18 34.3326 50.1307 74 102 74 c 0
EndSplineSet
EndChar

StartChar: quotedblleft
Encoding: 8220 8220 274
Width: 416
GlyphClass: 2
Flags: HW
HStem: 464 98<82.0918 174.725 272.092 364.725>
VStem: 38 40<567.528 642.751> 228 40<567.528 642.751>
LayerCount: 2
Fore
SplineSet
315 444 m 0
 269.178 444 208 481.929 208 576 c 0
 208 603.815 212.685 626.927 220.005 645.597 c 0
 235.025 683.902 261.052 707 285 707 c 0
 285.907 707 l 1
 286.811 706.918 l 0
 307.804 705.01 324 687.737 324 667 c 0
 324 636.305 295.21 624.823 290.284 612.232 c 0
 288.851 608.57 288 604.727 288 600 c 0
 288 591.548 288.282 582 311 582 c 0
 314.784 582 320.784 583 329 583 c 0
 381.798 583 398 543.126 398 520 c 0
 398 484.148 367.185 444 315 444 c 0
125 444 m 0
 79.1783 444 18 481.929 18 576 c 0
 18 603.815 22.6851 626.927 30.0054 645.597 c 0
 45.0253 683.902 71.0521 707 95 707 c 0
 95.907 707 l 1
 96.8107 706.918 l 0
 117.804 705.01 134 687.737 134 667 c 0
 134 636.305 105.21 624.823 100.284 612.232 c 0
 98.8509 608.57 98 604.727 98 600 c 0
 98 591.548 98.282 582 121 582 c 0
 124.784 582 130.784 583 139 583 c 0
 191.798 583 208 543.126 208 520 c 0
 208 484.148 177.185 444 125 444 c 0
EndSplineSet
Substitution2: "'ss01' Style Set 1 in Latin lookup 0 subtable" quotedblleft.001
EndChar

StartChar: quotedblright
Encoding: 8221 8221 275
Width: 416
GlyphClass: 2
Flags: HW
HStem: 586 98<51.8914 144.152 241.891 334.152>
VStem: 148 40<505.343 580.483> 338 40<505.343 580.483>
LayerCount: 2
Fore
SplineSet
102 704 m 0
 147 704 208 665.978 208 572 c 0
 208 487.311 164.493 442 132 442 c 0
 131 442 l 0
 107.658 442 93 462.234 93 481 c 0
 93 521.756 128 523.168 128 549 c 0
 128 556.081 127.994 566 105 566 c 0
 101.386 566 96.3863 565 88 565 c 0
 35.5979 565 18 604.149 18 628 c 0
 18 664.333 50.1307 704 102 704 c 0
292 704 m 0
 337 704 398 665.978 398 572 c 0
 398 487.311 354.493 442 322 442 c 0
 321 442 l 0
 297.658 442 283 462.234 283 481 c 0
 283 521.756 318 523.168 318 549 c 0
 318 556.081 317.994 566 295 566 c 0
 291.386 566 286.386 565 278 565 c 0
 225.598 565 208 604.149 208 628 c 0
 208 664.333 240.131 704 292 704 c 0
EndSplineSet
Substitution2: "'ss01' Style Set 1 in Latin lookup 0 subtable" quotedblright.001
EndChar

StartChar: bullet
Encoding: 8226 8226 277
Width: 286
GlyphClass: 2
Flags: HW
HStem: 188 160<89.0344 196.966>
VStem: 63 160<214.034 321.966>
LayerCount: 2
Fore
SplineSet
143 168 m 0
 85.1855 168 43 216.505 43 268 c 0
 43 325.814 91.5052 368 143 368 c 0
 200.814 368 243 319.495 243 268 c 0
 243 210.186 194.495 168 143 168 c 0
EndSplineSet
EndChar

StartChar: guilsinglleft
Encoding: 8249 8249 280
Width: 223
GlyphClass: 2
Flags: HW
HStem: 52 282<179 192>
VStem: 22 79<170.963 215.713>
LayerCount: 2
Fore
SplineSet
16.4613 219.596 m 0
 165.037 347.51 162.431 354 185 354 c 0
 209.988 354 221 330.229 221 315 c 0
 221 293.976 212.865 293.175 124.58 192.971 c 1
 134.42 180.855 159.636 151.959 210.126 93.2478 c 1
 216.374 86.2573 220 82.0609 220 71 c 0
 220 54.5891 208.149 32 184 32 c 0
 170.011 32 163.8 39.0219 135.98 62.9221 c 0
 114.095 81.7244 77.3364 113.798 13.8863 168.899 c 0
 13.3552 169.361 l 1
 12.8579 169.858 l 0
 11.3927 171.323 2 178.729 2 193 c 0
 2 207.632 11.7774 216.083 16.4613 219.596 c 0
EndSplineSet
EndChar

StartChar: guilsinglright
Encoding: 8250 8250 281
Width: 223
GlyphClass: 2
Flags: HW
HStem: 52 282<32 43>
VStem: 122 79<170.161 215.625>
LayerCount: 2
Fore
SplineSet
38 354 m 0
 60.6464 354 57.9817 346.664 206.512 219.616 c 1
 210.216 216.838 221 207.496 221 193 c 0
 221 192 l 0
 221 167.347 207.622 167.446 103.59 77.7382 c 0
 91.5568 67.3616 76.7028 54.5278 62.6348 42.3505 c 1
 59.2938 39.0095 50.2894 32 39 32 c 0
 27.6168 32 19.7827 37.7256 14.3161 43.3851 c 0
 8.32336 49.5894 3 58.4857 3 70 c 0
 3 77.839 6.50673 86.791 12.8579 93.1421 c 1
 12.8579 93.1421 41.5964 126.64 42.8697 128.12 c 0
 74.5893 164.992 90.7906 183.888 98.3129 193.07 c 1
 67.9202 227.426 40.3949 258.517 10.9483 291.804 c 1
 3.76132 299.98 2 307.821 2 315 c 0
 2 334.578 16.8785 354 38 354 c 0
EndSplineSet
EndChar

StartChar: fraction
Encoding: 8260 8260 282
Width: 435
GlyphClass: 2
Flags: HW
LayerCount: 2
Fore
SplineSet
35 -207 m 1
 35 -207 -14 -212.051 -14 -173 c 0
 -14 -152.259 -12.2547 -160.783 365.179 580.079 c 0
 365.494 580.696 l 1
 365.85 581.29 l 0
 369.802 587.876 380.825 600 398 600 c 0
 402.113 600 449 600.942 449 562 c 0
 449 550.497 444.974 545.675 444.974 545.675 c 0
 444.495 544.239 l 1
 443.805 542.891 l 0
 67.1408 -193.376 73.8946 -185.39 62.1421 -197.142 c 0
 53.7606 -205.524 42.7547 -207 35 -207 c 1
EndSplineSet
EndChar

StartChar: Euro
Encoding: 8364 8364 283
Width: 713
GlyphClass: 2
Flags: HW
HStem: -14 60<351.543 560.238> 234 62<49 119 193 558> 345 61<45 119 193 605> 594 60<346.586 559.047>
VStem: 119 61<296 345>
LayerCount: 2
Fore
SplineSet
451 574 m 0
 376.593 574 276.192 538.13 222.936 426 c 1
 659.811 426 l 1
 618.418 325 l 1
 199.048 325 l 1
 199.002 322.843 199 322.501 199 321 c 0
 199 319.048 199.063 316 199.063 316 c 1
 614.075 316 l 1
 571.3 214 l 1
 222.37 214 l 1
 271.097 108.363 375.092 66 449 66 c 0
 579.999 66 644.924 152.208 649.858 157.142 c 0
 657.865 165.149 l 1
 688 157.616 l 1
 688 54.3875 l 1
 680.494 48.3826 l 0
 617.77 -1.79536 543.923 -34 453 -34 c 0
 338.01 -34 179.681 25.0587 114.488 214 c 1
 -5.62922 214 l 1
 35.4998 316 l 1
 99 316 l 1
 99 325 l 1
 -9.81121 325 l 1
 31.5822 426 l 1
 114.277 426 l 1
 178.116 617.996 349.027 674 445 674 c 0
 548.261 674 627.665 643.446 706.755 568.519 c 0
 716.656 559.139 l 1
 711.539 546.496 l 0
 693.749 502.544 684.493 485.123 681.315 479.034 c 1
 666.478 450.615 l 1
 647.995 480.473 l 0
 637.934 496.724 570.944 574 451 574 c 0
EndSplineSet
EndChar

StartChar: trademark
Encoding: 8482 8482 284
Width: 919
GlyphClass: 2
Flags: HW
HStem: 370 31<134.007 186 236 287.974 398.207 447.5 489.25 535.771 730.098 781.808 830.118 877.847> 675 36<81.2008 186 236 336.799> 682 23<400.046 440.89>
VStem: 42 26<620.051 656.362> 186 50<400.096 675> 456 32<401.858 605> 782 48<398.694 604.998>
LayerCount: 2
Fore
SplineSet
763.491 540.839 m 1
 758.834 532.429 753.674 522.924 747.612 511.522 c 1
 666.558 362.762 666.708 345 636 345 c 0
 633.5 345 l 1
 633.001 345.025 l 0
 591.044 347.122 587.666 412.113 508.423 540.93 c 1
 508.171 528.241 508 515.775 508 504 c 0
 508 479.687 508.001 461.13 508.147 447.106 c 0
 508.275 434.821 508.592 425.22 508.93 420.139 c 1
 520.155 419.302 556 417.59 556 383 c 0
 556 368.861 546.33 350 526 350 c 0
 515.887 350 501.573 353 468 353 c 0
 432.442 353 417.972 350 408 350 c 0
 387.67 350 378 368.861 378 383 c 0
 378 419.595 418.784 419.607 427.93 420.36 c 1
 430.114 434.086 432.145 463.395 436.054 523.479 c 1
 436.646 530.582 437.138 537.171 437.626 544.317 c 0
 440.275 583.048 441.73 624.794 441.967 638.69 c 1
 436.904 648.204 424.41 661.602 411.688 662 c 1
 403.077 662 380 668.395 380 692 c 0
 380 709.083 392.949 725 410 725 c 0
 480 725 l 0
 492.307 725 505.238 718.143 511.14 708.306 c 0
 603.051 555.454 l 1
 624.75 520.736 639.3 497.491 647.672 484.37 c 1
 764.25 700.222 l 1
 765.379 702.616 773.017 725 796 725 c 0
 868 725 l 0
 883.215 725 898 710.577 898 692 c 0
 898 653.474 848.89 656.075 848.001 655.907 c 1
 848.011 632.627 848.144 600.886 850 427.105 c 1
 850 421 l 2
 850 419.974 850.04 418.256 850.041 418.221 c 1
 854.8 417.721 860.957 417.373 866.384 417.018 c 1
 883.384 416.284 898 403.115 898 383 c 0
 898 367.089 885.624 350 866 350 c 0
 855.889 350 841.68 353 806 353 c 0
 804 353 l 0
 766.296 353 752.054 350 742 350 c 0
 715.62 350 710 375.445 710 384 c 0
 710 420.317 752.821 417.934 761.713 418.87 c 1
 762.143 418.924 762 421.779 762 423 c 0
 761.995 553.685 l 0
 763.491 540.839 l 1
392.918 649.177 m 0
 393.478 647.461 396 637 396 636 c 0
 396 613.348 377.026 603 364 603 c 0
 345.138 603 336.157 618.258 335.252 619.463 c 1
 333.846 620.869 l 1
 332.476 623.362 l 0
 323.299 640.046 317.41 651.45 315.274 655 c 1
 256 655 l 1
 256 419.291 l 1
 263.805 418.718 268.928 418.491 279.024 417.974 c 0
 279.508 417.949 l 1
 279.99 417.901 l 0
 303.417 415.558 308 391.609 308 382 c 0
 308 367.727 297.66 350 278 350 c 0
 268.171 350 251.682 353 214 353 c 0
 212 353 l 0
 172.314 353 155.732 350 146 350 c 0
 134.813 350 114 359.884 114 385 c 0
 114 419.349 150.069 418.689 166 419.645 c 1
 166 655 l 1
 102.472 655 l 1
 99.1555 649.077 94.4174 639.193 87.1706 624.623 c 1
 83.8756 613.034 73.1471 600 54 600 c 0
 39.4129 600 22 612.577 22 635 c 0
 22 646.548 36.0174 705.209 36.4481 707.21 c 0
 36.6792 708.283 l 1
 37.0263 709.325 l 0
 40.8151 720.691 54.3275 731 68 731 c 0
 352 731 l 0
 385.324 731 384.524 700.094 392.918 649.177 c 0
EndSplineSet
EndChar

StartChar: minus
Encoding: 8722 8722 285
Width: 701
GlyphClass: 2
Flags: HW
HStem: 231 57<53 648.954>
LayerCount: 2
Fore
SplineSet
76 211 m 2
 67.1836 211 55.4638 211.569 45.3757 220.483 c 0
 35.4065 229.293 33 241.831 33 253 c 0
 33 266 l 0
 33 278.494 36.7394 290.818 46.1846 298.848 c 0
 57.8778 308.789 70.8514 308 77 308 c 0
 629 308 l 0
 637.184 308 648.175 307.195 657.534 298.745 c 0
 666.685 290.483 669 278.908 669 269 c 0
 669 255 l 0
 669 241.84 665.209 229.015 655.373 220.619 c 0
 643.019 210.074 629.127 211 622 211 c 0
 76 211 l 2
EndSplineSet
EndChar

StartChar: f_f
Encoding: 65537 -1 287
Width: 499
GlyphClass: 3
Flags: HW
HStem: 0 37<9.03824 67.2429 141.056 214.72 227.414 291.805 365.069 440.754> 360 51<20.6325 69.1224 141.007 293.875 365.055 485.331> 630 90<476.137 567.731> 643 62<206.359 301.352>
VStem: 71 70<38.2926 360 411 549.4> 294 70<38.1114 358.995 411 571.372> 332 32<608 615>
LayerCount: 2
Fore
SplineSet
304.443 599.562 m 1
 271.539 607.863 258.146 623 237 623 c 0
 185.003 623 160 519.336 160 441 c 0
 160 431 l 1
 274 431 l 1
 274 515.115 292.59 570.989 304.443 599.562 c 1
222.019 45.6546 m 1
 234.405 53.8159 246.053 53.7011 262.15 56.6279 c 1
 265.863 57.4096 269.926 57.8717 271.955 58.1418 c 1
 273.645 64.3988 275 77.2356 275 101.042 c 1
 275.96 340 l 1
 161 340 l 1
 161 58 l 0
 161 57.4378 161.01 56.9059 161.01 56.9059 c 1
 186.235 55.1356 204.074 59.207 222.019 45.6546 c 1
221.966 -19.8799 m 1
 216.046 -23.8252 208.66 -26 203 -26 c 0
 194.523 -26 160.838 -20 112 -20 c 0
 63.1465 -20 30.5785 -26 22 -26 c 0
 -7.16375 -26 -11 4.13591 -11 17 c 0
 -11 57.5499 31.6343 54.3036 47.5213 58.2399 c 1
 49.8094 68.1739 51 99.2122 51 166 c 0
 51 340 l 1
 40 340 l 0
 32.5825 340 23.0063 341.02 14.1712 347.647 c 0
 4.29919 355.051 0 367.253 0 379 c 0
 0 406.817 13.3819 431 40 431 c 0
 49.1449 431 l 1
 51.0867 497.791 72.8992 650.197 212.206 708.419 c 1
 234.885 718.139 260.57 725 287 725 c 0
 331.383 725 357.246 706.069 370.378 692.743 c 1
 393.695 709.314 441.788 740 510 740 c 0
 570.981 740 599 701.895 599 670 c 0
 599 637.146 572.851 610 538 610 c 0
 496.397 610 474.122 635 453 635 c 0
 433.035 635 405.394 627.649 388.736 524.761 c 1
 384.997 502.329 384 478.51 384 454 c 0
 384 431 l 1
 471 431 l 0
 491.827 431 507 414.751 507 396 c 0
 507 390.703 509.446 355.862 481.944 342.111 c 0
 479.981 341.13 l 1
 477.851 340.597 l 0
 471.43 338.992 465.809 339 462 339 c 0
 385 339 l 1
 385 58 l 0
 385 56.4157 409.515 55.3027 426.565 53.9387 c 1
 451.93 51.9875 461 29.5144 461 13 c 0
 461 0.251405 453.654 -25 427 -25 c 0
 413.586 -25 389.66 -20 333 -20 c 0
 283.148 -20 247.447 -25 240 -25 c 0
 233.881 -25 227.422 -23.432 221.966 -19.8799 c 1
EndSplineSet
Ligature2: "'liga' Standard Ligatures in Latin lookup 1 per glyph data 1" f f
EndChar

StartChar: f_i
Encoding: 65538 -1 288
Width: 475
GlyphClass: 3
Flags: HW
HStem: -6 43<18.1213 79.6467 153.04 229.992 251.092 325.612 397.141 452.929> 359 52<20.0811 82.5469 153.06 326.485> 402 20G<374.5 383.5> 656 65<235.164 360.933>
VStem: 82 71<38.4601 358.944 411.009 541.351> 327 67<40.9917 355.634>
LayerCount: 2
Fore
SplineSet
239.998 -14.7922 m 1
 233.223 -21.7637 223.112 -26 214 -26 c 0
 207.672 -26 200.732 -24.4684 184.023 -22.914 c 0
 168.329 -21.4542 147.171 -20 124 -20 c 0
 75.1605 -20 41.4788 -26 33 -26 c 0
 -1.15426 -26 -2 10.9728 -2 19 c 0
 -2 54.858 34.7305 54.4994 59.6174 58.3917 c 1
 59.8015 60.8898 59.8637 62.1959 60.0663 64.6281 c 1
 61.8892 87.4135 63.9168 154.311 63.9981 339.689 c 1
 57.2236 339.755 49.6237 339.733 39.7295 340 c 1
 31.9767 340 20.4559 341.517 10.9001 350.026 c 0
 3.29473 356.799 -1 367.253 -1 378 c 0
 -1 418.513 28.4024 428 39 428 c 0
 40 428 l 1
 40 427.8 44.3881 428.254 62.4528 428.96 c 1
 67.0389 507.842 89.2564 582.633 129.872 637.827 c 1
 200.385 734.377 301.269 741 327 741 c 0
 375.342 741 422 716.676 422 669 c 0
 422 633.766 392.435 609 359 609 c 0
 358 609 l 0
 313.134 609 291.43 636 265 636 c 0
 199.061 636 176.401 512.445 172.924 467.238 c 1
 172.004 458.039 172 449.166 172 438 c 0
 172 431 l 1
 288.459 431 l 1
 343.613 434.212 362.046 442 379 442 c 0
 385.325 442 394.237 440.911 402.873 435.026 c 0
 414.754 426.929 421 412.183 421 395 c 0
 421 386.169 414 298.964 414 184 c 0
 414 169.24 415.582 84.0907 416.528 61.0798 c 1
 422.292 59.7454 428.984 58.5272 438.325 56.728 c 1
 442.187 56.1763 452.087 54.5029 460.484 47.0981 c 0
 468.435 40.0862 473 28.9683 473 17 c 0
 473 10.0561 470.273 -25 437 -25 c 0
 423.923 -25 404.574 -20 356 -20 c 0
 308.202 -20 274.472 -26 266 -26 c 0
 256.916 -26 246.87 -22.0876 239.998 -14.7922 c 1
241.418 43.1269 m 1
 256.124 56.7201 272.647 54.53 297.098 57.7901 c 1
 308.83 59.6672 307 58.657 307 74 c 0
 307 120 l 0
 307 242.266 307.859 309.707 307.984 335.242 c 1
 304.776 335.593 302.731 335.774 299.267 336.075 c 0
 298.486 336.143 l 1
 297.712 336.272 l 0
 286.781 338.094 275.975 339 264 339 c 0
 173 339 l 1
 173 61 l 0
 173 59.4111 173.066 57.8354 173.127 57.0405 c 1
 174.123 56.9547 173.394 57.007 174.392 56.9544 c 1
 180.049 56.4625 183.898 56.2039 188.241 55.9492 c 0
 207.205 54.837 226.132 59.4992 241.418 43.1269 c 1
EndSplineSet
Ligature2: "'liga' Standard Ligatures in Latin lookup 1 per glyph data 1" f i
EndChar

StartChar: f_l
Encoding: 65539 -1 289
Width: 460
GlyphClass: 3
Flags: HW
HStem: -6 45<11.1216 72.8318 146 222.988 241.024 309.036 383.553 451.843> 359 52<17.1307 74.8379 146.023 258.046> 656 64<200.436 288.606>
VStem: 77 69<39.0996 358.944 411.009 577.529> 310 73<39.4059 634.46>
LayerCount: 2
Fore
SplineSet
231.976 -15.9222 m 1
 225.136 -22.1898 215.415 -26 207 -26 c 0
 200.784 -26 194.448 -24.4879 177.412 -22.9153 c 0
 161.596 -21.4554 140.171 -20 117 -20 c 0
 68.1605 -20 34.4788 -26 26 -26 c 0
 -7.17447 -26 -9 9.93319 -9 19 c 0
 -9 54.9582 28.7538 54.6114 52.612 58.248 c 1
 52.7904 60.7207 52.8601 62.1536 53.0663 64.6281 c 1
 54.8902 87.4262 56.9168 154.286 56.9981 339.708 c 1
 49.6428 339.761 44.7044 339.765 36.7057 340 c 1
 28.7639 340 16.8572 341.4 7.26724 350.312 c 0
 -0.325623 357.368 -4 367.784 -4 378 c 0
 -4 420.571 28.8198 427.977 36.3671 427.999 c 1
 46.9465 428.593 49.728 428.673 55.0146 428.903 c 1
 55.3544 469.136 59.6253 547.923 92.0832 613.888 c 1
 119.226 668.172 184.596 740 286 740 c 0
 318.231 740 336.205 732 337 732 c 0
 339.488 732 345.133 743 369 743 c 0
 396.941 743 403 715.776 403 704 c 0
 403 71 l 0
 403 65.1684 403.612 61.3953 403.888 60.341 c 1
 407.404 58.8466 419.176 56.991 438.472 53.6967 c 1
 455.927 50.5229 472 36.2733 472 14 c 0
 472 3.85973 468.359 -26 439 -26 c 0
 431.499 -26 395.996 -20 345 -20 c 0
 297.025 -20 262.811 -25 256 -25 c 0
 247.334 -25 238.337 -21.9878 231.976 -15.9222 c 1
232.162 45.3624 m 1
 246.377 57.6314 261.046 55.6065 279.651 57.8616 c 1
 292.193 59.3089 290 56.994 290 76 c 0
 290 566 l 0
 290 591.361 288.083 622.094 252.253 632.843 c 0
 251.166 633.17 l 1
 250.122 633.617 l 0
 246.131 635.327 242.114 636 237 636 c 0
 181.507 636 165 520.229 165 434 c 0
 165.001 431 l 1
 237 431 l 0
 245.602 431 257.917 429.601 267.911 419.768 c 0
 275.461 412.339 279 401.687 279 391 c 0
 279 390 l 0
 279 380.519 274.73 339 233 339 c 0
 166 339 l 1
 166 59 l 0
 166 58.2664 166.015 57.5397 166.028 57.0469 c 1
 167.024 56.9621 166.394 57.007 167.392 56.9544 c 1
 173.597 56.4148 177.886 56.1367 182.607 55.8707 c 0
 200.773 54.8473 216.928 58.7848 232.162 45.3624 c 1
EndSplineSet
Ligature2: "'liga' Standard Ligatures in Latin lookup 1 per glyph data 1" f l
EndChar

